<svg xmlns="http://www.w3.org/2000/svg" xmlns:xlink="http://www.w3.org/1999/xlink" width="500" zoomAndPan="magnify" viewBox="0 0 375 374.999991" height="500" preserveAspectRatio="xMidYMid meet" version="1.0"><defs><clipPath id="id1"><path d="M 88 3.75 L 375 3.75 L 375 371.25 L 88 371.25 Z M 88 3.75 " clip-rule="nonzero"/></clipPath><clipPath id="id2"><path d="M 0 4 L 288 4 L 288 371.25 L 0 371.25 Z M 0 4 " clip-rule="nonzero"/></clipPath></defs><g clip-path="url(#id1)"><path fill="#141418" d="M 374.421875 3.75 L 88.277344 178.167969 L 374.054688 371.25 Z M 374.421875 3.75 " fill-opacity="1" fill-rule="nonzero"/></g><g clip-path="url(#id2)"><path fill="#141418" d="M 283.796875 371.007812 C 284.40625 371.007812 285.015625 370.882812 285.503906 370.640625 C 286.722656 370.03125 287.457031 368.8125 287.457031 367.46875 L 287.945312 7.652344 C 287.945312 6.3125 287.210938 5.089844 286.113281 4.480469 C 285.015625 3.871094 283.550781 3.871094 282.453125 4.605469 L 2.285156 175.363281 C 1.1875 175.972656 0.578125 177.195312 0.578125 178.414062 C 0.578125 179.632812 1.1875 180.851562 2.164062 181.585938 L 281.722656 370.394531 C 282.332031 370.761719 283.066406 371.007812 283.796875 371.007812 Z M 280.625 14.117188 L 280.136719 360.394531 L 10.945312 178.535156 Z M 280.625 14.117188 " fill-opacity="1" fill-rule="nonzero"/></g></svg>