<svg xmlns="http://www.w3.org/2000/svg" xmlns:xlink="http://www.w3.org/1999/xlink" width="500" zoomAndPan="magnify" viewBox="0 0 375 374.999991" height="500" preserveAspectRatio="xMidYMid meet" version="1.0"><defs><clipPath id="id1"><path d="M 0 3.75 L 287 3.75 L 287 371.25 L 0 371.25 Z M 0 3.75 " clip-rule="nonzero"/></clipPath><clipPath id="id2"><path d="M 87 4 L 375 4 L 375 371.25 L 87 371.25 Z M 87 4 " clip-rule="nonzero"/></clipPath></defs><g clip-path="url(#id1)"><path fill="#141418" d="M 0.578125 3.75 L 286.722656 178.167969 L 0.945312 371.25 Z M 0.578125 3.75 " fill-opacity="1" fill-rule="nonzero"/></g><g clip-path="url(#id2)"><path fill="#141418" d="M 91.203125 371.007812 C 90.59375 371.007812 89.984375 370.882812 89.496094 370.640625 C 88.277344 370.03125 87.542969 368.8125 87.542969 367.46875 L 87.054688 7.652344 C 87.054688 6.3125 87.789062 5.089844 88.886719 4.480469 C 89.984375 3.871094 91.449219 3.871094 92.546875 4.605469 L 372.714844 175.363281 C 373.8125 175.972656 374.421875 177.195312 374.421875 178.414062 C 374.421875 179.632812 373.8125 180.851562 372.835938 181.585938 L 93.277344 370.394531 C 92.667969 370.761719 91.933594 371.007812 91.203125 371.007812 Z M 94.375 14.117188 L 94.863281 360.394531 L 364.054688 178.535156 Z M 94.375 14.117188 " fill-opacity="1" fill-rule="nonzero"/></g></svg>