<svg xmlns="http://www.w3.org/2000/svg" xmlns:xlink="http://www.w3.org/1999/xlink" width="500" zoomAndPan="magnify" viewBox="0 0 375 374.999991" height="500" preserveAspectRatio="xMidYMid meet" version="1.0"><defs><clipPath id="id1"><path d="M 0 23.523438 L 228 23.523438 L 228 351 L 0 351 Z M 0 23.523438 " clip-rule="nonzero"/></clipPath><clipPath id="id2"><path d="M 71 23.523438 L 303 23.523438 L 303 351.273438 L 71 351.273438 Z M 71 23.523438 " clip-rule="nonzero"/></clipPath><clipPath id="id3"><path d="M 144 23.523438 L 375 23.523438 L 375 351.273438 L 144 351.273438 Z M 144 23.523438 " clip-rule="nonzero"/></clipPath></defs><g clip-path="url(#id1)"><path fill="#252934" d="M 0.257812 23.914062 L 0 350.753906 L 227.101562 187.65625 Z M 0.257812 23.914062 " fill-opacity="1" fill-rule="nonzero"/></g><g clip-path="url(#id2)"><path fill="#252934" d="M 76.605469 28.707031 L 296.835938 187.65625 L 76.476562 345.832031 L 76.605469 28.707031 M 76.605469 23.523438 C 75.828125 23.523438 75.050781 23.652344 74.273438 24.042969 C 72.589844 24.949219 71.421875 26.761719 71.421875 28.707031 L 71.292969 345.832031 C 71.292969 347.773438 72.328125 349.585938 74.144531 350.496094 C 74.921875 350.882812 75.699219 351.011719 76.476562 351.011719 C 77.515625 351.011719 78.550781 350.625 79.460938 349.976562 L 299.820312 191.800781 C 301.113281 190.765625 302.023438 189.210938 302.023438 187.65625 C 302.023438 185.972656 301.246094 184.417969 299.820312 183.511719 L 79.71875 24.558594 C 78.8125 23.914062 77.773438 23.523438 76.605469 23.523438 Z M 76.605469 23.523438 " fill-opacity="1" fill-rule="nonzero"/></g><g clip-path="url(#id3)"><path fill="#252934" d="M 149.714844 28.964844 L 369.816406 187.914062 L 149.457031 346.089844 L 149.714844 28.964844 M 149.714844 23.78125 C 148.9375 23.78125 148.160156 23.914062 147.382812 24.300781 C 145.695312 25.207031 144.53125 27.023438 144.53125 28.964844 L 144.269531 346.089844 C 144.269531 348.03125 145.308594 349.847656 147.121094 350.753906 C 147.898438 351.140625 148.679688 351.269531 149.457031 351.269531 C 150.492188 351.269531 151.53125 350.882812 152.4375 350.234375 L 372.796875 192.0625 C 374.09375 191.023438 375 189.46875 375 187.914062 C 375 186.230469 374.222656 184.675781 372.796875 183.769531 L 152.824219 24.820312 C 151.917969 24.171875 150.75 23.78125 149.714844 23.78125 Z M 149.714844 23.78125 " fill-opacity="1" fill-rule="nonzero"/></g></svg>