<svg xmlns="http://www.w3.org/2000/svg" xmlns:xlink="http://www.w3.org/1999/xlink" width="500" zoomAndPan="magnify" viewBox="0 0 375 374.999991" height="500" preserveAspectRatio="xMidYMid meet" version="1.0"><path fill="#a86a33" d="M 32.609375 77.714844 C 32.460938 77.488281 32.382812 77.1875 32.234375 76.964844 C 32.835938 76.886719 33.511719 76.886719 34.117188 76.8125 C 34.492188 76.363281 34.792969 75.910156 35.167969 75.535156 C 36.597656 76.285156 38.105469 77.039062 39.535156 77.792969 C 40.738281 76.363281 42.019531 74.855469 43.449219 73.351562 C 47.886719 68.6875 53.53125 65 59.476562 61.085938 C 64.972656 57.472656 70.691406 53.789062 75.359375 49.199219 C 77.917969 46.640625 80.023438 43.703125 82.054688 40.769531 C 84.539062 37.234375 87.023438 33.773438 90.183594 31.289062 C 89.433594 27.902344 88.679688 24.367188 87.550781 21.207031 C 83.109375 31.816406 73.324219 40.769531 64.898438 47.542969 C 63.992188 48.21875 63.164062 48.894531 62.261719 49.574219 C 62.339844 50.101562 62.339844 50.550781 62.339844 51.078125 C 62.339844 51.453125 61.660156 51.753906 61.285156 52.132812 C 61.132812 51.605469 61.058594 51.152344 60.90625 50.628906 C 54.886719 55.140625 48.488281 59.28125 41.941406 62.890625 C 41.414062 63.042969 34.265625 67.859375 33.4375 65.976562 C 32.609375 64.097656 40.738281 60.410156 42.09375 59.429688 C 55.414062 50.628906 69.261719 39.566406 77.539062 25.644531 C 80.101562 21.28125 80.324219 16.765625 81.679688 12.550781 C 79.574219 10.972656 76.863281 10.070312 73.402344 10.070312 C 60.90625 10.070312 35.921875 29.484375 24.78125 47.917969 C 19.363281 56.871094 17.933594 64.472656 20.792969 69.816406 C 23.578125 75.15625 30.503906 77.941406 37.503906 80.5 C 37.652344 80.273438 37.804688 80.046875 37.953125 79.898438 C 36.148438 79.144531 34.339844 78.46875 32.609375 77.714844 Z M 31.933594 65.074219 C 31.332031 64.621094 31.03125 63.871094 30.578125 63.191406 C 31.03125 62.96875 31.707031 62.367188 32.007812 62.441406 C 32.683594 62.742188 33.136719 63.417969 34.039062 64.320312 C 32.910156 64.773438 32.160156 65.226562 31.933594 65.074219 Z M 31.933594 65.074219 " fill-opacity="1" fill-rule="nonzero"/><path fill="#83e5ff" d="M 354.199219 239.722656 C 346.898438 214.890625 323.191406 187.046875 302.269531 162.519531 C 295.421875 154.542969 289.023438 146.941406 283.828125 140.246094 C 257.941406 106.761719 235.363281 87.421875 196.828125 87.421875 C 192.085938 87.421875 186.96875 87.722656 181.777344 88.324219 C 176.433594 88.925781 171.917969 89.679688 168.003906 90.28125 C 162.8125 91.109375 158.671875 91.785156 155.058594 91.785156 C 146.402344 91.785156 140.382812 87.875 129.246094 75.007812 C 127.0625 72.449219 124.050781 67.179688 120.964844 61.613281 C 114.792969 50.703125 107.871094 38.363281 102.074219 37.460938 C 101.851562 37.460938 101.625 37.382812 101.398438 37.382812 C 100.34375 37.382812 97.335938 39.414062 93.421875 42.5 C 86.570312 47.769531 77.015625 56.042969 70.390625 61.761719 C 65.199219 66.355469 54.285156 76.058594 47.664062 82.382812 C 47.886719 82.683594 48.113281 83.132812 48.339844 83.433594 C 47.964844 83.507812 47.664062 83.660156 47.285156 83.8125 C 47.359375 83.734375 47.4375 83.660156 47.511719 83.585938 C 47.285156 83.433594 47.058594 83.359375 46.757812 83.285156 C 46.535156 83.507812 46.382812 83.660156 46.15625 83.8125 C 43.898438 86.066406 42.394531 87.722656 42.242188 88.175781 C 41.792969 89.90625 42.09375 91.636719 42.921875 93.292969 C 44.800781 97.203125 49.542969 101.042969 55.261719 104.804688 C 56.316406 103.902344 57.824219 103.449219 59.402344 103.300781 C 61.511719 103.074219 63.769531 103.148438 65.273438 102.847656 C 68.433594 102.246094 71.519531 101.417969 74.453125 100.289062 C 75.507812 99.914062 76.5625 99.460938 77.539062 99.011719 C 77.390625 98.710938 77.164062 98.410156 77.015625 98.109375 C 77.765625 97.730469 78.519531 97.355469 79.496094 96.902344 C 79.796875 97.128906 80.101562 97.429688 80.402344 97.65625 C 82.660156 96.453125 84.839844 95.171875 87.023438 93.742188 C 92.214844 90.207031 96.808594 85.765625 100.871094 80.953125 C 102.753906 78.695312 104.257812 76.136719 106.066406 73.804688 C 106.214844 73.652344 106.367188 73.425781 106.515625 73.277344 C 106.289062 73.503906 106.140625 73.726562 106.066406 73.804688 C 105.839844 74.027344 105.914062 74.027344 106.066406 73.804688 C 107.042969 72.597656 112.988281 65.449219 110.730469 70.792969 C 109.601562 73.425781 108.246094 75.984375 106.742188 78.46875 C 101.398438 87.496094 93.949219 95.472656 85.367188 101.191406 C 85.066406 101.417969 84.539062 101.71875 83.863281 102.09375 C 80.851562 103.75 74.679688 106.609375 68.734375 108.71875 C 67.078125 109.320312 65.421875 109.769531 63.84375 110.222656 C 64.671875 110.671875 65.5 111.199219 66.328125 111.652344 C 67.304688 112.253906 68.359375 112.78125 69.335938 113.382812 C 70.617188 112.929688 72.800781 112.179688 75.207031 111.277344 C 81.453125 108.941406 89.433594 105.859375 89.28125 105.632812 C 90.183594 107.136719 86.570312 109.996094 82.132812 112.253906 C 79.046875 113.832031 75.585938 115.113281 72.875 115.488281 C 77.917969 118.574219 82.207031 121.433594 84.539062 124.21875 C 99.515625 141.902344 97.636719 145.890625 92.140625 157.628906 C 90.035156 162.140625 87.398438 167.785156 85.066406 175.609375 C 76.789062 203 82.882812 227.230469 104.859375 253.941406 C 127.289062 281.257812 157.390625 303.605469 186.59375 325.199219 C 195.097656 331.445312 203.828125 337.992188 212.03125 344.3125 C 228.0625 356.730469 238.597656 364.253906 250.113281 364.253906 C 260.425781 364.253906 271.636719 358.535156 289.925781 347.398438 C 307.914062 336.414062 325.976562 319.332031 338.394531 301.648438 C 349.382812 285.921875 360.898438 262.59375 354.199219 239.722656 Z M 63.917969 83.359375 C 65.121094 85.464844 66.101562 87.046875 66.929688 88.703125 C 67.003906 88.777344 65.648438 89.753906 65.574219 89.679688 C 64.070312 88.324219 62.640625 86.894531 61.132812 85.464844 C 61.734375 84.863281 62.488281 84.414062 63.917969 83.359375 Z M 337.566406 266.058594 C 338.167969 266.433594 338.621094 267.109375 339.523438 268.011719 C 338.394531 268.390625 337.566406 268.839844 337.414062 268.691406 C 336.890625 268.164062 336.585938 267.335938 336.136719 266.660156 C 336.585938 266.433594 337.265625 265.90625 337.566406 266.058594 Z M 333.652344 215.039062 C 334.253906 215.417969 334.78125 216.019531 335.683594 216.921875 C 334.632812 217.296875 333.953125 217.671875 333.726562 217.523438 C 333.199219 216.996094 332.824219 216.320312 332.375 215.640625 C 332.824219 215.417969 333.425781 214.890625 333.652344 215.039062 Z M 291.957031 169.515625 C 294.214844 170.417969 304.453125 180.953125 298.28125 181.105469 C 293.6875 181.328125 289.097656 168.460938 291.957031 169.515625 Z M 266.144531 129.863281 C 266.59375 130.011719 266.894531 130.839844 267.5 131.742188 C 266.445312 131.96875 265.691406 132.417969 265.242188 132.195312 C 264.789062 131.894531 264.714844 131.066406 264.414062 130.464844 C 265.015625 130.238281 265.691406 129.710938 266.144531 129.863281 Z M 253.425781 123.238281 C 256.8125 126.25 259.972656 129.484375 263.058594 132.796875 C 263.132812 132.570312 263.285156 132.417969 263.359375 132.195312 C 263.507812 132.722656 263.585938 133.097656 263.734375 133.546875 C 267.046875 137.160156 270.207031 140.847656 273.21875 144.609375 C 275.476562 147.394531 289.097656 164.625 284.734375 164.476562 C 279.839844 164.324219 269.152344 147.996094 266.070312 144.234375 C 264.789062 142.726562 263.585938 141.148438 262.378906 139.566406 C 261.703125 140.171875 260.949219 140.695312 260.273438 141.222656 C 260.046875 140.621094 259.445312 139.945312 259.671875 139.492188 C 259.972656 138.816406 260.273438 138.0625 260.726562 137.3125 C 259.519531 135.730469 258.390625 134.226562 257.261719 132.644531 C 255.910156 130.765625 253.046875 128.054688 252.746094 125.875 C 252.898438 126.550781 250.867188 120.90625 253.425781 123.238281 Z M 281.195312 165.753906 C 279.917969 166.582031 278.5625 167.484375 277.28125 168.3125 C 277.054688 167.558594 276.378906 166.582031 276.679688 166.207031 C 277.28125 165.300781 278.335938 164.625 279.464844 163.648438 C 280.441406 164.777344 280.820312 165.300781 281.195312 165.753906 Z M 219.558594 92.765625 C 220.085938 93.292969 220.609375 93.96875 221.363281 94.945312 C 220.386719 95.25 219.558594 95.550781 219.480469 95.472656 C 219.105469 94.796875 218.878906 93.96875 218.730469 93.214844 C 218.730469 93.066406 219.480469 92.691406 219.558594 92.765625 Z M 217 90.132812 C 216.921875 90.132812 216.847656 90.132812 216.773438 90.054688 C 216.847656 90.132812 216.921875 90.132812 217 90.132812 Z M 187.796875 99.839844 C 198.636719 96.527344 211.203125 97.65625 221.890625 101.042969 C 227.160156 102.699219 232.203125 104.953125 236.792969 107.964844 C 237.847656 108.640625 250.339844 118.046875 248.007812 119.027344 C 245.070312 120.304688 239.050781 114.359375 236.566406 113.007812 C 230.921875 109.921875 224.976562 107.4375 218.804688 105.632812 C 212.03125 103.675781 204.957031 102.472656 197.882812 102.019531 C 196.601562 101.945312 184.636719 100.816406 187.796875 99.839844 Z M 113.441406 120.832031 C 113.96875 120.980469 114.269531 121.734375 115.546875 123.316406 C 114.269531 123.390625 113.515625 123.617188 113.0625 123.390625 C 112.613281 123.089844 112.160156 122.335938 112.234375 121.808594 C 112.160156 121.433594 113.140625 120.679688 113.441406 120.832031 Z M 114.34375 118.199219 C 114.042969 117.671875 113.363281 116.996094 113.515625 116.542969 C 113.589844 116.015625 114.417969 115.714844 114.945312 115.261719 C 115.246094 115.789062 115.621094 116.316406 116.074219 117.144531 C 115.320312 117.597656 114.871094 117.898438 114.34375 118.199219 Z M 106.066406 40.621094 C 107.195312 41.671875 108.324219 43.027344 109.527344 44.609375 C 109.074219 44.832031 108.472656 45.058594 107.644531 45.511719 C 106.515625 44.082031 105.539062 42.726562 104.484375 41.371094 C 105.011719 41.144531 105.761719 40.695312 106.066406 40.621094 Z M 92.96875 72.148438 C 92.59375 71.921875 92.214844 71.09375 92.367188 70.644531 C 92.519531 70.191406 93.195312 69.890625 93.648438 69.515625 C 93.949219 70.117188 94.324219 70.644531 94.777344 71.546875 C 94.023438 71.847656 93.34375 72.296875 92.96875 72.148438 Z M 76.035156 116.996094 C 77.464844 116.542969 91.613281 111.199219 91.464844 110.972656 C 93.496094 113.457031 85.066406 117.519531 83.789062 117.898438 C 81.679688 118.5 75.058594 117.296875 76.035156 116.996094 Z M 83.183594 121.886719 C 84.3125 121.359375 93.269531 114.960938 93.949219 116.242188 C 95.527344 119.476562 82.808594 126.023438 83.183594 121.886719 Z M 102.226562 242.128906 C 99.515625 241.527344 93.269531 236.9375 93.722656 237.085938 C 95.527344 237.464844 115.398438 240.847656 115.320312 240.246094 C 115.773438 243.632812 103.730469 242.429688 102.226562 242.128906 Z M 103.128906 234.980469 C 99.816406 234.378906 96.582031 233.398438 93.570312 231.894531 C 93.042969 231.667969 87.25 227.078125 89.28125 227.90625 C 92.066406 229.035156 122.171875 234.828125 121.871094 232.574219 C 122.394531 236.183594 105.160156 235.28125 103.128906 234.980469 Z M 86.796875 221.738281 C 94.171875 224.972656 102.980469 225.574219 110.957031 225.199219 C 113.441406 225.046875 130.523438 221.738281 130.675781 222.265625 C 132.480469 228.507812 83.410156 231.367188 86.796875 221.738281 Z M 100.117188 223.617188 C 101.773438 222.039062 102.375 221.4375 102.980469 220.835938 C 103.128906 221.738281 103.429688 222.640625 103.28125 223.542969 C 103.203125 223.996094 102.300781 224.746094 101.925781 224.671875 C 101.246094 224.519531 100.570312 223.917969 100.117188 223.617188 Z M 221.289062 290.585938 C 219.859375 290.363281 215.945312 266.882812 215.269531 264.777344 C 213.3125 259.285156 210.828125 253.941406 207.890625 248.902344 C 205.257812 246.644531 202.625 244.460938 199.914062 242.277344 C 201.945312 252.964844 201.570312 264.175781 198.558594 274.484375 C 197.582031 277.796875 189.078125 298.714844 185.390625 295.554688 C 184.261719 294.574219 193.066406 272.453125 193.441406 270.347656 C 195.550781 259.8125 195.699219 248.902344 194.570312 238.214844 C 194.042969 237.765625 193.441406 237.386719 192.914062 236.9375 C 189.078125 247.695312 185.390625 261.015625 177.335938 268.917969 C 163.335938 282.609375 156.339844 265.304688 164.617188 253.191406 C 157.015625 257.480469 141.738281 258.082031 145.652344 244.988281 C 148.511719 235.207031 166.5 230.765625 174.929688 228.886719 C 176.359375 228.585938 177.789062 228.359375 179.140625 228.132812 C 166.121094 220.757812 152.574219 213.988281 139.179688 207.441406 C 135.941406 208.71875 132.707031 209.773438 129.394531 210.75 C 127.210938 211.351562 108.472656 216.09375 108.398438 213.160156 C 108.398438 210.976562 125.40625 207.890625 127.136719 207.289062 C 129.394531 206.539062 131.652344 205.710938 133.835938 204.882812 C 131.351562 203.679688 128.945312 202.550781 126.460938 201.34375 L 123.902344 200.140625 C 122.472656 199.464844 121.042969 198.785156 119.613281 198.183594 C 116.976562 196.980469 114.191406 195.777344 111.710938 194.347656 C 108.398438 192.464844 104.710938 189.90625 102.753906 185.617188 C 101.851562 183.664062 101.851562 181.855469 101.925781 179.976562 C 101.925781 178.621094 101.925781 177.191406 101.625 175.6875 C 101.171875 173.804688 100.421875 172.828125 99.59375 171.773438 C 99.066406 171.097656 98.386719 170.269531 97.785156 169.066406 C 91.539062 157.777344 105.160156 142.050781 111.03125 135.277344 C 118.632812 126.476562 130.296875 114.738281 143.167969 114.738281 C 153.253906 114.738281 158.144531 122.1875 163.335938 130.011719 C 164.84375 132.269531 166.421875 134.675781 168.078125 136.785156 C 175.304688 145.964844 182.226562 154.015625 189 161.238281 C 190.734375 158.832031 192.464844 156.421875 194.042969 153.941406 C 199.160156 146.113281 203.527344 137.761719 207.289062 129.257812 C 208.34375 126.777344 209.246094 122.109375 210.976562 120.003906 C 209.847656 121.359375 214.664062 113.457031 213.6875 118.347656 C 210.148438 135.054688 202.773438 151.082031 192.6875 165.152344 C 193.441406 165.90625 194.195312 166.65625 194.949219 167.410156 C 213.386719 185.917969 234.835938 197.207031 259.070312 209.019531 C 276.230469 217.371094 294.515625 225.875 316.792969 235.882812 C 317.699219 236.257812 318.601562 236.636719 319.578125 237.085938 C 323.34375 238.667969 327.253906 240.246094 329.664062 243.40625 C 333.050781 247.773438 334.707031 254.09375 335.15625 260.414062 C 335.457031 265.230469 335.082031 270.046875 334.105469 274.109375 C 330.792969 287.804688 320.632812 297.285156 312.730469 302.777344 C 306.484375 307.140625 299.410156 310.828125 292.257812 313.460938 C 289.777344 314.363281 287.742188 314.816406 285.9375 314.816406 C 282.324219 314.816406 279.539062 313.011719 275.925781 309.851562 C 274.496094 308.644531 273.066406 307.367188 271.636719 306.089844 C 263.285156 298.789062 255.003906 291.1875 247.027344 283.816406 C 239.425781 276.816406 231.597656 269.59375 223.773438 262.671875 C 222.492188 261.542969 221.214844 260.414062 220.007812 259.285156 C 220.835938 261.390625 221.515625 263.5 222.042969 265.679688 C 222.644531 269.140625 226.03125 291.492188 221.289062 290.585938 Z M 243.792969 358.683594 C 240.328125 358.234375 242.136719 343.785156 246.125 345.59375 C 245.898438 347.097656 245.070312 358.910156 243.792969 358.683594 Z M 249.960938 357.03125 C 245.671875 356.953125 244.996094 349.65625 248.683594 349.882812 C 249.058594 351.761719 252.824219 357.105469 249.960938 357.03125 Z M 257.339844 355.148438 C 254.253906 357.179688 248.757812 352.214844 252.296875 350.859375 C 253.800781 352.890625 261.101562 352.664062 257.339844 355.148438 Z M 330.339844 289.234375 C 330.191406 289.234375 330.117188 289.007812 329.964844 288.78125 C 329.890625 288.707031 329.890625 288.632812 329.8125 288.554688 C 329.964844 288.480469 330.113281 288.40625 330.265625 288.328125 C 331.09375 287.953125 331.921875 287.503906 332.75 287.203125 C 332.976562 287.125 333.5 287.953125 334.480469 289.082031 C 332.523438 289.15625 331.46875 289.234375 330.339844 289.234375 Z M 340.800781 291.566406 C 340.277344 290.738281 339.898438 290.0625 339.449219 289.382812 C 339.972656 289.15625 340.726562 288.707031 340.953125 288.855469 C 341.628906 289.457031 342.15625 290.285156 342.757812 291.039062 C 342.230469 291.113281 341.628906 291.265625 340.800781 291.566406 Z M 346.746094 253.566406 C 346.222656 254.242188 345.394531 254.621094 344.566406 255.222656 C 343.585938 254.09375 342.910156 253.265625 342.230469 252.511719 C 343.511719 252.363281 344.792969 252.0625 346.070312 252.0625 C 346.296875 252.0625 346.898438 253.414062 346.746094 253.566406 Z M 189.378906 234.453125 C 189.453125 234.527344 189.605469 234.605469 189.679688 234.679688 C 186.667969 240.546875 183.808594 246.492188 180.796875 252.285156 C 179.519531 254.769531 167.402344 275.988281 165.671875 264.101562 C 164.242188 254.621094 182.078125 240.625 189.378906 234.453125 Z M 185.914062 232.195312 C 177.335938 238.140625 169.058594 245.136719 159.425781 249.203125 C 154.832031 251.160156 149.941406 251.007812 151.972656 245.515625 C 154.832031 237.6875 173.800781 233.097656 184.183594 231.144531 C 184.785156 231.519531 185.3125 231.820312 185.914062 232.195312 Z M 185.914062 232.195312 " fill-opacity="1" fill-rule="nonzero"/><path fill="#ffffff" d="M 146.101562 153.414062 C 146.707031 156.875 138.953125 165.753906 136.769531 168.460938 C 133.835938 172.074219 130.449219 175.386719 126.609375 178.167969 C 122.695312 176.4375 118.785156 174.707031 114.871094 172.976562 C 125.257812 166.507812 132.105469 155.144531 136.167969 143.855469 C 138.277344 145.890625 145.652344 150.703125 146.101562 153.414062 Z M 108.625 176.214844 C 107.871094 178.546875 107.195312 181.40625 109.074219 184.414062 C 112.085938 183.136719 118.785156 182.683594 121.117188 181.480469 C 117.203125 179.75 111.484375 178.246094 108.625 176.214844 Z M 181.398438 170.871094 C 179.445312 171.621094 177.710938 172.226562 177.1875 172.300781 C 169.132812 173.503906 169.359375 169.742188 166.949219 164.398438 C 165.21875 160.636719 161.230469 160.710938 160.628906 156.046875 C 160.175781 152.886719 162.359375 147.167969 164.390625 147.320312 C 163.714844 149.726562 161.757812 155.519531 163.488281 157.703125 C 165.445312 160.1875 168.304688 158.757812 169.960938 162.742188 C 171.390625 166.207031 169.132812 168.539062 174.324219 169.667969 C 175.53125 169.96875 180.875 168.238281 184.5625 167.183594 C 184.785156 166.882812 185.089844 166.507812 185.3125 166.207031 C 184.636719 165.453125 183.882812 164.699219 183.207031 163.949219 C 175.605469 155.671875 167.929688 146.566406 160.328125 136.859375 C 159.800781 136.105469 159.273438 135.355469 158.671875 134.527344 C 155.132812 147.921875 141.0625 171.621094 137.449219 175.460938 C 131.953125 181.253906 123.75 187.800781 115.320312 189.304688 C 119.761719 191.863281 124.503906 193.972656 129.167969 196.003906 C 131.804688 197.207031 134.589844 198.410156 137.148438 199.691406 C 138.5 200.367188 139.855469 200.96875 141.210938 201.644531 C 146.929688 198.9375 152.425781 195.851562 157.617188 192.242188 C 166.421875 186.296875 174.402344 178.996094 181.398438 170.871094 Z M 328.988281 262.59375 C 329.0625 266.882812 328.460938 271.023438 327.632812 274.109375 C 324.320312 285.621094 315.214844 295.328125 300.460938 303.078125 C 299.484375 303.605469 298.503906 304.132812 297.601562 304.660156 C 293.765625 306.765625 290.527344 308.570312 287.066406 308.570312 C 284.65625 308.570312 282.476562 307.667969 280.21875 305.863281 C 278.710938 304.582031 277.132812 303.304688 275.625 301.949219 C 268.402344 295.703125 261.402344 289.15625 254.554688 282.761719 C 253.425781 281.707031 252.371094 280.730469 251.242188 279.675781 C 251.316406 279.675781 251.394531 279.675781 251.46875 279.601562 C 251.242188 279.449219 251.015625 279.300781 250.789062 279.148438 C 246.878906 275.460938 242.8125 271.777344 238.824219 268.164062 C 235.890625 265.53125 232.953125 262.898438 230.019531 260.1875 C 223.921875 254.695312 217.75 249.050781 211.355469 243.632812 C 208.34375 239.417969 204.957031 235.582031 201.195312 232.121094 C 207.441406 231.519531 213.613281 229.035156 218.128906 224.445312 C 220.160156 222.414062 229.71875 203.902344 223.773438 201.945312 C 221.738281 201.269531 216.621094 216.621094 215.191406 218.425781 C 214.441406 219.40625 212.484375 221.285156 210.148438 223.242188 C 210 223.015625 209.847656 222.789062 209.625 222.566406 C 212.257812 219.929688 214.363281 216.769531 215.871094 213.308594 C 216.921875 210.75 220.160156 190.058594 213.761719 191.941406 C 211.65625 192.542969 213.011719 202.171875 212.707031 203.753906 C 211.578125 210.375 208.042969 216.695312 203.226562 221.285156 C 201.417969 223.015625 199.613281 224.21875 197.882812 225.046875 C 197.355469 224.21875 196.980469 223.617188 196.527344 223.015625 C 196.527344 222.941406 195.398438 223.542969 195.398438 223.769531 C 195.472656 224.519531 195.550781 225.273438 195.699219 226.027344 C 194.34375 226.476562 193.066406 226.777344 191.710938 227.078125 C 192.539062 225.273438 191.484375 219.628906 191.257812 219.101562 C 190.207031 216.242188 188.023438 213.835938 185.691406 212.03125 C 181.023438 208.417969 176.433594 208.644531 171.464844 211.652344 C 169.734375 212.707031 176.132812 211.804688 177.1875 211.804688 C 180.875 211.953125 183.207031 213.535156 185.691406 216.167969 C 188.023438 218.578125 188.324219 222.414062 190.128906 224.519531 C 190.582031 225.046875 189.753906 226.628906 190.28125 227.304688 C 190.128906 227.304688 190.054688 227.304688 189.90625 227.378906 C 176.734375 218.726562 162.058594 211.730469 147.835938 204.957031 C 147.457031 204.804688 147.082031 204.582031 146.707031 204.429688 C 163.1875 196.605469 177.710938 184.640625 189.152344 170.191406 C 204.054688 185.015625 220.835938 196.753906 242.4375 207.742188 C 265.242188 219.328125 288.648438 230.089844 308.589844 239.042969 C 309.945312 239.644531 311.527344 240.171875 313.179688 240.773438 C 316.71875 242.054688 320.707031 243.484375 323.191406 245.589844 C 327.253906 249.203125 328.835938 255.972656 328.988281 262.59375 Z M 309.042969 265.980469 C 309.492188 266.808594 309.945312 267.710938 310.546875 268.464844 C 310.621094 268.617188 311.527344 268.164062 313.785156 267.335938 C 312.578125 266.28125 311.902344 265.378906 311 265.003906 C 310.546875 264.851562 309.71875 265.679688 309.042969 265.980469 Z M 277.28125 240.324219 C 279.390625 240.246094 291.355469 236.710938 291.582031 235.882812 C 292.257812 233.25 278.035156 237.539062 277.132812 237.464844 C 272.917969 237.164062 272.390625 234.828125 269.90625 232.421875 C 266.445312 229.109375 264.5625 230.464844 260.5 228.585938 C 255.683594 226.328125 255.003906 220.984375 254.328125 216.242188 C 254.027344 214.289062 253.199219 221.8125 253.425781 222.789062 C 253.953125 225.046875 254.78125 227.378906 256.433594 229.035156 C 259.597656 232.121094 264.035156 231.21875 267.121094 233.777344 C 271.109375 236.9375 271.035156 240.546875 277.28125 240.324219 Z M 316.945312 270.347656 C 316.644531 270.046875 316.34375 269.742188 316.117188 269.519531 C 315.664062 269.066406 315.4375 268.765625 315.0625 268.691406 C 314.535156 268.617188 313.933594 269.21875 313.40625 269.441406 C 313.707031 269.820312 313.933594 270.421875 314.308594 270.648438 C 314.386719 270.648438 314.386719 270.722656 314.460938 270.722656 C 314.988281 270.871094 315.664062 270.570312 316.945312 270.347656 Z M 208.042969 223.996094 C 205.03125 226.554688 201.417969 228.359375 197.429688 229.109375 C 199.460938 230.691406 204.429688 227.679688 208.71875 224.445312 C 208.496094 224.296875 208.269531 224.144531 208.042969 223.996094 Z M 110.882812 169.140625 C 122.546875 162.140625 126.160156 151.457031 131.878906 140.09375 C 135.941406 131.894531 143.921875 143.933594 148.285156 148.222656 C 149.414062 145.285156 151.597656 133.171875 154.304688 127.90625 C 151.597656 124.144531 148.210938 120.980469 143.09375 120.980469 C 129.019531 120.980469 115.472656 138.136719 108.625 148.296875 L 108.246094 148.898438 C 105.3125 153.339844 100.269531 160.710938 102.828125 166.054688 C 103.582031 167.710938 105.238281 168.386719 106.589844 168.988281 C 107.570312 169.441406 108.472656 169.816406 109 170.417969 C 109.527344 170.042969 110.128906 169.589844 110.882812 169.140625 Z M 110.882812 169.140625 " fill-opacity="1" fill-rule="nonzero"/><path fill="#090909" d="M 246.125 345.59375 C 245.972656 347.097656 245.144531 358.910156 243.792969 358.683594 C 240.328125 358.234375 242.136719 343.785156 246.125 345.59375 Z M 249.960938 357.03125 C 252.824219 357.105469 249.058594 351.761719 248.683594 349.882812 C 244.996094 349.65625 245.671875 356.953125 249.960938 357.03125 Z M 252.296875 350.859375 C 248.757812 352.214844 254.175781 357.179688 257.339844 355.148438 C 261.101562 352.664062 253.800781 352.890625 252.296875 350.859375 Z M 110.882812 225.125 C 102.980469 225.5 94.097656 224.898438 86.722656 221.660156 C 83.335938 231.292969 132.40625 228.433594 130.523438 222.1875 C 130.449219 221.738281 113.363281 225.046875 110.882812 225.125 Z M 252.746094 125.949219 C 253.046875 128.128906 255.984375 130.839844 257.261719 132.722656 C 258.390625 134.300781 259.519531 135.882812 260.726562 137.386719 C 260.347656 138.214844 259.972656 138.890625 259.671875 139.566406 C 259.519531 140.019531 260.046875 140.695312 260.273438 141.296875 C 260.949219 140.695312 261.703125 140.171875 262.378906 139.644531 C 263.585938 141.222656 264.789062 142.726562 266.070312 144.308594 C 269.152344 148.070312 279.839844 164.476562 284.734375 164.550781 C 289.097656 164.625 275.476562 147.46875 273.21875 144.683594 C 270.132812 140.921875 266.972656 137.160156 263.734375 133.625 C 263.585938 133.246094 263.507812 132.796875 263.359375 132.269531 C 263.285156 132.496094 263.132812 132.722656 263.058594 132.871094 C 259.972656 129.558594 256.8125 126.324219 253.425781 123.316406 C 250.867188 120.90625 252.898438 126.550781 252.746094 125.949219 Z M 197.882812 102.019531 C 204.957031 102.472656 211.957031 103.675781 218.804688 105.632812 C 224.976562 107.4375 230.921875 109.921875 236.566406 113.007812 C 239.050781 114.359375 245.070312 120.304688 248.007812 119.027344 C 250.339844 118.046875 237.769531 108.566406 236.792969 107.964844 C 232.125 105.03125 227.082031 102.699219 221.890625 101.042969 C 211.203125 97.730469 198.636719 96.527344 187.796875 99.839844 C 184.636719 100.816406 196.601562 101.945312 197.882812 102.019531 Z M 89.355469 227.90625 C 87.324219 227.078125 93.121094 231.667969 93.648438 231.894531 C 96.65625 233.398438 99.894531 234.378906 103.203125 234.980469 C 105.238281 235.355469 122.472656 236.257812 121.945312 232.648438 C 122.171875 234.753906 92.140625 229.035156 89.355469 227.90625 Z M 93.722656 237.085938 C 93.269531 237.011719 99.59375 241.527344 102.226562 242.128906 C 103.730469 242.429688 115.773438 243.707031 115.320312 240.246094 C 115.398438 240.847656 95.527344 237.464844 93.722656 237.085938 Z M 298.28125 181.179688 C 304.453125 180.953125 294.292969 170.417969 291.957031 169.589844 C 289.097656 168.460938 293.6875 181.328125 298.28125 181.179688 Z M 83.183594 121.886719 C 82.808594 126.023438 95.527344 119.476562 93.949219 116.242188 C 93.269531 114.960938 84.3125 121.359375 83.183594 121.886719 Z M 277.132812 237.464844 C 272.917969 237.164062 272.390625 234.828125 269.90625 232.421875 C 266.445312 229.109375 264.5625 230.464844 260.5 228.585938 C 255.683594 226.328125 255.003906 220.984375 254.328125 216.242188 C 254.027344 214.289062 253.199219 221.8125 253.425781 222.789062 C 253.953125 225.046875 254.78125 227.378906 256.433594 229.035156 C 259.597656 232.121094 264.035156 231.21875 267.121094 233.777344 C 270.960938 236.9375 270.886719 240.546875 277.132812 240.324219 C 279.238281 240.246094 291.207031 236.710938 291.429688 235.882812 C 292.257812 233.25 278.035156 237.539062 277.132812 237.464844 Z M 91.464844 110.972656 C 91.691406 111.199219 77.464844 116.542969 76.035156 116.996094 C 75.058594 117.296875 81.679688 118.5 83.710938 117.898438 C 85.066406 117.519531 93.496094 113.457031 91.464844 110.972656 Z M 334.933594 260.488281 C 335.234375 265.304688 334.855469 270.121094 333.878906 274.183594 C 330.566406 287.878906 320.40625 297.359375 312.503906 302.851562 C 306.257812 307.214844 299.183594 310.902344 292.035156 313.539062 C 289.550781 314.441406 287.519531 314.890625 285.710938 314.890625 C 282.097656 314.890625 279.3125 313.085938 275.703125 309.925781 C 274.273438 308.722656 272.84375 307.441406 271.410156 306.164062 C 263.058594 298.863281 254.78125 291.265625 246.800781 283.890625 C 239.199219 276.890625 231.375 269.667969 223.546875 262.746094 C 222.265625 261.617188 220.988281 260.488281 219.785156 259.359375 C 220.609375 261.46875 221.289062 263.574219 221.816406 265.757812 C 222.71875 269.140625 226.105469 291.414062 221.363281 290.585938 C 219.933594 290.363281 216.019531 266.882812 215.34375 264.777344 C 213.386719 259.285156 210.902344 253.941406 207.96875 248.902344 C 205.332031 246.644531 202.699219 244.460938 199.988281 242.277344 C 202.023438 252.964844 201.644531 264.175781 198.636719 274.484375 C 197.65625 277.796875 189.152344 298.714844 185.464844 295.554688 C 184.335938 294.574219 193.140625 272.453125 193.515625 270.347656 C 195.625 259.8125 195.773438 248.902344 194.644531 238.214844 C 194.121094 237.765625 193.515625 237.386719 192.992188 236.9375 C 189.152344 247.695312 185.464844 261.015625 177.410156 268.917969 C 163.414062 282.609375 156.414062 265.304688 164.691406 253.191406 C 157.089844 257.480469 141.8125 258.082031 145.726562 244.988281 C 148.585938 235.207031 166.574219 230.765625 175.003906 228.886719 C 176.433594 228.585938 177.863281 228.359375 179.21875 228.132812 C 166.199219 220.757812 152.652344 213.988281 139.253906 207.441406 C 136.019531 208.71875 132.78125 209.773438 129.46875 210.75 C 127.289062 211.351562 108.546875 216.09375 108.472656 213.160156 C 108.472656 210.976562 125.480469 207.890625 127.210938 207.289062 C 129.46875 206.539062 131.726562 205.710938 133.910156 204.882812 C 131.425781 203.679688 129.019531 202.550781 126.535156 201.34375 L 123.976562 200.140625 C 122.546875 199.464844 121.117188 198.785156 119.6875 198.183594 C 117.050781 196.980469 114.269531 195.777344 111.785156 194.347656 C 108.472656 192.464844 104.785156 189.90625 102.828125 185.617188 C 101.925781 183.664062 101.925781 181.855469 102 179.976562 C 102 178.621094 102 177.191406 101.699219 175.6875 C 101.246094 173.804688 100.496094 172.828125 99.667969 171.773438 C 99.140625 171.097656 98.464844 170.269531 97.859375 169.066406 C 91.613281 157.777344 105.238281 142.050781 111.105469 135.277344 C 118.707031 126.476562 130.375 114.738281 143.242188 114.738281 C 153.328125 114.738281 158.21875 122.1875 163.414062 130.011719 C 164.917969 132.269531 166.5 134.675781 168.15625 136.785156 C 175.378906 145.964844 182.304688 154.015625 189.078125 161.238281 C 190.808594 158.832031 192.539062 156.421875 194.121094 153.941406 C 199.238281 146.113281 203.601562 137.761719 207.367188 129.257812 C 208.417969 126.777344 209.320312 122.109375 211.054688 120.003906 C 209.925781 121.359375 214.742188 113.457031 213.761719 118.347656 C 210.226562 135.054688 202.851562 151.082031 192.765625 165.152344 C 193.515625 165.90625 194.269531 166.65625 195.023438 167.410156 C 213.460938 185.917969 234.910156 197.207031 259.144531 209.019531 C 276.304688 217.371094 294.59375 225.875 316.871094 235.882812 C 317.773438 236.257812 318.675781 236.636719 319.652344 237.085938 C 323.417969 238.667969 327.332031 240.246094 329.738281 243.40625 C 332.824219 247.921875 334.554688 254.167969 334.933594 260.488281 Z M 106.589844 168.988281 C 107.570312 169.441406 108.472656 169.816406 109 170.417969 C 109.527344 170.042969 110.128906 169.589844 110.804688 169.140625 C 122.472656 162.140625 126.082031 151.457031 131.804688 140.09375 C 135.867188 131.894531 143.84375 143.933594 148.210938 148.222656 C 149.339844 145.285156 151.523438 133.171875 154.230469 127.90625 C 151.523438 124.144531 148.136719 120.980469 143.015625 120.980469 C 128.945312 120.980469 115.398438 138.136719 108.546875 148.296875 L 108.171875 148.898438 C 105.238281 153.339844 100.195312 160.710938 102.753906 166.054688 C 103.582031 167.636719 105.160156 168.386719 106.589844 168.988281 Z M 146.101562 153.414062 C 145.652344 150.78125 138.351562 145.890625 136.242188 143.855469 C 132.179688 155.144531 125.332031 166.507812 114.945312 172.976562 C 118.859375 174.707031 122.773438 176.4375 126.6875 178.167969 C 130.449219 175.460938 133.835938 172.148438 136.847656 168.460938 C 138.953125 165.753906 146.707031 156.875 146.101562 153.414062 Z M 121.117188 181.554688 C 117.128906 179.824219 111.40625 178.246094 108.546875 176.214844 C 107.796875 178.546875 107.117188 181.40625 109 184.414062 C 112.085938 183.136719 118.785156 182.757812 121.117188 181.554688 Z M 141.210938 201.796875 C 146.929688 199.089844 152.425781 196.003906 157.617188 192.390625 C 166.5 186.296875 174.402344 178.996094 181.398438 170.871094 C 179.445312 171.621094 177.710938 172.226562 177.1875 172.300781 C 169.132812 173.503906 169.359375 169.742188 166.949219 164.398438 C 165.21875 160.636719 161.230469 160.710938 160.628906 156.046875 C 160.175781 152.886719 162.359375 147.167969 164.390625 147.320312 C 163.714844 149.726562 161.757812 155.519531 163.488281 157.703125 C 165.445312 160.1875 168.304688 158.757812 169.960938 162.742188 C 171.390625 166.207031 169.132812 168.539062 174.324219 169.667969 C 175.53125 169.96875 180.875 168.238281 184.5625 167.183594 C 184.785156 166.882812 185.089844 166.507812 185.3125 166.207031 C 184.636719 165.453125 183.882812 164.699219 183.207031 163.949219 C 175.605469 155.671875 167.929688 146.566406 160.328125 136.859375 C 159.800781 136.105469 159.273438 135.355469 158.671875 134.527344 C 155.132812 147.921875 141.0625 171.621094 137.449219 175.460938 C 131.953125 181.253906 123.75 187.800781 115.320312 189.304688 C 119.761719 191.863281 124.503906 193.972656 129.167969 196.003906 C 131.804688 197.207031 134.589844 198.410156 137.148438 199.691406 C 138.5 200.515625 139.855469 201.121094 141.210938 201.796875 Z M 185.914062 232.195312 C 185.390625 231.820312 184.785156 231.519531 184.261719 231.144531 C 173.875 233.175781 154.910156 237.765625 152.046875 245.515625 C 150.015625 251.007812 154.910156 251.160156 159.5 249.203125 C 169.058594 245.136719 177.335938 238.214844 185.914062 232.195312 Z M 189.679688 234.679688 C 189.605469 234.605469 189.453125 234.527344 189.378906 234.453125 C 182.078125 240.546875 164.242188 254.542969 165.671875 264.101562 C 167.476562 276.066406 179.519531 254.769531 180.796875 252.285156 C 183.808594 246.492188 186.59375 240.546875 189.679688 234.679688 Z M 208.71875 224.371094 C 208.496094 224.21875 208.269531 224.070312 208.117188 223.917969 C 205.109375 226.476562 201.496094 228.285156 197.507812 229.035156 C 199.460938 230.617188 204.503906 227.679688 208.71875 224.371094 Z M 328.988281 262.59375 C 328.910156 256.050781 327.253906 249.203125 323.039062 245.589844 C 320.558594 243.40625 316.566406 242.054688 313.03125 240.773438 C 311.375 240.171875 309.71875 239.644531 308.441406 239.042969 C 288.496094 230.015625 265.089844 219.253906 242.285156 207.742188 C 220.6875 196.753906 203.902344 185.015625 189 170.195312 C 177.5625 184.640625 163.035156 196.605469 146.554688 204.429688 C 146.929688 204.582031 147.308594 204.804688 147.683594 204.957031 C 161.90625 211.730469 176.582031 218.726562 189.753906 227.378906 C 189.90625 227.378906 189.980469 227.378906 190.128906 227.304688 C 189.605469 226.628906 190.429688 225.046875 189.980469 224.519531 C 188.171875 222.414062 187.871094 218.578125 185.539062 216.167969 C 182.980469 213.535156 180.648438 211.953125 177.035156 211.804688 C 175.980469 211.804688 169.585938 212.707031 171.316406 211.652344 C 176.28125 208.644531 180.875 208.492188 185.539062 212.03125 C 187.949219 213.835938 190.054688 216.320312 191.109375 219.101562 C 191.335938 219.628906 192.386719 225.273438 191.558594 227.078125 C 192.914062 226.855469 194.269531 226.554688 195.550781 226.027344 C 195.398438 225.273438 195.25 224.519531 195.25 223.769531 C 195.25 223.542969 196.300781 223.015625 196.378906 223.015625 C 196.828125 223.617188 197.28125 224.21875 197.730469 225.046875 C 199.539062 224.144531 201.269531 222.941406 203.074219 221.285156 C 207.96875 216.695312 211.429688 210.375 212.558594 203.753906 C 212.859375 202.171875 211.503906 192.542969 213.613281 191.941406 C 220.007812 190.058594 216.773438 210.828125 215.71875 213.308594 C 214.289062 216.769531 212.183594 220.007812 209.472656 222.566406 C 209.625 222.789062 209.847656 223.015625 210 223.242188 C 212.332031 221.285156 214.289062 219.40625 215.042969 218.425781 C 216.398438 216.695312 221.589844 201.269531 223.621094 201.949219 C 229.566406 203.902344 220.007812 222.414062 217.976562 224.445312 C 213.460938 228.960938 207.289062 231.519531 201.042969 232.121094 C 204.804688 235.582031 208.191406 239.417969 211.203125 243.632812 C 217.601562 249.050781 223.773438 254.621094 229.867188 260.1875 C 232.804688 262.820312 235.738281 265.53125 238.671875 268.164062 C 242.664062 271.777344 246.726562 275.460938 250.640625 279.148438 C 250.867188 279.300781 251.089844 279.449219 251.316406 279.601562 C 251.242188 279.601562 251.167969 279.601562 251.089844 279.675781 C 252.21875 280.730469 253.347656 281.785156 254.402344 282.761719 C 261.25 289.15625 268.25 295.703125 275.476562 301.949219 C 276.980469 303.230469 278.488281 304.582031 280.066406 305.863281 C 282.25 307.667969 284.507812 308.570312 286.914062 308.570312 C 290.378906 308.570312 293.613281 306.765625 297.453125 304.660156 C 298.355469 304.132812 299.332031 303.605469 300.3125 303.078125 C 315.0625 295.328125 324.167969 285.621094 327.480469 274.109375 C 328.460938 270.949219 329.0625 266.808594 328.988281 262.59375 Z M 362.101562 271.097656 C 355.476562 293.746094 340.800781 317.675781 321.6875 336.636719 C 301.367188 356.878906 277.507812 370.199219 254.554688 374.261719 C 252.296875 374.636719 250.113281 374.863281 247.929688 374.863281 C 231.675781 374.863281 219.257812 364.027344 206.011719 352.664062 C 202.246094 349.429688 198.335938 346.042969 194.421875 342.957031 C 187.042969 337.238281 179.519531 331.597656 171.542969 325.652344 C 142.566406 304.054688 112.613281 281.707031 91.992188 253.640625 C 72.5 227.15625 67.078125 201.949219 74.980469 174.480469 C 75.886719 171.246094 76.9375 168.160156 77.84375 165.152344 C 84.390625 144.535156 89.132812 129.710938 60.082031 114.4375 C 57.296875 112.929688 54.511719 111.578125 51.800781 110.296875 C 42.019531 105.480469 33.511719 101.34375 32.308594 94.644531 C 32.007812 92.914062 32.160156 91.035156 32.835938 88.925781 C 25.085938 85.765625 17.332031 82.304688 13.117188 75.910156 C 3.410156 61.460938 14.847656 43.929688 26.136719 31.664062 C 37.125 19.925781 55.414062 0.136719 73.402344 0.136719 C 91.238281 0.136719 94.925781 13.230469 98.765625 27.074219 C 98.839844 27.226562 98.839844 27.453125 98.914062 27.601562 C 99.667969 27.527344 100.421875 27.453125 101.246094 27.453125 C 115.171875 27.453125 120.964844 39.566406 127.0625 52.359375 C 132.179688 63.042969 137.449219 74.105469 147.835938 78.769531 C 152.199219 80.726562 157.390625 81.703125 163.789062 81.703125 C 170.414062 81.703125 177.335938 80.726562 184.710938 79.671875 C 192.085938 78.617188 199.6875 77.566406 206.988281 77.566406 C 210.527344 77.566406 213.613281 77.792969 216.546875 78.316406 C 259.671875 85.617188 284.28125 121.132812 307.988281 155.519531 C 311.449219 160.488281 314.988281 165.601562 318.523438 170.570312 C 322.964844 176.738281 327.78125 182.835938 332.449219 188.703125 C 352.617188 214.210938 371.660156 238.292969 362.101562 271.097656 Z M 37.953125 79.746094 C 36.148438 79.070312 34.339844 78.394531 32.609375 77.640625 C 32.460938 77.414062 32.382812 77.113281 32.234375 76.886719 C 32.835938 76.8125 33.511719 76.8125 34.117188 76.738281 C 34.492188 76.285156 34.792969 75.835938 35.167969 75.457031 C 36.597656 76.210938 38.105469 76.964844 39.535156 77.714844 C 40.738281 76.285156 42.019531 74.78125 43.449219 73.277344 C 47.886719 68.609375 53.53125 64.925781 59.476562 61.011719 C 64.972656 57.398438 70.691406 53.710938 75.359375 49.121094 C 77.917969 46.5625 80.023438 43.628906 82.054688 40.695312 C 84.539062 37.15625 87.023438 33.695312 90.183594 31.214844 C 89.433594 27.828125 88.679688 24.289062 87.550781 21.128906 C 83.109375 31.742188 73.324219 40.695312 64.898438 47.46875 C 63.992188 48.144531 63.164062 48.820312 62.261719 49.5 C 62.339844 50.023438 62.339844 50.476562 62.339844 51.003906 C 62.339844 51.378906 61.660156 51.679688 61.285156 52.058594 C 61.132812 51.53125 61.058594 51.078125 60.90625 50.550781 C 54.886719 55.066406 48.488281 59.207031 41.941406 62.816406 C 41.414062 63.042969 34.265625 67.859375 33.4375 65.976562 C 32.609375 64.097656 40.738281 60.410156 42.09375 59.429688 C 55.414062 50.628906 69.261719 39.566406 77.539062 25.644531 C 80.101562 21.28125 80.324219 16.765625 81.679688 12.550781 C 79.574219 10.972656 76.863281 10.070312 73.402344 10.070312 C 60.90625 10.070312 35.921875 29.484375 24.78125 47.917969 C 19.363281 56.871094 17.933594 64.472656 20.792969 69.816406 C 23.578125 75.15625 30.503906 77.941406 37.503906 80.5 C 37.652344 80.199219 37.804688 79.972656 37.953125 79.746094 Z M 354.199219 239.722656 C 346.898438 214.890625 323.191406 187.046875 302.269531 162.519531 C 295.421875 154.542969 289.023438 146.941406 283.828125 140.246094 C 257.941406 106.761719 235.363281 87.421875 196.828125 87.421875 C 192.085938 87.421875 186.96875 87.722656 181.777344 88.324219 C 176.433594 88.925781 171.917969 89.679688 168.003906 90.28125 C 162.8125 91.109375 158.671875 91.785156 155.058594 91.785156 C 146.402344 91.785156 140.382812 87.875 129.246094 75.007812 C 127.0625 72.449219 124.050781 67.179688 120.964844 61.613281 C 114.792969 50.703125 107.871094 38.363281 102.074219 37.460938 C 101.851562 37.460938 101.625 37.382812 101.398438 37.382812 C 100.34375 37.382812 97.335938 39.414062 93.421875 42.5 C 86.570312 47.769531 77.015625 56.042969 70.390625 61.761719 C 65.199219 66.355469 54.285156 76.058594 47.664062 82.382812 C 47.886719 82.683594 48.113281 83.132812 48.339844 83.433594 C 47.964844 83.507812 47.664062 83.660156 47.285156 83.8125 C 47.359375 83.734375 47.4375 83.660156 47.511719 83.585938 C 47.285156 83.433594 47.058594 83.359375 46.757812 83.285156 C 46.535156 83.507812 46.382812 83.660156 46.15625 83.8125 C 43.898438 86.066406 42.394531 87.722656 42.242188 88.175781 C 41.792969 89.90625 42.09375 91.636719 42.921875 93.292969 C 44.800781 97.203125 49.542969 101.042969 55.261719 104.804688 C 56.316406 103.902344 57.824219 103.449219 59.402344 103.300781 C 61.511719 103.074219 63.769531 103.148438 65.273438 102.847656 C 68.433594 102.246094 71.519531 101.417969 74.453125 100.289062 C 75.507812 99.914062 76.5625 99.460938 77.539062 99.011719 C 77.390625 98.710938 77.164062 98.410156 77.015625 98.109375 C 77.765625 97.730469 78.519531 97.355469 79.496094 96.902344 C 79.796875 97.128906 80.101562 97.429688 80.402344 97.65625 C 82.660156 96.453125 84.839844 95.171875 87.023438 93.742188 C 92.214844 90.207031 96.808594 85.765625 100.871094 80.953125 C 102.753906 78.695312 104.257812 76.136719 106.066406 73.804688 C 106.214844 73.652344 106.367188 73.425781 106.515625 73.277344 C 106.289062 73.503906 106.140625 73.726562 106.066406 73.804688 C 105.839844 74.027344 105.914062 74.027344 106.066406 73.804688 C 107.042969 72.597656 112.988281 65.449219 110.730469 70.792969 C 109.601562 73.425781 108.246094 75.984375 106.742188 78.46875 C 101.398438 87.496094 93.949219 95.472656 85.367188 101.191406 C 85.066406 101.417969 84.539062 101.71875 83.863281 102.09375 C 80.851562 103.75 74.679688 106.609375 68.734375 108.71875 C 67.078125 109.320312 65.421875 109.769531 63.84375 110.222656 C 64.671875 110.671875 65.5 111.199219 66.328125 111.652344 C 67.304688 112.253906 68.359375 112.78125 69.335938 113.382812 C 70.617188 112.929688 72.800781 112.179688 75.207031 111.277344 C 81.453125 108.941406 89.433594 105.859375 89.28125 105.632812 C 90.183594 107.136719 86.570312 109.996094 82.132812 112.253906 C 79.046875 113.832031 75.585938 115.113281 72.875 115.488281 C 77.917969 118.574219 82.207031 121.433594 84.539062 124.21875 C 99.515625 141.902344 97.636719 145.890625 92.140625 157.628906 C 90.035156 162.140625 87.398438 167.785156 85.066406 175.609375 C 76.789062 203 82.882812 227.230469 104.859375 253.941406 C 127.289062 281.257812 157.390625 303.605469 186.59375 325.199219 C 195.097656 331.445312 203.828125 337.992188 212.03125 344.3125 C 228.0625 356.730469 238.597656 364.253906 250.113281 364.253906 C 260.425781 364.253906 271.636719 358.535156 289.925781 347.398438 C 307.914062 336.414062 325.976562 319.332031 338.394531 301.648438 C 349.382812 285.921875 360.898438 262.59375 354.199219 239.722656 Z M 276.679688 166.207031 C 276.453125 166.582031 277.054688 167.558594 277.28125 168.3125 C 278.5625 167.484375 279.917969 166.582031 281.195312 165.753906 C 280.820312 165.300781 280.441406 164.851562 279.464844 163.722656 C 278.335938 164.625 277.28125 165.300781 276.679688 166.207031 Z M 265.242188 132.195312 C 265.617188 132.417969 266.371094 131.96875 267.5 131.742188 C 266.894531 130.839844 266.671875 130.011719 266.144531 129.863281 C 265.691406 129.710938 265.015625 130.238281 264.414062 130.464844 C 264.714844 131.140625 264.789062 131.96875 265.242188 132.195312 Z M 92.367188 70.644531 C 92.214844 71.09375 92.59375 71.921875 92.96875 72.148438 C 93.269531 72.296875 93.949219 71.847656 94.777344 71.46875 C 94.25 70.566406 93.949219 70.039062 93.648438 69.4375 C 93.195312 69.890625 92.519531 70.191406 92.367188 70.644531 Z M 32.007812 62.441406 C 31.707031 62.289062 31.03125 62.890625 30.578125 63.191406 C 31.03125 63.871094 31.332031 64.621094 31.933594 65.074219 C 32.160156 65.226562 32.910156 64.773438 34.039062 64.320312 C 33.136719 63.496094 32.609375 62.742188 32.007812 62.441406 Z M 61.058594 85.390625 C 62.488281 86.820312 63.917969 88.25 65.5 89.605469 C 65.574219 89.679688 66.929688 88.703125 66.855469 88.625 C 66.027344 86.972656 65.046875 85.390625 63.84375 83.285156 C 62.488281 84.414062 61.734375 84.863281 61.058594 85.390625 Z M 106.066406 40.621094 C 105.6875 40.695312 104.9375 41.144531 104.484375 41.371094 C 105.539062 42.726562 106.515625 44.003906 107.644531 45.511719 C 108.546875 45.132812 109.074219 44.832031 109.527344 44.609375 C 108.398438 43.027344 107.195312 41.671875 106.066406 40.621094 Z M 217 90.132812 C 216.921875 90.132812 216.847656 90.132812 216.773438 90.054688 C 216.847656 90.132812 216.921875 90.132812 217 90.132812 Z M 333.652344 215.039062 C 333.425781 214.890625 332.824219 215.417969 332.371094 215.640625 C 332.824219 216.320312 333.199219 216.996094 333.726562 217.523438 C 333.878906 217.671875 334.628906 217.296875 335.683594 216.921875 C 334.78125 216.019531 334.328125 215.417969 333.652344 215.039062 Z M 221.363281 94.945312 C 220.535156 93.96875 220.085938 93.292969 219.558594 92.765625 C 219.480469 92.691406 218.730469 93.066406 218.730469 93.140625 C 218.878906 93.894531 219.179688 94.722656 219.480469 95.398438 C 219.558594 95.472656 220.386719 95.171875 221.363281 94.945312 Z M 345.996094 252.0625 C 344.714844 252.0625 343.4375 252.363281 342.15625 252.511719 C 342.835938 253.265625 343.511719 254.09375 344.488281 255.222656 C 345.394531 254.621094 346.144531 254.167969 346.671875 253.566406 C 346.898438 253.414062 346.296875 252.0625 345.996094 252.0625 Z M 315.0625 268.691406 C 314.535156 268.617188 313.933594 269.21875 313.40625 269.441406 C 313.707031 269.820312 313.933594 270.421875 314.308594 270.648438 C 314.386719 270.648438 314.386719 270.722656 314.460938 270.722656 C 314.988281 270.871094 315.664062 270.570312 316.945312 270.269531 C 316.644531 269.96875 316.34375 269.667969 316.117188 269.441406 C 315.742188 269.066406 315.4375 268.691406 315.0625 268.691406 Z M 340.953125 288.78125 C 340.726562 288.632812 339.972656 289.15625 339.449219 289.308594 C 339.898438 289.984375 340.277344 290.664062 340.800781 291.492188 C 341.707031 291.265625 342.230469 291.039062 342.757812 290.886719 C 342.15625 290.210938 341.628906 289.382812 340.953125 288.78125 Z M 337.566406 266.058594 C 337.339844 265.90625 336.664062 266.433594 336.136719 266.734375 C 336.511719 267.410156 336.8125 268.238281 337.414062 268.765625 C 337.566406 268.917969 338.394531 268.464844 339.523438 268.089844 C 338.621094 267.109375 338.167969 266.433594 337.566406 266.058594 Z M 113.0625 123.316406 C 113.515625 123.539062 114.269531 123.316406 115.546875 123.238281 C 114.269531 121.660156 113.96875 120.980469 113.441406 120.757812 C 113.140625 120.679688 112.160156 121.359375 112.160156 121.660156 C 112.160156 122.261719 112.613281 123.089844 113.0625 123.316406 Z M 116.074219 117.144531 C 115.621094 116.390625 115.246094 115.789062 114.945312 115.261719 C 114.417969 115.714844 113.664062 116.015625 113.515625 116.542969 C 113.441406 116.996094 114.042969 117.671875 114.34375 118.199219 C 114.871094 117.898438 115.320312 117.597656 116.074219 117.144531 Z M 310.921875 265.003906 C 310.546875 264.851562 309.71875 265.605469 309.042969 265.980469 C 309.492188 266.808594 309.945312 267.710938 310.546875 268.464844 C 310.621094 268.617188 311.527344 268.164062 313.785156 267.335938 C 312.503906 266.28125 311.828125 265.453125 310.921875 265.003906 Z M 103.28125 223.46875 C 103.429688 222.566406 103.054688 221.660156 102.980469 220.757812 C 102.375 221.359375 101.773438 221.960938 100.117188 223.542969 C 100.644531 223.84375 101.246094 224.519531 101.925781 224.597656 C 102.300781 224.746094 103.203125 223.996094 103.28125 223.46875 Z M 332.75 287.203125 C 331.921875 287.425781 331.09375 287.878906 330.265625 288.328125 C 330.117188 288.40625 329.964844 288.480469 329.8125 288.554688 C 329.890625 288.632812 329.890625 288.707031 329.964844 288.78125 C 330.117188 289.007812 330.191406 289.234375 330.339844 289.234375 C 331.46875 289.234375 332.597656 289.15625 334.480469 289.082031 C 333.503906 287.953125 332.976562 287.125 332.75 287.203125 Z M 332.75 287.203125 " fill-opacity="1" fill-rule="nonzero"/></svg>