<svg xmlns="http://www.w3.org/2000/svg" xmlns:xlink="http://www.w3.org/1999/xlink" width="500" zoomAndPan="magnify" viewBox="0 0 375 225" height="300" preserveAspectRatio="xMidYMid meet" version="1.0"><defs><clipPath id="id1"><path d="M 29.710938 0 L 345 0 L 345 225 L 29.710938 225 Z M 29.710938 0 " clip-rule="nonzero"/></clipPath></defs><g clip-path="url(#id1)"><path fill="#d9d8d7" d="M 235.335938 23.105469 C 238.414062 23.667969 241.621094 24.503906 244.886719 25.59375 C 250.550781 20.660156 256.902344 17.246094 263.128906 15.757812 C 260.964844 13.992188 258.796875 12.234375 256.628906 10.484375 C 253.113281 12.953125 249.417969 15.222656 245.835938 17.414062 C 244.625 18.15625 243.414062 18.898438 242.207031 19.648438 C 241.636719 20.007812 239.765625 20.929688 236.765625 22.402344 C 236.3125 22.625 235.828125 22.863281 235.335938 23.105469 Z M 250.972656 27.917969 C 253.894531 29.148438 256.886719 30.59375 260.039062 32.28125 C 261.832031 31.625 263.632812 30.925781 265.445312 30.222656 C 268.898438 28.878906 272.441406 27.503906 276.011719 26.394531 C 273.484375 24.269531 270.859375 22.089844 268.179688 19.886719 C 261.78125 22.226562 256.230469 24.816406 250.972656 27.917969 Z M 268.117188 36.980469 C 269.035156 37.554688 269.976562 38.15625 270.945312 38.785156 C 274.828125 37.792969 278.578125 36.574219 281.453125 35.609375 C 282.261719 35.34375 283.0625 35.042969 283.871094 34.753906 C 284.316406 34.589844 284.769531 34.425781 285.222656 34.261719 C 284.367188 33.519531 283.511719 32.777344 282.652344 32.039062 C 278.109375 34.421875 272.867188 35.871094 268.117188 36.980469 Z M 278.355469 43.816406 C 279.695312 44.765625 281.097656 45.777344 282.625 46.894531 C 286.085938 46.121094 289.4375 45.261719 292.589844 44.328125 C 293.238281 44.140625 293.882812 43.933594 294.53125 43.726562 C 294.839844 43.628906 295.15625 43.527344 295.472656 43.429688 C 294.042969 42.113281 292.601562 40.808594 291.15625 39.511719 C 287.429688 41.597656 282.925781 42.863281 278.355469 43.816406 Z M 290.429688 52.722656 C 290.675781 52.625 290.933594 52.5625 291.203125 52.53125 C 294.070312 52.199219 297.144531 51.824219 300.222656 51.355469 C 301.316406 51.1875 302.402344 51.019531 303.511719 50.988281 C 302.816406 50.324219 302.113281 49.664062 301.417969 49 C 298.011719 50.894531 293.910156 51.757812 289.96875 52.375 C 290.125 52.488281 290.277344 52.605469 290.429688 52.722656 Z M 308.125 66.78125 C 308.46875 66.601562 308.84375 66.488281 309.242188 66.445312 L 310.011719 66.355469 C 311.785156 66.15625 313.625 65.945312 315.488281 65.945312 C 316.050781 65.945312 316.617188 65.96875 317.183594 66.007812 C 317.507812 66.035156 317.8125 66.089844 318.097656 66.171875 C 315.160156 62.753906 312.070312 59.492188 308.957031 56.347656 C 308.773438 56.578125 308.546875 56.78125 308.289062 56.949219 C 306.226562 58.296875 303.71875 58.503906 301.503906 58.691406 C 300.949219 58.738281 300.402344 58.785156 299.871094 58.847656 C 299.441406 58.898438 299.003906 58.949219 298.558594 59 C 299.023438 59.367188 299.484375 59.734375 299.949219 60.097656 C 300.46875 60.09375 300.984375 60.085938 301.507812 60.085938 C 303.234375 60.085938 305.273438 60.15625 307.261719 60.667969 C 308.273438 60.925781 308.988281 61.855469 308.984375 62.925781 C 308.984375 63.945312 308.320312 64.800781 307.335938 65.054688 C 307.003906 65.136719 306.671875 65.210938 306.324219 65.28125 C 306.925781 65.773438 307.523438 66.273438 308.125 66.78125 Z M 53.28125 78.714844 C 56.292969 78.914062 59.519531 79.144531 63.105469 79.417969 C 70.566406 73.628906 81.445312 69.191406 93.058594 67.117188 C 91.898438 67.042969 90.707031 66.933594 89.46875 66.820312 C 87.089844 66.601562 84.628906 66.375 82.265625 66.375 C 78.546875 66.375 75.796875 66.9375 73.613281 68.148438 C 66.609375 72.019531 59.792969 75.5625 53.28125 78.714844 Z M 102.628906 82.710938 C 106.234375 83.003906 110.257812 83.320312 114.34375 83.613281 L 114.414062 83.578125 C 116.734375 82.308594 119.03125 80.992188 121.324219 79.671875 C 124.339844 77.945312 127.457031 76.160156 130.59375 74.507812 C 134.847656 72.265625 139.320312 70.082031 144.046875 68.429688 C 136.539062 68.277344 129.691406 68.128906 123.070312 67.964844 L 116.90625 67.816406 C 111.785156 67.691406 106.53125 67.5625 101.292969 67.414062 C 101.742188 67.941406 102.03125 68.628906 102.082031 69.414062 C 102.214844 71.347656 100.886719 73 98.996094 73.253906 C 91.800781 74.230469 84.535156 76.660156 77.394531 80.480469 C 77.347656 80.507812 77.300781 80.53125 77.253906 80.558594 C 80.121094 80.800781 82.988281 81.042969 85.855469 81.289062 C 89.359375 79.660156 93.074219 78.214844 96.363281 76.941406 C 97.757812 76.398438 99.101562 75.875 100.371094 75.363281 C 109.808594 71.558594 117.953125 69.863281 126.789062 69.863281 L 127.785156 69.867188 C 129.285156 69.890625 130.445312 71.039062 130.488281 72.535156 C 130.53125 73.992188 129.453125 75.171875 127.988281 75.273438 C 119.054688 75.894531 110.257812 79.265625 102.628906 82.710938 Z M 130.667969 84.632812 C 132.460938 84.722656 134.257812 84.800781 136.046875 84.882812 L 137.953125 84.964844 C 142.753906 81.890625 148.035156 79.476562 153.148438 77.144531 C 154.371094 76.582031 155.574219 76.035156 156.753906 75.484375 C 161.511719 73.261719 166.5 71.09375 171.855469 68.921875 C 170.285156 68.890625 165.296875 68.808594 165.296875 68.808594 C 165.28125 68.96875 165.257812 69.125 165.214844 69.28125 C 164.90625 70.492188 163.867188 71.273438 162.570312 71.273438 L 162.351562 71.273438 C 151.257812 71.273438 140.5625 77.605469 131.128906 83.191406 L 128.847656 84.539062 C 129.453125 84.574219 130.0625 84.605469 130.667969 84.632812 Z M 214.496094 85.078125 C 216.28125 85.238281 218.214844 85.359375 220.128906 85.359375 C 222.761719 85.359375 225.046875 85.144531 227.074219 84.695312 C 226.804688 81.761719 226.742188 78.804688 226.769531 75.992188 C 225.859375 76.78125 224.921875 77.597656 223.875 78.308594 L 223.554688 78.519531 C 220.855469 80.34375 218.066406 82.226562 215.496094 84.273438 C 215.160156 84.542969 214.824219 84.808594 214.496094 85.078125 Z M 156.910156 85.699219 L 158.082031 85.152344 C 159.691406 84.40625 161.359375 83.628906 162.886719 82.785156 C 165.738281 81.203125 168.609375 79.535156 171.386719 77.921875 C 173.339844 76.785156 175.289062 75.648438 177.25 74.53125 C 171.496094 76.984375 165.765625 79.636719 160.097656 82.46875 C 158.167969 83.433594 156.214844 84.511719 154.277344 85.609375 C 155.15625 85.640625 156.03125 85.671875 156.910156 85.699219 Z M 176.507812 86.234375 C 179.347656 84.625 182.386719 83.210938 185.332031 81.84375 C 188.1875 80.515625 190.886719 79.265625 193.410156 77.851562 C 198.476562 75.015625 203.675781 72.109375 209.023438 69.367188 L 208.242188 69.363281 C 198.289062 71.542969 189.203125 77.140625 180.410156 82.554688 C 178.902344 83.484375 177.398438 84.410156 175.902344 85.3125 C 175.4375 85.589844 174.960938 85.886719 174.476562 86.1875 C 175.15625 86.203125 175.828125 86.21875 176.507812 86.234375 Z M 316.03125 73.652344 C 322.679688 79.65625 328.417969 85.472656 333.410156 91.277344 C 332.921875 89.035156 331.957031 86.5625 330.515625 83.878906 C 327.78125 78.777344 324.484375 74.015625 320.882812 69.527344 C 320.898438 69.671875 320.90625 69.820312 320.90625 69.964844 C 320.90625 71.941406 319.46875 73.433594 317.410156 73.589844 C 316.949219 73.625 316.492188 73.644531 316.03125 73.652344 Z M 248.960938 179.605469 C 250 186.152344 249.960938 192.722656 249.601562 199.734375 C 264.691406 178.6875 281.738281 158.796875 298.265625 139.523438 C 308.445312 127.652344 318.960938 115.386719 328.902344 102.976562 C 315.914062 86.398438 298.472656 72.398438 284.660156 62.003906 L 284.324219 61.753906 C 270.597656 51.429688 255.105469 39.777344 238.46875 34.988281 C 238.324219 40.238281 238.078125 45.527344 237.84375 50.660156 C 237.710938 53.554688 237.578125 56.453125 237.460938 59.34375 C 237.339844 62.378906 237.316406 65.535156 237.296875 68.589844 C 237.25 75.226562 237.199219 82.089844 236.148438 88.652344 C 235.839844 90.578125 233.976562 92.207031 232.078125 92.207031 C 232.046875 92.207031 231.925781 92.207031 231.898438 92.207031 C 230.484375 92.128906 228.949219 92.097656 227.0625 92.097656 C 226.632812 92.097656 226.210938 92.097656 225.789062 92.101562 C 225.753906 93.128906 225.441406 94.152344 224.871094 94.996094 C 224.046875 96.230469 222.777344 96.980469 221.28125 97.128906 C 221.164062 97.160156 221.042969 97.171875 220.921875 97.171875 C 204.929688 97.140625 189.328125 96.929688 174.554688 96.546875 C 173.734375 96.699219 173.054688 96.792969 172.421875 96.84375 C 172.382812 96.847656 172.214844 96.855469 172.175781 96.855469 C 171.632812 96.855469 171.097656 96.710938 170.601562 96.429688 C 165.390625 96.28125 160.183594 96.085938 154.980469 95.890625 C 153.597656 96.171875 152.257812 96.320312 150.988281 96.320312 C 150.519531 96.320312 150.054688 96.296875 149.59375 96.257812 C 149.042969 96.214844 148.535156 95.996094 148.117188 95.636719 C 144.007812 95.464844 139.894531 95.269531 135.78125 95.066406 C 134.65625 95.472656 133.703125 95.792969 132.796875 96.050781 C 132.542969 96.125 132.28125 96.160156 132.019531 96.160156 C 131.261719 96.160156 130.511719 95.839844 129.96875 95.277344 C 129.808594 95.113281 129.671875 94.929688 129.558594 94.742188 L 113.191406 93.84375 C 107.648438 96.636719 103.101562 97.941406 98.90625 97.941406 C 97.308594 97.929688 96.050781 96.976562 95.636719 95.5625 C 95.351562 94.578125 95.550781 93.582031 96.140625 92.816406 C 91.886719 92.53125 87.871094 92.234375 83.976562 91.914062 C 81.28125 92.914062 78.886719 93.464844 76.667969 93.585938 C 76.640625 93.589844 76.539062 93.589844 76.507812 93.589844 C 75.304688 93.589844 74.175781 92.804688 73.703125 91.625 C 73.613281 91.40625 73.550781 91.1875 73.519531 90.96875 C 62.433594 89.867188 52.554688 88.527344 43.457031 86.898438 C 43.632812 87.140625 43.78125 87.40625 43.902344 87.699219 C 44.355469 88.777344 44.335938 90.019531 43.875 91.03125 C 43.875 91.132812 43.871094 91.242188 43.871094 91.367188 C 43.859375 92.46875 43.851562 93.570312 43.875 94.667969 C 43.914062 96.535156 43.949219 98.402344 43.980469 100.265625 L 44.066406 104.921875 C 44.226562 112.714844 44.535156 120.636719 44.828125 128.304688 L 44.992188 132.5 C 45.21875 138.453125 45.496094 144.410156 45.769531 150.363281 C 46.226562 160.285156 46.699219 170.53125 46.941406 180.652344 C 51.605469 180.273438 56.269531 179.914062 60.929688 179.554688 C 73.164062 178.613281 85.8125 177.640625 98.226562 176.3125 C 101.671875 175.945312 105.117188 175.570312 108.5625 175.191406 C 123.789062 173.53125 139.535156 171.8125 155.101562 170.847656 C 167.097656 170.105469 179.09375 170.007812 189.246094 170.007812 C 192.945312 170.007812 196.652344 170.023438 200.355469 170.035156 C 204.050781 170.050781 207.746094 170.066406 211.4375 170.066406 L 213.746094 170.066406 C 217.570312 170.058594 221.410156 169.988281 225.257812 169.921875 C 229.257812 169.847656 233.390625 169.777344 237.460938 169.777344 C 240.507812 169.777344 243.238281 169.816406 245.800781 169.898438 C 247.398438 169.898438 248.757812 170.488281 249.703125 171.550781 C 250.71875 172.691406 251.210938 174.324219 251.023438 175.917969 C 250.933594 177.476562 250.167969 178.8125 248.960938 179.605469 Z M 242.585938 224.980469 C 241.054688 224.980469 239.679688 224.441406 238.710938 223.460938 C 237.761719 222.503906 237.265625 221.199219 237.285156 219.683594 C 237.328125 215.347656 237.664062 210.871094 237.988281 206.542969 C 238.632812 197.894531 239.300781 188.96875 237.722656 180.574219 C 235.109375 180.609375 232.503906 180.625 229.890625 180.625 C 221.941406 180.625 213.851562 180.480469 206.03125 180.335938 C 198.226562 180.195312 190.152344 180.050781 182.21875 180.050781 C 172.054688 180.050781 163.601562 180.285156 155.628906 180.792969 C 142.746094 181.609375 129.507812 183.097656 116.707031 184.539062 C 97.089844 186.75 76.804688 189.03125 56.902344 189.03125 C 50.707031 189.03125 44.695312 188.804688 39.042969 188.363281 C 37.292969 188.226562 35.933594 187 35.660156 185.308594 C 35.46875 184.128906 35.863281 183.007812 36.679688 182.257812 C 36.59375 171.589844 36.222656 160.75 35.867188 150.257812 C 35.570312 141.492188 35.261719 132.425781 35.117188 123.5 C 35.109375 123.152344 35.074219 122.421875 35.023438 121.398438 C 33.988281 100.460938 34.886719 89.695312 37.9375 86.492188 C 38.351562 86.058594 38.777344 85.78125 39.179688 85.609375 C 39.054688 85.503906 38.9375 85.394531 38.828125 85.28125 C 37.449219 85.859375 36.066406 86.433594 34.691406 86.984375 C 34.304688 87.132812 33.898438 87.214844 33.492188 87.214844 C 32.101562 87.214844 30.789062 86.28125 30.230469 84.886719 C 29.703125 83.570312 29.984375 82.171875 30.960938 81.234375 C 37.554688 74.917969 46.097656 70.957031 54.359375 67.125 C 59.847656 64.578125 65.523438 61.945312 70.433594 58.683594 C 73.148438 56.878906 76.671875 56.039062 81.527344 56.039062 C 84.050781 56.039062 86.59375 56.253906 89.050781 56.464844 C 91.003906 56.636719 92.847656 56.796875 94.515625 56.828125 C 99.90625 56.9375 105.296875 57.078125 110.6875 57.222656 C 113.773438 57.308594 116.859375 57.386719 119.941406 57.460938 C 149.34375 58.183594 188.136719 59.011719 227.496094 59.027344 C 227.527344 58.25 227.558594 57.476562 227.578125 56.710938 C 227.84375 47.183594 227.835938 37.640625 227.824219 28.410156 C 227.824219 27.660156 227.960938 26.9375 228.222656 26.273438 C 227.929688 26.160156 227.664062 25.988281 227.433594 25.757812 C 226.738281 25.0625 226.429688 24.164062 226.542969 23.160156 C 227.023438 18.878906 235.851562 12.496094 249.9375 3.589844 C 251.910156 2.339844 253.613281 1.261719 254.152344 0.839844 C 254.859375 0.289062 255.726562 0 256.660156 0 C 257.757812 0 258.910156 0.40625 259.8125 1.121094 C 263.023438 3.648438 266.246094 6.15625 269.46875 8.660156 C 287.222656 22.480469 305.582031 36.773438 321.304688 53.816406 C 329.644531 62.851562 340.023438 74.097656 343.511719 87.140625 C 345.457031 94.421875 344.304688 106.359375 337.167969 110.191406 C 327.355469 122.464844 316.957031 134.613281 306.902344 146.359375 C 286.386719 170.335938 265.167969 195.125 247.910156 222.160156 C 246.800781 223.898438 244.757812 224.980469 242.585938 224.980469 " fill-opacity="1" fill-rule="nonzero"/></g></svg>