<svg xmlns="http://www.w3.org/2000/svg" xmlns:xlink="http://www.w3.org/1999/xlink" width="500" zoomAndPan="magnify" viewBox="0 0 375 225" height="300" preserveAspectRatio="xMidYMid meet" version="1.0"><defs><clipPath id="id1"><path d="M 30 0 L 345.285156 0 L 345.285156 225 L 30 225 Z M 30 0 " clip-rule="nonzero"/></clipPath></defs><g clip-path="url(#id1)"><path fill="#d9d8d7" d="M 139.660156 23.105469 C 136.582031 23.667969 133.375 24.503906 130.109375 25.59375 C 124.445312 20.660156 118.09375 17.246094 111.863281 15.757812 C 114.03125 13.992188 116.199219 12.234375 118.367188 10.484375 C 121.878906 12.953125 125.578125 15.222656 129.15625 17.414062 C 130.371094 18.15625 131.582031 18.898438 132.789062 19.648438 C 133.359375 20.007812 135.226562 20.929688 138.230469 22.402344 C 138.679688 22.625 139.167969 22.863281 139.660156 23.105469 Z M 124.023438 27.917969 C 121.101562 29.148438 118.109375 30.59375 114.957031 32.28125 C 113.164062 31.625 111.359375 30.925781 109.550781 30.222656 C 106.097656 28.878906 102.554688 27.503906 98.984375 26.394531 C 101.511719 24.269531 104.132812 22.089844 106.816406 19.886719 C 113.210938 22.226562 118.761719 24.816406 124.023438 27.917969 Z M 106.878906 36.980469 C 105.960938 37.554688 105.019531 38.15625 104.046875 38.785156 C 100.167969 37.792969 96.417969 36.574219 93.542969 35.609375 C 92.734375 35.34375 91.929688 35.042969 91.125 34.753906 C 90.679688 34.589844 90.226562 34.425781 89.773438 34.261719 C 90.628906 33.519531 91.480469 32.777344 92.339844 32.039062 C 96.886719 34.421875 102.128906 35.871094 106.878906 36.980469 Z M 96.636719 43.816406 C 95.300781 44.765625 93.894531 45.777344 92.367188 46.894531 C 88.910156 46.121094 85.558594 45.261719 82.402344 44.328125 C 81.757812 44.140625 81.113281 43.933594 80.464844 43.726562 C 80.152344 43.628906 79.839844 43.527344 79.523438 43.429688 C 80.953125 42.113281 82.394531 40.808594 83.839844 39.511719 C 87.566406 41.597656 92.070312 42.863281 96.636719 43.816406 Z M 84.566406 52.722656 C 84.316406 52.625 84.058594 52.5625 83.792969 52.53125 C 80.925781 52.199219 77.851562 51.824219 74.773438 51.355469 C 73.675781 51.1875 72.59375 51.019531 71.484375 50.988281 C 72.179688 50.324219 72.878906 49.664062 73.578125 49 C 76.984375 50.894531 81.085938 51.757812 85.027344 52.375 C 84.871094 52.488281 84.71875 52.605469 84.566406 52.722656 Z M 66.867188 66.78125 C 66.527344 66.601562 66.152344 66.488281 65.753906 66.445312 L 64.984375 66.355469 C 63.207031 66.15625 61.367188 65.945312 59.507812 65.945312 C 58.945312 65.945312 58.378906 65.96875 57.8125 66.007812 C 57.484375 66.035156 57.183594 66.089844 56.898438 66.171875 C 59.835938 62.753906 62.925781 59.492188 66.039062 56.347656 C 66.222656 56.578125 66.445312 56.78125 66.703125 56.949219 C 68.769531 58.296875 71.277344 58.503906 73.492188 58.691406 C 74.046875 58.738281 74.59375 58.785156 75.125 58.847656 C 75.554688 58.898438 75.992188 58.949219 76.433594 59 C 75.972656 59.367188 75.507812 59.734375 75.046875 60.097656 C 74.527344 60.09375 74.011719 60.085938 73.488281 60.085938 C 71.761719 60.085938 69.722656 60.15625 67.734375 60.667969 C 66.71875 60.925781 66.007812 61.855469 66.007812 62.925781 C 66.007812 63.945312 66.675781 64.800781 67.660156 65.054688 C 67.988281 65.136719 68.324219 65.210938 68.667969 65.28125 C 68.066406 65.773438 67.472656 66.273438 66.867188 66.78125 Z M 321.710938 78.714844 C 318.703125 78.914062 315.476562 79.144531 311.890625 79.417969 C 304.429688 73.628906 293.550781 69.191406 281.9375 67.117188 C 283.097656 67.042969 284.289062 66.933594 285.527344 66.820312 C 287.90625 66.601562 290.363281 66.375 292.726562 66.375 C 296.449219 66.375 299.199219 66.9375 301.382812 68.148438 C 308.386719 72.019531 315.199219 75.5625 321.710938 78.714844 Z M 272.367188 82.710938 C 268.761719 83.003906 264.738281 83.320312 260.648438 83.613281 L 260.578125 83.578125 C 258.261719 82.308594 255.960938 80.992188 253.667969 79.671875 C 250.65625 77.945312 247.539062 76.160156 244.402344 74.507812 C 240.148438 72.265625 235.675781 70.082031 230.949219 68.429688 C 238.457031 68.277344 245.304688 68.128906 251.925781 67.964844 L 258.085938 67.816406 C 263.210938 67.691406 268.460938 67.5625 273.703125 67.414062 C 273.25 67.941406 272.964844 68.628906 272.914062 69.414062 C 272.78125 71.347656 274.109375 73 276 73.253906 C 283.191406 74.230469 290.460938 76.660156 297.601562 80.480469 C 297.648438 80.507812 297.695312 80.53125 297.742188 80.558594 C 294.875 80.800781 292.007812 81.042969 289.140625 81.289062 C 285.636719 79.660156 281.921875 78.214844 278.628906 76.941406 C 277.238281 76.398438 275.894531 75.875 274.625 75.363281 C 265.1875 71.558594 257.039062 69.863281 248.203125 69.863281 L 247.207031 69.867188 C 245.710938 69.890625 244.546875 71.039062 244.507812 72.535156 C 244.464844 73.992188 245.542969 75.171875 247.007812 75.273438 C 255.941406 75.894531 264.738281 79.265625 272.367188 82.710938 Z M 244.328125 84.632812 C 242.535156 84.722656 240.738281 84.800781 238.945312 84.882812 L 237.039062 84.964844 C 232.242188 81.890625 226.960938 79.476562 221.847656 77.144531 C 220.625 76.582031 219.417969 76.035156 218.242188 75.484375 C 213.484375 73.261719 208.496094 71.09375 203.136719 68.921875 C 204.710938 68.890625 209.695312 68.808594 209.695312 68.808594 C 209.714844 68.96875 209.738281 69.125 209.78125 69.28125 C 210.089844 70.492188 211.125 71.273438 212.425781 71.273438 L 212.644531 71.273438 C 223.738281 71.273438 234.433594 77.605469 243.867188 83.191406 L 246.148438 84.539062 C 245.542969 84.574219 244.933594 84.605469 244.328125 84.632812 Z M 160.5 85.078125 C 158.714844 85.238281 156.78125 85.359375 154.867188 85.359375 C 152.234375 85.359375 149.949219 85.144531 147.921875 84.695312 C 148.1875 81.761719 148.253906 78.804688 148.222656 75.992188 C 149.132812 76.78125 150.074219 77.597656 151.121094 78.308594 L 151.441406 78.519531 C 154.140625 80.34375 156.929688 82.226562 159.5 84.273438 C 159.835938 84.542969 160.167969 84.808594 160.5 85.078125 Z M 218.085938 85.699219 L 216.914062 85.152344 C 215.304688 84.40625 213.636719 83.628906 212.109375 82.785156 C 209.257812 81.203125 206.382812 79.535156 203.605469 77.921875 C 201.65625 76.785156 199.707031 75.648438 197.742188 74.53125 C 203.5 76.984375 209.230469 79.636719 214.898438 82.46875 C 216.824219 83.433594 218.78125 84.511719 220.714844 85.609375 C 219.839844 85.640625 218.964844 85.671875 218.085938 85.699219 Z M 198.488281 86.234375 C 195.644531 84.625 192.609375 83.210938 189.664062 81.84375 C 186.804688 80.515625 184.109375 79.265625 181.585938 77.851562 C 176.519531 75.015625 171.320312 72.109375 165.972656 69.367188 L 166.75 69.363281 C 176.707031 71.542969 185.792969 77.140625 194.582031 82.554688 C 196.09375 83.484375 197.597656 84.410156 199.09375 85.3125 C 199.558594 85.589844 200.035156 85.886719 200.515625 86.1875 C 199.839844 86.203125 199.164062 86.21875 198.488281 86.234375 Z M 58.964844 73.652344 C 52.3125 79.65625 46.578125 85.472656 41.585938 91.277344 C 42.074219 89.035156 43.039062 86.5625 44.480469 83.878906 C 47.210938 78.777344 50.511719 74.015625 54.113281 69.527344 C 54.09375 69.671875 54.089844 69.820312 54.089844 69.964844 C 54.089844 71.941406 55.527344 73.433594 57.585938 73.589844 C 58.042969 73.625 58.503906 73.644531 58.964844 73.652344 Z M 126.035156 179.605469 C 124.996094 186.152344 125.03125 192.722656 125.390625 199.734375 C 110.304688 178.6875 93.257812 158.796875 76.730469 139.523438 C 66.550781 127.652344 56.035156 115.386719 46.089844 102.976562 C 59.082031 86.398438 76.519531 72.398438 90.335938 62.003906 L 90.671875 61.753906 C 104.398438 51.429688 119.890625 39.777344 136.523438 34.988281 C 136.667969 40.238281 136.917969 45.527344 137.148438 50.660156 C 137.28125 53.554688 137.417969 56.453125 137.535156 59.34375 C 137.65625 62.378906 137.679688 65.535156 137.699219 68.589844 C 137.746094 75.226562 137.796875 82.089844 138.847656 88.652344 C 139.15625 90.578125 141.015625 92.207031 142.917969 92.207031 C 142.945312 92.207031 143.070312 92.207031 143.097656 92.207031 C 144.511719 92.128906 146.046875 92.097656 147.929688 92.097656 C 148.359375 92.097656 148.78125 92.097656 149.207031 92.101562 C 149.242188 93.128906 149.554688 94.152344 150.121094 94.996094 C 150.949219 96.230469 152.21875 96.980469 153.714844 97.128906 C 153.832031 97.160156 153.949219 97.171875 154.074219 97.171875 C 170.066406 97.140625 185.664062 96.929688 200.441406 96.546875 C 201.261719 96.699219 201.941406 96.792969 202.570312 96.84375 C 202.613281 96.847656 202.777344 96.855469 202.820312 96.855469 C 203.363281 96.855469 203.898438 96.710938 204.394531 96.429688 C 209.605469 96.28125 214.8125 96.085938 220.015625 95.890625 C 221.398438 96.171875 222.738281 96.320312 224.007812 96.320312 C 224.472656 96.320312 224.941406 96.296875 225.402344 96.257812 C 225.953125 96.214844 226.460938 95.996094 226.878906 95.636719 C 230.988281 95.464844 235.101562 95.269531 239.214844 95.066406 C 240.335938 95.472656 241.292969 95.792969 242.199219 96.050781 C 242.453125 96.125 242.710938 96.160156 242.972656 96.160156 C 243.734375 96.160156 244.480469 95.839844 245.027344 95.277344 C 245.1875 95.113281 245.320312 94.929688 245.4375 94.742188 L 261.804688 93.84375 C 267.347656 96.636719 271.894531 97.941406 276.089844 97.941406 C 277.6875 97.929688 278.945312 96.976562 279.359375 95.5625 C 279.644531 94.578125 279.445312 93.582031 278.851562 92.816406 C 283.109375 92.53125 287.125 92.234375 291.019531 91.914062 C 293.714844 92.914062 296.109375 93.464844 298.328125 93.585938 C 298.355469 93.589844 298.457031 93.589844 298.488281 93.589844 C 299.691406 93.589844 300.820312 92.804688 301.292969 91.625 C 301.378906 91.40625 301.445312 91.1875 301.476562 90.96875 C 312.5625 89.867188 322.441406 88.527344 331.539062 86.898438 C 331.363281 87.140625 331.210938 87.40625 331.089844 87.699219 C 330.640625 88.777344 330.65625 90.019531 331.117188 91.03125 C 331.121094 91.132812 331.121094 91.242188 331.125 91.367188 C 331.136719 92.46875 331.144531 93.570312 331.121094 94.667969 C 331.082031 96.535156 331.046875 98.402344 331.015625 100.265625 L 330.929688 104.921875 C 330.769531 112.714844 330.460938 120.636719 330.164062 128.304688 L 330.003906 132.5 C 329.773438 138.453125 329.5 144.410156 329.226562 150.363281 C 328.769531 160.285156 328.292969 170.53125 328.054688 180.652344 C 323.390625 180.273438 318.726562 179.914062 314.0625 179.554688 C 301.832031 178.613281 289.183594 177.640625 276.769531 176.3125 C 273.324219 175.945312 269.878906 175.570312 266.433594 175.191406 C 251.203125 173.53125 235.460938 171.8125 219.894531 170.847656 C 207.898438 170.105469 195.902344 170.007812 185.75 170.007812 C 182.046875 170.007812 178.34375 170.023438 174.640625 170.035156 C 170.945312 170.050781 167.25 170.066406 163.554688 170.066406 L 161.25 170.066406 C 157.425781 170.058594 153.585938 169.988281 149.738281 169.921875 C 145.738281 169.847656 141.605469 169.777344 137.535156 169.777344 C 134.488281 169.777344 131.757812 169.816406 129.195312 169.898438 C 127.597656 169.898438 126.234375 170.488281 125.289062 171.550781 C 124.277344 172.691406 123.785156 174.324219 123.972656 175.917969 C 124.0625 177.476562 124.824219 178.8125 126.035156 179.605469 Z M 132.410156 224.980469 C 133.9375 224.980469 135.316406 224.441406 136.285156 223.460938 C 137.234375 222.503906 137.726562 221.199219 137.710938 219.683594 C 137.664062 215.347656 137.332031 210.871094 137.007812 206.542969 C 136.359375 197.894531 135.695312 188.96875 137.273438 180.574219 C 139.882812 180.609375 142.492188 180.625 145.105469 180.625 C 153.054688 180.625 161.144531 180.480469 168.964844 180.335938 C 176.769531 180.195312 184.84375 180.050781 192.777344 180.050781 C 202.941406 180.050781 211.394531 180.285156 219.367188 180.792969 C 232.246094 181.609375 245.488281 183.097656 258.289062 184.539062 C 277.90625 186.75 298.191406 189.03125 318.089844 189.03125 C 324.289062 189.03125 330.300781 188.804688 335.953125 188.363281 C 337.703125 188.226562 339.0625 187 339.335938 185.308594 C 339.527344 184.128906 339.128906 183.007812 338.316406 182.257812 C 338.402344 171.589844 338.773438 160.75 339.128906 150.257812 C 339.425781 141.492188 339.734375 132.425781 339.878906 123.5 C 339.886719 123.152344 339.917969 122.421875 339.972656 121.398438 C 341.007812 100.460938 340.109375 89.695312 337.054688 86.492188 C 336.644531 86.058594 336.21875 85.78125 335.816406 85.609375 C 335.941406 85.503906 336.058594 85.394531 336.167969 85.28125 C 337.546875 85.859375 338.929688 86.433594 340.300781 86.984375 C 340.691406 87.132812 341.09375 87.214844 341.503906 87.214844 C 342.894531 87.214844 344.203125 86.28125 344.765625 84.886719 C 345.292969 83.570312 345.011719 82.171875 344.03125 81.234375 C 337.441406 74.917969 328.898438 70.957031 320.636719 67.125 C 315.148438 64.578125 309.472656 61.945312 304.5625 58.683594 C 301.847656 56.878906 298.320312 56.039062 293.46875 56.039062 C 290.945312 56.039062 288.402344 56.253906 285.941406 56.464844 C 283.988281 56.636719 282.144531 56.796875 280.480469 56.828125 C 275.089844 56.9375 269.699219 57.078125 264.308594 57.222656 C 261.222656 57.308594 258.136719 57.386719 255.050781 57.460938 C 225.652344 58.183594 186.859375 59.011719 147.5 59.027344 C 147.46875 58.25 147.4375 57.476562 147.414062 56.710938 C 147.148438 47.183594 147.160156 37.640625 147.171875 28.410156 C 147.171875 27.660156 147.035156 26.9375 146.773438 26.273438 C 147.066406 26.160156 147.332031 25.988281 147.5625 25.757812 C 148.257812 25.0625 148.566406 24.164062 148.453125 23.160156 C 147.972656 18.878906 139.144531 12.496094 125.058594 3.589844 C 123.085938 2.339844 121.378906 1.261719 120.839844 0.839844 C 120.136719 0.289062 119.269531 0 118.335938 0 C 117.238281 0 116.085938 0.40625 115.183594 1.121094 C 111.972656 3.648438 108.75 6.15625 105.527344 8.660156 C 87.769531 22.480469 69.414062 36.773438 53.6875 53.816406 C 45.347656 62.851562 34.972656 74.097656 31.484375 87.140625 C 29.535156 94.421875 30.6875 106.359375 37.824219 110.191406 C 47.640625 122.464844 58.039062 134.613281 68.09375 146.359375 C 88.609375 170.335938 109.828125 195.125 127.085938 222.160156 C 128.195312 223.898438 130.234375 224.980469 132.410156 224.980469 " fill-opacity="1" fill-rule="nonzero"/></g></svg>