<svg xmlns="http://www.w3.org/2000/svg" xmlns:xlink="http://www.w3.org/1999/xlink" width="500" zoomAndPan="magnify" viewBox="0 0 375 374.999991" height="500" preserveAspectRatio="xMidYMid meet" version="1.0"><defs><clipPath id="id1"><path d="M 0.214844 21.792969 L 374.792969 21.792969 L 374.792969 359.289062 L 0.214844 359.289062 Z M 0.214844 21.792969 " clip-rule="nonzero"/></clipPath></defs><g clip-path="url(#id1)"><path fill="#ffffff" d="M 360.28125 125.386719 C 350.65625 136.980469 339.085938 145.90625 324.351562 150.101562 C 318.09375 151.886719 311.667969 152.15625 305.214844 151.511719 C 298.6875 150.859375 292.1875 150.171875 285.671875 151.703125 C 281.550781 152.667969 270.996094 156.273438 267.183594 158 C 258.167969 162.085938 257.195312 163.261719 249.601562 170.363281 C 247.8125 172.035156 245.617188 176.773438 243.480469 177.953125 C 242.851562 178.300781 241.621094 178.261719 241.046875 177.859375 C 239.332031 176.65625 237.625 175.347656 236.242188 173.789062 C 227.367188 163.78125 213.726562 168.222656 207.910156 177.835938 C 207.386719 178.699219 207.078125 179.695312 206.660156 180.640625 C 200.011719 177.84375 193.371094 178.101562 186.582031 180.097656 C 179.238281 182.257812 174.335938 190.90625 174.257812 196.320312 C 174.234375 198.054688 174.675781 199.792969 174.921875 201.636719 C 173.964844 201.816406 172.785156 201.945312 171.65625 202.261719 C 163.738281 204.472656 159.71875 210.273438 157.847656 217.789062 C 156.085938 224.84375 158.5625 231.484375 164.6875 235.085938 C 165.324219 235.460938 165.921875 235.902344 166.527344 236.332031 C 169.480469 238.40625 169.875 240.753906 167.5 243.632812 C 165.109375 246.53125 162.488281 249.238281 160.046875 252.09375 C 158.164062 254.296875 156.246094 256.496094 154.632812 258.890625 C 152.421875 262.183594 151.894531 266.015625 152.199219 269.882812 C 152.511719 273.894531 153.476562 277.882812 153.5 281.882812 C 153.519531 285.171875 153.265625 288.785156 151.929688 291.703125 C 148.925781 298.257812 145.527344 304.695312 141.644531 310.769531 C 135.503906 320.375 125.964844 324.261719 115.050781 323.066406 C 106.460938 322.125 97.875 319.847656 90.449219 314.945312 C 85.613281 311.753906 82.117188 307.335938 79.660156 301.984375 C 76.875 295.921875 75.722656 289.609375 76.109375 283.058594 C 76.324219 279.453125 77.15625 275.882812 77.769531 272.304688 C 77.71875 272.105469 77.652344 271.90625 77.566406 271.714844 C 76.949219 270.328125 75.160156 269.59375 73.550781 269.585938 C 72.476562 270.109375 71.359375 270.53125 70.210938 270.867188 C 68.222656 271.75 65.9375 271.992188 63.820312 272.566406 C 61.203125 273.277344 58.5625 273.082031 55.859375 272.65625 C 52.160156 272.070312 48.371094 272.050781 44.65625 271.546875 C 36.972656 270.507812 29.179688 269.550781 22.707031 264.777344 C 19.339844 262.296875 16.039062 259.542969 13.332031 256.378906 C 6.566406 248.484375 8.140625 237.667969 13.042969 229.695312 C 18.707031 220.488281 26.898438 214.457031 37.132812 211.023438 C 43.964844 208.726562 50.957031 207.59375 58.125 207.535156 C 65.3125 207.480469 72.5 207.648438 79.6875 207.589844 C 87.574219 207.527344 94.917969 205.613281 101.878906 201.679688 C 109.398438 197.433594 115.757812 191.71875 122.390625 186.371094 C 134.378906 176.710938 146.09375 166.710938 157.882812 156.804688 C 160.0625 154.972656 162.164062 153.015625 164.113281 150.941406 C 173.867188 140.558594 183.53125 130.089844 193.292969 119.710938 C 197.632812 115.101562 202.214844 110.714844 206.511719 106.070312 C 210.5 101.765625 212.589844 96.648438 211.371094 90.710938 C 209.964844 83.867188 208.023438 77.128906 206.753906 70.257812 C 204.449219 57.789062 207.660156 46.8125 216.847656 37.929688 C 221.113281 33.800781 226.625 31.738281 232.46875 31.339844 C 239.390625 30.863281 246.375 30.796875 253.167969 32.75 C 267.449219 36.855469 276.109375 46.277344 279.660156 60.617188 C 281.140625 66.605469 281.019531 72.726562 281.453125 78.800781 C 281.480469 79.179688 281.1875 79.597656 281.253906 79.960938 C 281.433594 80.890625 281.480469 82.027344 282.046875 82.671875 C 282.808594 83.542969 283.890625 83.046875 284.847656 82.5 C 288.144531 80.609375 291.320312 78.375 294.828125 77.003906 C 306.691406 72.363281 318.957031 69.808594 331.792969 71.007812 C 333.035156 71.125 334.3125 71.261719 335.496094 71.636719 C 346.578125 75.175781 356.21875 80.714844 362.621094 90.914062 C 370.402344 103.304688 368.769531 115.167969 360.28125 125.386719 Z M 365.507812 148.796875 C 365.332031 148.800781 365.15625 148.804688 364.976562 148.808594 C 364.976562 146.769531 365.023438 144.734375 364.96875 142.695312 C 364.886719 139.628906 364.503906 136.546875 364.714844 133.503906 C 364.8125 132.074219 366.003906 130.71875 366.699219 129.332031 C 366.921875 129.441406 367.144531 129.550781 367.371094 129.65625 C 366.746094 136.035156 366.128906 142.414062 365.507812 148.796875 Z M 362.925781 154.863281 C 361.132812 157.40625 359.265625 159.894531 357.421875 162.398438 C 357.226562 162.296875 357.03125 162.195312 356.835938 162.09375 C 356.6875 157.667969 356.554688 153.242188 356.386719 148.820312 C 356.332031 147.457031 356.253906 146.085938 356.042969 144.738281 C 355.898438 143.847656 355.503906 142.992188 355.359375 142.546875 C 357.511719 140.132812 359.683594 137.691406 361.871094 135.234375 C 362.304688 141.421875 362.734375 147.410156 363.136719 153.398438 C 363.167969 153.886719 363.179688 154.503906 362.925781 154.863281 Z M 353.636719 165.707031 C 352.214844 167.3125 350.617188 168.765625 349.089844 170.277344 C 348.945312 170.191406 348.796875 170.105469 348.652344 170.015625 C 348.652344 167.640625 348.679688 165.261719 348.648438 162.886719 C 348.582031 157.933594 348.480469 152.984375 348.417969 148.03125 C 348.414062 147.683594 348.519531 147.203125 348.757812 147.011719 C 350.292969 145.757812 351.878906 144.570312 353.574219 143.265625 C 352.792969 150.167969 353.984375 156.804688 354.378906 163.476562 C 354.425781 164.214844 354.121094 165.160156 353.636719 165.707031 Z M 344.34375 173.273438 C 343.578125 173.582031 342.871094 174.039062 341.894531 174.558594 C 341.894531 173.683594 341.902344 173.136719 341.890625 172.589844 C 341.753906 166.097656 341.644531 159.609375 341.453125 153.117188 C 341.425781 152.128906 341.632812 151.535156 342.539062 151.09375 C 343.546875 150.601562 344.484375 149.964844 345.699219 149.25 C 345.621094 150.820312 345.464844 152.152344 345.511719 153.480469 C 345.707031 158.886719 345.84375 164.300781 346.269531 169.6875 C 346.414062 171.53125 346.019531 172.601562 344.34375 173.273438 Z M 337.929688 176.351562 C 336.679688 176.734375 335.460938 177.203125 334.085938 177.6875 C 332.953125 172.160156 334.4375 166.71875 334.304688 161.273438 C 334.257812 159.398438 334.296875 157.523438 334.296875 155.582031 C 335.566406 154.925781 336.871094 154.253906 338.40625 153.460938 C 338.332031 155.011719 338.152344 156.351562 338.226562 157.679688 C 338.515625 163.199219 338.828125 168.722656 339.261719 174.234375 C 339.359375 175.457031 339.03125 176.015625 337.929688 176.351562 Z M 328.351562 179.222656 C 326.605469 179.640625 325.644531 178.878906 325.699219 177.035156 C 325.8125 173.222656 326.007812 169.417969 326.109375 165.609375 C 326.171875 163.402344 326.121094 161.195312 326.121094 158.882812 C 327.738281 158.308594 329.417969 157.714844 330.847656 157.207031 C 331.113281 164.257812 331.375 171.222656 331.644531 178.414062 C 330.550781 178.683594 329.453125 178.960938 328.351562 179.222656 Z M 320.738281 180.820312 C 320.140625 180.730469 319.914062 181.167969 319.703125 178.28125 C 319.472656 172.664062 319.222656 167.046875 319.050781 161.425781 C 319.039062 161.066406 319.554688 160.484375 319.9375 160.363281 C 320.949219 160.050781 322.027344 159.933594 322.875 159.777344 C 323.140625 166.539062 323.40625 173.28125 323.679688 180.1875 C 322.773438 180.382812 321.746094 180.605469 320.738281 180.820312 Z M 312.011719 182.359375 C 311.789062 181.019531 311.199219 176.613281 311.128906 175.425781 C 310.84375 170.78125 310.601562 166.136719 310.34375 161.4375 C 312.261719 161.316406 314.003906 161.207031 315.492188 161.113281 C 316.144531 167.863281 316.792969 174.578125 317.453125 181.425781 C 315.855469 181.699219 314.023438 182.015625 312.011719 182.359375 Z M 298.882812 183.234375 C 299.183594 175.699219 299.476562 168.410156 299.777344 160.945312 C 302.003906 161.097656 304.46875 161.265625 306.964844 161.4375 C 307.40625 168.59375 307.875 176.902344 309.035156 182.644531 C 305.351562 183.515625 302.910156 183.054688 298.882812 183.234375 Z M 296.507812 182.851562 L 290 182.851562 L 290 160.734375 L 296.507812 160.734375 Z M 281.296875 183.53125 C 280.769531 176.664062 280.238281 169.777344 279.6875 162.566406 C 281.976562 161.992188 284.53125 161.351562 287.363281 160.640625 C 286.285156 168.214844 286.871094 175.492188 288.027344 182.699219 C 285.792969 182.972656 283.664062 183.238281 281.296875 183.53125 Z M 277.382812 185.058594 C 275.355469 186.039062 273.511719 187.40625 271.332031 188.773438 C 271.066406 185.488281 270.835938 182.382812 270.558594 179.277344 C 270.226562 175.480469 269.894531 171.679688 269.464844 167.890625 C 269.355469 166.925781 269.546875 166.453125 270.476562 166.109375 C 272.710938 165.285156 274.902344 164.351562 277.324219 163.375 C 277.277344 164.457031 277.15625 165.292969 277.21875 166.109375 C 277.648438 171.667969 278.070312 177.226562 278.609375 182.777344 C 278.726562 183.96875 278.558594 184.488281 277.382812 185.058594 Z M 268.121094 191.152344 C 265.535156 193.109375 262.882812 194.976562 259.882812 197.136719 C 259.546875 194.03125 259.199219 191.144531 258.929688 188.25 C 258.480469 183.484375 258.070312 178.714844 257.691406 173.945312 C 257.648438 173.464844 257.785156 172.699219 258.101562 172.507812 C 260.851562 170.835938 263.664062 169.265625 266.398438 167.703125 C 267.21875 175.222656 268.027344 182.410156 268.761719 189.605469 C 268.8125 190.105469 268.511719 190.855469 268.121094 191.152344 Z M 256.328125 200.441406 C 254.117188 202.21875 252.089844 204.226562 249.714844 206.386719 C 249.457031 204.304688 249.210938 202.5 249.019531 200.6875 C 248.425781 195.085938 247.816406 189.488281 247.328125 183.878906 C 247.257812 183.117188 247.664062 182.152344 248.167969 181.539062 C 250.003906 179.296875 251.976562 177.167969 253.894531 174.992188 C 254.050781 175.210938 254.203125 175.429688 254.359375 175.648438 C 255.171875 181.546875 255.972656 187.449219 256.808594 193.34375 C 256.960938 194.410156 257.082031 195.542969 257.546875 196.488281 C 258.433594 198.296875 257.738281 199.3125 256.328125 200.441406 Z M 246.515625 209.238281 C 246.050781 209.5625 245.699219 210.046875 245.234375 210.363281 C 244.722656 210.707031 243.925781 211.324219 243.625 211.15625 C 242.605469 210.59375 241.265625 210.339844 241.113281 208.695312 C 240.34375 200.417969 239.484375 192.144531 238.664062 183.871094 C 238.648438 183.710938 238.710938 183.539062 238.710938 183.539062 C 240.414062 183.898438 242.109375 184.25 244.023438 184.652344 C 244.339844 187.394531 244.59375 190.4375 245.046875 193.453125 C 245.722656 197.90625 246.472656 202.347656 247.332031 206.761719 C 247.554688 207.886719 247.441406 208.605469 246.515625 209.238281 Z M 238.09375 207.855469 C 235.988281 207.03125 233.863281 206.277344 231.824219 205.324219 C 231.425781 205.132812 231.265625 204.1875 231.207031 203.570312 C 230.367188 195.308594 229.574219 187.039062 228.75 178.773438 C 228.664062 177.949219 228.445312 177.140625 228.289062 176.324219 C 228.40625 176.222656 228.519531 176.117188 228.636719 176.015625 C 230.617188 177.417969 232.613281 178.792969 234.554688 180.246094 C 234.859375 180.472656 235.066406 181.023438 235.066406 181.429688 C 235.136719 190.238281 236.65625 198.878906 238.175781 207.511719 C 238.195312 207.613281 238.128906 207.722656 238.09375 207.855469 Z M 224.097656 204.441406 C 223.027344 204.445312 222.828125 203.753906 222.730469 202.871094 C 222.132812 197.433594 221.523438 192 220.878906 186.566406 C 220.519531 183.566406 220.132812 180.570312 219.664062 177.585938 C 219.515625 176.660156 219.699219 176.144531 220.625 175.992188 C 222.046875 175.753906 223.472656 175.542969 224.59375 175.367188 C 225.757812 185.253906 226.875 194.789062 228.011719 204.441406 C 226.8125 204.441406 225.453125 204.433594 224.097656 204.441406 Z M 218.550781 206.175781 C 217.410156 206.625 216.414062 207.449219 215.105469 208.261719 C 214.730469 205.808594 214.390625 203.441406 214.007812 201.078125 C 213.148438 195.808594 212.246094 190.542969 211.421875 185.265625 C 211.324219 184.640625 211.367188 183.804688 211.710938 183.332031 C 213.066406 181.484375 214.566406 179.742188 216.007812 177.960938 C 216.183594 178.089844 216.355469 178.214844 216.527344 178.34375 C 217.027344 183.3125 217.441406 188.289062 218.046875 193.246094 C 218.46875 196.6875 219.097656 200.109375 219.742188 203.519531 C 219.980469 204.785156 219.957031 205.617188 218.550781 206.175781 Z M 202.117188 218.054688 C 201.800781 217.988281 201.445312 217.347656 201.382812 216.933594 C 200.328125 209.652344 199.300781 202.371094 198.292969 195.085938 C 197.84375 191.824219 197.449219 188.554688 196.972656 184.84375 C 199.25 185.234375 201.167969 185.46875 203.03125 185.933594 C 203.527344 186.0625 204.1875 186.867188 204.207031 187.378906 C 204.527344 197.898438 206.621094 208.175781 208.324219 218.503906 C 208.363281 218.722656 208.386719 218.941406 208.414062 219.160156 C 206.28125 218.800781 204.183594 218.496094 202.117188 218.054688 Z M 192.132812 220.777344 C 191.34375 220.792969 190.921875 217.167969 190.820312 216.492188 C 189.535156 208.050781 188.253906 199.605469 186.972656 191.160156 C 186.917969 190.824219 186.835938 190.488281 186.761719 190.15625 C 185.957031 186.578125 185.949219 186.550781 189.609375 185.71875 C 191.03125 185.394531 192.492188 185.246094 194.140625 184.980469 C 194.410156 196.371094 196.375 207.277344 198.765625 217.980469 C 196.441406 218.960938 194.3125 219.859375 192.132812 220.777344 Z M 185.335938 204.847656 C 184.160156 203.253906 182.9375 201.691406 181.824219 200.058594 C 179.765625 197.042969 180.476562 192.289062 183.441406 189.625 C 184.183594 194.75 184.917969 199.777344 185.648438 204.808594 C 185.546875 204.820312 185.4375 204.835938 185.335938 204.847656 Z M 184.03125 243.386719 C 183.703125 243.449219 183.359375 243.449219 182.71875 243.503906 C 180.875 231.980469 179.03125 220.476562 177.191406 208.972656 C 179.714844 208.65625 179.871094 208.839844 180.035156 211.144531 C 180.757812 221.210938 182.375 231.148438 184.644531 240.980469 C 184.800781 241.640625 184.894531 242.308594 185.035156 243.070312 C 184.652344 243.195312 184.347656 243.324219 184.03125 243.386719 Z M 170.835938 231.300781 C 164.996094 227.097656 163.945312 220.441406 167.457031 214.546875 C 168.605469 220.222656 169.707031 225.707031 170.835938 231.300781 Z M 179.171875 245.15625 C 178.800781 245.386719 178.417969 245.601562 177.988281 245.847656 C 177.410156 243.53125 177.296875 241.097656 176.230469 239.203125 C 173.636719 234.609375 173.367188 229.550781 172.570312 224.574219 C 171.957031 220.746094 171.394531 216.910156 170.738281 213.089844 C 170.269531 210.363281 170.292969 210.226562 172.9375 209.328125 C 173.3125 209.199219 173.703125 209.113281 174.382812 208.933594 C 175.160156 221.042969 177.671875 232.664062 180.457031 244.316406 C 180.011719 244.609375 179.597656 244.890625 179.171875 245.15625 Z M 170.910156 276.734375 C 169.214844 278.144531 167.464844 279.480469 166.167969 280.5 C 165.871094 277.398438 165.519531 273.339844 165.09375 269.289062 C 164.65625 265.101562 164.203125 260.917969 163.636719 256.746094 C 163.472656 255.558594 163.648438 254.667969 164.472656 253.820312 C 165.53125 252.726562 166.53125 251.570312 167.789062 250.1875 C 168.105469 253.449219 168.3125 256.367188 168.6875 259.257812 C 169.390625 264.730469 170.191406 270.183594 170.941406 275.648438 C 170.992188 276.011719 171.09375 276.582031 170.910156 276.734375 Z M 163.191406 287.328125 C 162.703125 289.113281 162 290.839844 161.015625 292.5625 C 161.074219 291.832031 161.03125 291.074219 161.203125 290.371094 C 162.398438 285.460938 162.4375 280.558594 161.128906 275.675781 C 159.949219 271.273438 159.511719 266.835938 160.257812 262.316406 C 160.351562 261.753906 160.496094 261.199219 160.640625 260.648438 C 160.679688 260.503906 160.804688 260.378906 161.039062 260.019531 C 161.550781 265.429688 161.996094 270.59375 162.539062 275.75 C 162.820312 278.410156 163.371094 281.046875 163.613281 283.710938 C 163.722656 284.898438 163.507812 286.167969 163.191406 287.328125 Z M 159.597656 315.714844 C 159.5 318.273438 159.023438 320.816406 158.71875 323.363281 C 158.492188 323.347656 158.265625 323.332031 158.039062 323.320312 C 157.996094 322.726562 157.957031 322.136719 157.914062 321.542969 C 157.441406 315.179688 156.804688 308.820312 156.589844 302.445312 C 156.527344 300.574219 157.652344 298.664062 158.230469 296.773438 C 158.507812 296.796875 158.785156 296.824219 159.058594 296.851562 C 159.296875 298.46875 159.714844 300.085938 159.734375 301.707031 C 159.789062 306.375 159.773438 311.050781 159.597656 315.714844 Z M 155.855469 330.464844 C 154.085938 333.460938 152.269531 336.421875 150.445312 339.378906 C 150.324219 339.578125 150.003906 339.652344 149.457031 339.972656 C 149.296875 338.242188 149.148438 336.75 149.023438 335.257812 C 148.554688 329.691406 148.054688 324.128906 147.664062 318.554688 C 147.601562 317.675781 147.835938 316.652344 148.273438 315.882812 C 149.863281 313.078125 151.597656 310.351562 153.335938 307.496094 C 153.667969 310.863281 153.929688 314.183594 154.339844 317.484375 C 154.824219 321.386719 155.449219 325.269531 155.984375 329.167969 C 156.042969 329.59375 156.054688 330.125 155.855469 330.464844 Z M 140.328125 346.773438 C 140.113281 345.324219 139.84375 344.140625 139.78125 342.949219 C 139.5 337.605469 139.3125 332.257812 139.007812 326.917969 C 138.953125 325.929688 139.226562 325.40625 140.027344 324.84375 C 141.550781 323.769531 142.945312 322.519531 144.3125 321.40625 C 145.253906 328.285156 146.207031 335.230469 147.210938 342.554688 C 145.355469 343.691406 143 345.136719 140.328125 346.773438 Z M 129.839844 350.652344 C 129.59375 348.40625 129.347656 346.453125 129.167969 344.496094 C 128.789062 340.421875 128.484375 336.339844 128.070312 332.269531 C 127.960938 331.214844 128.097656 330.652344 129.234375 330.269531 C 131.21875 329.605469 133.121094 328.699219 135.082031 327.878906 C 135.855469 334.535156 136.628906 341.191406 137.453125 348.292969 C 135.269531 348.96875 132.683594 349.773438 129.839844 350.652344 Z M 117.992188 351.554688 C 117.695312 351.5625 117.15625 350.730469 117.097656 350.242188 C 116.601562 346.167969 116.191406 342.085938 115.761719 338.003906 C 115.566406 336.136719 115.394531 334.265625 115.203125 332.339844 C 118.277344 332.167969 121.316406 331.996094 124.207031 331.835938 C 125.078125 338.1875 125.9375 344.492188 126.835938 351.085938 C 123.980469 351.257812 120.988281 351.476562 117.992188 351.554688 Z M 106.4375 350.613281 C 106.066406 350.535156 105.652344 349.722656 105.589844 349.210938 C 104.949219 343.960938 104.375 338.699219 103.792969 333.441406 C 103.679688 332.433594 103.601562 331.421875 103.488281 330.207031 C 105.902344 330.671875 108.214844 331.082031 110.503906 331.59375 C 110.808594 331.660156 111.167969 332.195312 111.21875 332.554688 C 112.117188 338.851562 112.972656 345.152344 113.890625 351.859375 C 111.441406 351.46875 108.921875 351.121094 106.4375 350.613281 Z M 102.457031 350.167969 C 98.839844 348.730469 95.214844 347.320312 91.625 345.828125 C 91.261719 345.679688 90.914062 345.066406 90.871094 344.636719 C 90.253906 338.136719 89.6875 331.628906 89.121094 325.238281 C 92.339844 326.417969 95.738281 327.648438 99.113281 328.9375 C 99.445312 329.066406 99.820312 329.527344 99.875 329.878906 C 100.855469 336.40625 101.789062 342.9375 102.726562 349.46875 C 102.738281 349.5625 102.652344 349.671875 102.457031 350.167969 Z M 82.019531 336.554688 C 81.140625 330.484375 79.699219 324.503906 78.503906 318.480469 C 78.4375 318.164062 78.457031 317.832031 78.441406 317.550781 C 80.453125 319.160156 82.453125 320.734375 84.410156 322.355469 C 84.679688 322.578125 84.863281 323.019531 84.910156 323.382812 C 85.820312 330.144531 86.699219 336.914062 87.578125 343.632812 C 85.019531 342.011719 82.566406 340.332031 82.019531 336.554688 Z M 67.78125 287.113281 C 67.566406 291.082031 67.785156 295.085938 67.945312 299.066406 C 68.050781 301.632812 68.15625 301.625 65.503906 301.925781 C 64.8125 294.425781 65.746094 286.910156 64.152344 279.449219 C 64.25 279.429688 64.347656 279.414062 64.445312 279.394531 C 65.90625 279.117188 67.355469 278.773438 68.773438 278.324219 C 68.363281 281.25 67.9375 284.171875 67.78125 287.113281 Z M 54.457031 301.53125 C 54.457031 300.148438 54.492188 298.75 54.449219 297.351562 C 54.296875 292.34375 54.097656 287.339844 53.96875 282.332031 C 53.964844 282.097656 54.023438 281.789062 54.128906 281.527344 C 54.359375 281.503906 54.585938 281.484375 54.808594 281.464844 C 56.777344 281.289062 58.734375 280.9375 60.652344 280.460938 C 60.351562 287.75 61.710938 294.808594 62.226562 302.085938 C 59.664062 301.902344 57.15625 301.722656 54.457031 301.53125 Z M 46.875 301.445312 C 47.007812 301.292969 47.136719 301.140625 47.269531 300.988281 C 46.828125 300.363281 46.339844 299.757812 45.957031 299.097656 C 45.71875 298.679688 45.527344 298.179688 45.507812 297.707031 C 45.363281 293.785156 45.289062 289.859375 45.144531 285.933594 C 45.089844 284.519531 44.910156 283.109375 44.777344 281.59375 L 49.816406 281.59375 C 50.226562 288.285156 50.632812 294.855469 51.054688 301.707031 C 49.742188 301.625 48.308594 301.535156 46.875 301.445312 Z M 37.988281 300 C 34.652344 299.417969 32.878906 297.9375 32.894531 294.105469 C 32.914062 289.285156 32.160156 284.464844 31.710938 279.335938 C 34.757812 279.863281 37.644531 280.363281 40.636719 280.878906 C 40.175781 287.746094 40.644531 294.398438 43.40625 301.195312 C 41.414062 300.753906 39.714844 300.304688 37.988281 300 Z M 29.902344 297.039062 C 27.363281 295.800781 24.589844 295.09375 22.730469 292.777344 C 22.46875 292.453125 22.242188 292.015625 22.199219 291.609375 C 21.675781 286.351562 21.183594 281.09375 20.6875 275.832031 C 20.679688 275.726562 20.730469 275.617188 20.773438 275.40625 C 22.980469 276.292969 25.09375 277.101562 27.164062 278.003906 C 27.523438 278.160156 27.910156 278.683594 27.960938 279.074219 C 28.6875 284.878906 29.363281 290.6875 30.042969 296.496094 C 30.054688 296.597656 29.988281 296.710938 29.902344 297.039062 Z M 13.789062 283.878906 C 12.785156 278.921875 11.746094 273.972656 10.726562 269.019531 C 10.667969 268.746094 10.648438 268.46875 10.566406 267.871094 C 12.265625 269.25 13.738281 270.402344 15.152344 271.625 C 15.453125 271.878906 15.667969 272.371094 15.707031 272.777344 C 16.25 278.21875 16.753906 283.660156 17.261719 289.042969 C 15.320312 288.277344 14.398438 286.890625 13.789062 283.878906 Z M 372.285156 95.144531 C 366.019531 79.046875 353.53125 69.957031 337.636719 65.152344 C 329.886719 62.808594 321.808594 63.421875 313.878906 64.886719 C 304.015625 66.710938 294.484375 69.472656 285.535156 75.25 C 286.992188 68.824219 286.96875 62.890625 285.585938 56.964844 C 281.929688 41.300781 273.027344 30.144531 257.707031 24.519531 C 250.046875 21.707031 242.015625 21.410156 234.074219 22.125 C 222.230469 23.191406 212.683594 28.539062 205.980469 38.746094 C 199.054688 49.300781 196.324219 60.664062 198.605469 73.082031 C 199.644531 78.71875 201.363281 84.238281 202.410156 89.878906 C 203.015625 93.144531 203.394531 96.632812 201.976562 99.820312 C 198.765625 107.039062 194.292969 113.5 188.460938 118.777344 C 180.894531 125.621094 172.871094 131.960938 165.148438 138.640625 C 156.613281 146.027344 148.21875 153.574219 139.726562 161.011719 C 131.058594 168.597656 122.316406 176.105469 113.667969 183.710938 C 109.730469 187.171875 105.933594 190.789062 102.070312 194.328125 C 101.738281 194.632812 101.410156 195.035156 101.007812 195.160156 C 96.878906 196.453125 92.8125 198.203125 88.582031 198.835938 C 83.03125 199.664062 77.347656 199.644531 71.714844 199.917969 C 65.964844 200.199219 60.175781 200.074219 54.460938 200.683594 C 37.664062 202.476562 22.957031 208.757812 11.625 221.738281 C 6.785156 227.285156 2.671875 233.238281 1.257812 240.710938 C -0.441406 249.683594 0.21875 258.65625 1.207031 267.613281 C 1.710938 272.183594 2.734375 276.695312 3.425781 281.246094 C 4.261719 286.773438 6.273438 291.644531 10.660156 295.355469 C 16.234375 300.078125 22.285156 303.914062 29.300781 306.179688 C 34.566406 307.878906 39.800781 309.625 45.382812 309.847656 C 51.535156 310.089844 57.710938 310.464844 63.609375 308.035156 C 65.125 307.410156 66.699219 306.914062 68.382812 306.3125 C 68.511719 307.113281 68.628906 307.78125 68.722656 308.445312 C 70.019531 317.679688 71.183594 326.933594 72.679688 336.132812 C 73.296875 339.949219 74.535156 343.734375 77.671875 346.386719 C 87.601562 354.78125 99.335938 358.5625 112.113281 359.234375 C 116.585938 359.46875 121.105469 358.933594 125.597656 358.636719 C 134.03125 358.078125 141.582031 354.933594 148.273438 349.804688 C 155.792969 344.039062 156.644531 342.09375 159.605469 337.488281 C 160.230469 336.519531 164.398438 327.972656 164.789062 326.175781 C 165.171875 324.425781 165.628906 322.695312 166.003906 320.945312 C 166.757812 317.425781 167.269531 313.863281 167.152344 310.257812 C 167.078125 307.996094 166.046875 298.640625 166.574219 296.09375 C 167.6875 290.679688 170.722656 286.601562 175.214844 283.640625 C 179.582031 280.761719 180.980469 276.378906 180.996094 271.707031 C 181.015625 266.4375 180.214844 261.160156 179.652344 255.898438 C 179.328125 252.878906 179.492188 252.347656 182.253906 251.03125 C 182.914062 250.714844 183.636719 250.515625 184.347656 250.324219 C 185.285156 250.070312 186.25 249.929688 187.175781 249.644531 C 191.839844 248.210938 193.429688 245.769531 192.730469 241.136719 C 192.476562 239.449219 192.183594 237.765625 191.882812 236.082031 C 190.980469 231.121094 193.164062 227.757812 198.117188 226.632812 C 201.070312 225.960938 203.871094 226.542969 206.5625 227.878906 C 207.933594 228.558594 209.335938 229.25 210.800781 229.640625 C 213.25 230.292969 215.527344 228.9375 216.5625 226.660156 C 217.96875 223.554688 217.011719 220.488281 216.535156 217.429688 C 216.367188 216.355469 216.574219 215.75 217.46875 215.164062 C 221.613281 212.449219 225.71875 212.503906 230.011719 214.933594 C 233.070312 216.667969 236.214844 218.3125 239.476562 219.613281 C 242.824219 220.945312 246.085938 220.429688 248.835938 217.832031 C 249.703125 217.011719 250.675781 216.296875 251.539062 215.464844 C 259.308594 207.949219 267.585938 201.074219 276.824219 195.410156 C 277.503906 194.996094 284.222656 191.566406 286.769531 191.328125 C 292 190.835938 295.078125 190.949219 301.878906 190.199219 C 320.242188 190.542969 331.46875 187.0625 339.71875 182.972656 C 346.472656 180.777344 350.425781 178.808594 354.964844 174.800781 C 358.675781 171.523438 362.296875 168.078125 365.492188 164.3125 C 369.609375 159.460938 372.976562 154.070312 373.507812 147.445312 C 373.921875 142.277344 374.449219 137.109375 374.589844 131.933594 C 374.796875 124.175781 374.578125 116.410156 374.785156 108.65625 C 374.90625 103.929688 373.976562 99.488281 372.285156 95.144531 " fill-opacity="1" fill-rule="nonzero"/></g><path fill="#ffffff" d="M 53.046875 230.582031 C 52.863281 230.992188 51.667969 231.421875 51.375 231.210938 C 50.863281 230.847656 50.519531 230.023438 50.425781 229.34375 C 50.308594 228.503906 50.515625 227.617188 50.582031 226.746094 C 50.769531 226.683594 50.957031 226.625 51.144531 226.5625 C 51.816406 227.121094 52.710938 227.5625 53.085938 228.277344 C 53.40625 228.894531 53.347656 229.917969 53.046875 230.582031 Z M 55.65625 224.222656 C 53.492188 223.253906 51 222.835938 48.613281 222.628906 C 47.761719 222.554688 46.773438 223.789062 45.886719 224.476562 C 43.71875 226.160156 42.648438 228.390625 42.703125 231.527344 C 42.71875 235.035156 45.386719 238.011719 49.234375 238.4375 C 53.5625 238.917969 57.65625 236.378906 58.570312 232.644531 C 59.410156 229.210938 58.351562 225.4375 55.65625 224.222656 " fill-opacity="1" fill-rule="nonzero"/><path fill="#ffffff" d="M 107.125 242.605469 C 105.191406 241.460938 104.605469 239.703125 105.304688 237.136719 C 107.746094 238.257812 108.328125 240.007812 107.125 242.605469 Z M 105.375 233.558594 C 102.496094 233.445312 98.359375 236.796875 98.414062 241.027344 C 98.464844 245.277344 102.253906 249.214844 106.617188 249.3125 C 110.410156 249.394531 113.214844 245.878906 113.316406 240.917969 C 113.679688 235.941406 109.03125 233.707031 105.375 233.558594 " fill-opacity="1" fill-rule="nonzero"/><path fill="#ffffff" d="M 177.59375 159.808594 C 177.722656 158.5 177.808594 157.574219 177.898438 156.648438 C 178.082031 156.667969 178.269531 156.691406 178.453125 156.710938 C 179.132812 157.734375 179.40625 158.703125 177.59375 159.808594 Z M 178.695312 151.441406 C 174.300781 151.546875 170.710938 155.019531 170.664062 159.214844 C 170.621094 163.136719 173.761719 166.359375 177.640625 166.375 C 181.492188 166.394531 184.960938 162.675781 185.070312 158.410156 C 185.152344 155.226562 181.628906 151.371094 178.695312 151.441406 " fill-opacity="1" fill-rule="nonzero"/><path fill="#ffffff" d="M 327.320312 129.007812 C 326.882812 128.441406 326.300781 127.921875 326.085938 127.285156 C 326 127.03125 326.84375 126.113281 327.070312 126.175781 C 327.664062 126.34375 328.152344 126.886719 328.9375 127.472656 C 328.214844 128.15625 327.765625 128.582031 327.320312 129.007812 Z M 330.578125 122.417969 C 330.046875 122.144531 329.503906 121.789062 329.125 121.339844 C 328.050781 120.058594 326.671875 119.714844 325.136719 119.984375 C 321.714844 120.582031 318.878906 124.417969 319.207031 127.910156 C 319.550781 131.578125 322.457031 134.050781 326.375 134.011719 C 329.398438 133.980469 332 131.804688 333.105469 128.382812 C 333.949219 125.773438 333.039062 123.671875 330.578125 122.417969 " fill-opacity="1" fill-rule="nonzero"/><path fill="#ffffff" d="M 294.292969 110.945312 C 293.964844 110.171875 292.589844 109.621094 291.597656 109.421875 C 290.734375 109.242188 289.675781 109.535156 288.828125 109.90625 C 286.898438 110.742188 285.6875 112.339844 285.003906 114.285156 C 284.082031 116.902344 284.628906 119.332031 286.667969 121.152344 C 288.820312 123.070312 291.429688 123.878906 294.261719 122.699219 C 296.746094 121.667969 297.667969 119.511719 297.933594 117.023438 C 298.269531 114.085938 295.238281 113.15625 294.292969 110.945312 " fill-opacity="1" fill-rule="nonzero"/><path fill="#ffffff" d="M 234.0625 111.113281 C 233.441406 110.929688 232.429688 110.90625 232.273438 110.53125 C 231.90625 109.644531 231.945312 108.585938 231.820312 107.59375 C 232.070312 107.535156 232.324219 107.46875 232.578125 107.40625 C 233.207031 108.460938 233.835938 109.519531 234.460938 110.574219 C 234.328125 110.753906 234.195312 110.933594 234.0625 111.113281 Z M 236.585938 105.632812 C 235.746094 104.953125 234.886719 104.285156 233.984375 103.691406 C 233.492188 103.367188 232.890625 103.207031 232.753906 103.148438 C 229.5 103.152344 227.144531 105.195312 226.128906 108.46875 C 225.207031 111.449219 226.660156 114.742188 229.488281 116.074219 C 232.667969 117.570312 236.175781 116.488281 238.113281 113.40625 C 239.949219 110.492188 239.464844 107.972656 236.585938 105.632812 " fill-opacity="1" fill-rule="nonzero"/><path fill="#ffffff" d="M 263.644531 77.71875 C 262.875 76.527344 262.125 75.328125 261.328125 74.152344 C 261.023438 73.699219 260.527344 73.359375 260.285156 72.886719 C 259.441406 71.238281 257.894531 70.429688 256.082031 70.78125 C 252.964844 71.382812 250.574219 74.828125 250.90625 78.230469 C 251.21875 81.441406 254.195312 84.058594 257.316406 83.855469 C 260.667969 83.636719 263.289062 81.039062 263.644531 77.71875 " fill-opacity="1" fill-rule="nonzero"/><path fill="#ffffff" d="M 137.03125 254.546875 C 134.691406 254.488281 132.246094 257.296875 132.222656 260.066406 C 132.195312 263.140625 134.777344 265.789062 137.8125 265.804688 C 140.851562 265.820312 143.894531 262.972656 143.957031 260.046875 C 144.023438 257.210938 140.78125 254.636719 137.03125 254.546875 " fill-opacity="1" fill-rule="nonzero"/><path fill="#ffffff" d="M 103.824219 283.816406 C 103.367188 284.027344 102.921875 284.316406 102.546875 284.652344 C 100.664062 286.332031 100.234375 289.28125 101.484375 291.710938 C 102.6875 294.054688 105.269531 295.363281 107.5625 294.789062 C 110.214844 294.125 111.894531 291.992188 111.964844 289.203125 C 112.054688 285.703125 107.007812 282.355469 103.824219 283.816406 " fill-opacity="1" fill-rule="nonzero"/><path fill="#ffffff" d="M 267.015625 136.195312 C 265.515625 135.191406 264.300781 133.179688 261.953125 134.308594 C 260.273438 135.121094 259.070312 137.464844 259.441406 139.324219 C 259.832031 141.277344 261.523438 142.5625 263.695312 142.554688 C 265.777344 142.546875 267.519531 141.488281 268.0625 139.867188 C 268.550781 138.414062 268.242188 137.019531 267.015625 136.195312 " fill-opacity="1" fill-rule="nonzero"/><path fill="#ffffff" d="M 136.558594 206.195312 C 138.710938 206.328125 140.492188 204.589844 140.597656 202.257812 C 140.675781 200.453125 139.222656 198.769531 137.460938 198.628906 C 135.042969 198.4375 132.683594 200.109375 132.546875 202.117188 C 132.410156 204.101562 134.335938 206.058594 136.558594 206.195312 " fill-opacity="1" fill-rule="nonzero"/><path fill="#ffffff" d="M 215.300781 132.941406 C 214.273438 132.203125 213.375 132.433594 212.558594 133.261719 C 211.261719 134.589844 211.125 137.183594 212.300781 138.625 C 213.359375 139.925781 214.75 140.28125 216.285156 139.695312 C 217.667969 139.167969 218.488281 138.125 218.523438 136.175781 C 218.3125 135.792969 218.0625 134.996094 217.539062 134.46875 C 216.914062 133.839844 216.035156 133.472656 215.300781 132.941406 " fill-opacity="1" fill-rule="nonzero"/><path fill="#ffffff" d="M 233.699219 63.464844 C 235.503906 63.449219 236.84375 62.226562 236.855469 60.589844 C 236.871094 58.914062 234.382812 56.367188 232.765625 56.402344 C 231.328125 56.429688 229.964844 58.253906 229.96875 60.132812 C 229.976562 62.082031 231.546875 63.484375 233.699219 63.464844 " fill-opacity="1" fill-rule="nonzero"/><path fill="#ffffff" d="M 323.816406 98.078125 C 324.585938 97.445312 325.609375 96.953125 326.0625 96.144531 C 326.625 95.140625 325.824219 94.375 324.898438 93.835938 C 324.632812 93.679688 324.425781 93.265625 324.363281 92.945312 C 324.097656 91.511719 323.15625 91.601562 322.179688 91.984375 C 320.875 92.496094 320.011719 94.183594 320.300781 95.480469 C 320.609375 96.878906 321.839844 97.734375 323.816406 98.078125 " fill-opacity="1" fill-rule="nonzero"/></svg>