<svg xmlns="http://www.w3.org/2000/svg" xmlns:xlink="http://www.w3.org/1999/xlink" width="500" zoomAndPan="magnify" viewBox="0 0 375 374.999991" height="500" preserveAspectRatio="xMidYMid meet" version="1.0"><defs><clipPath id="id1"><path d="M 0 37.5 L 375 37.5 L 375 337.5 L 0 337.5 Z M 0 37.5 " clip-rule="nonzero"/></clipPath></defs><g clip-path="url(#id1)"><path fill="#d9d8d7" d="M 39.085938 270.546875 C 38.464844 263.140625 39.148438 255.789062 38.832031 248.320312 C 38.417969 238.941406 37.285156 229.644531 36.386719 220.277344 C 34.644531 202.222656 37.40625 183.863281 35.21875 165.917969 C 33.757812 167.960938 32.320312 169.992188 30.863281 172.0625 C 30.863281 172.183594 30.886719 172.292969 30.886719 172.4375 C 30.179688 188.605469 33.5 204.582031 33.867188 220.75 C 34.109375 230.132812 34.023438 239.535156 34.449219 248.929688 C 34.765625 255.621094 33.734375 262.664062 35.328125 269.234375 C 35.4375 269.28125 35.546875 269.320312 35.65625 269.367188 C 35.742188 269.40625 35.777344 269.488281 35.835938 269.539062 C 36.167969 269.539062 36.480469 269.574219 36.835938 269.707031 C 37.601562 269.964844 38.332031 270.269531 39.085938 270.546875 Z M 73.394531 80.800781 C 71.632812 80.09375 70 79.058594 68.625 77.769531 C 57.480469 93.453125 48.015625 109.902344 38.136719 126.4375 C 28.28125 142.898438 16.492188 158.421875 7.417969 175.296875 C 8.597656 176.976562 9.691406 178.691406 10.785156 180.40625 C 15.871094 172.984375 20.046875 164.992188 25.433594 157.714844 C 31.480469 149.527344 37.347656 141.207031 42.871094 132.652344 C 53.746094 115.777344 63.796875 98.429688 73.394531 80.800781 Z M 67.617188 272.664062 C 68.503906 273.101562 69.378906 273.527344 70.269531 273.953125 C 70.195312 236.410156 68.335938 201.089844 68.152344 164.847656 C 67.359375 165.273438 66.605469 165.722656 65.863281 166.222656 C 66.933594 174.761719 65.777344 183.21875 65.839844 191.808594 C 65.902344 201.066406 66.265625 210.335938 66.570312 219.59375 C 67.082031 237.164062 67.664062 254.695312 67.714844 272.289062 C 67.714844 272.433594 67.664062 272.542969 67.617188 272.664062 Z M 80.160156 87.078125 C 80.378906 86.796875 80.585938 86.578125 80.828125 86.382812 C 79.710938 84.863281 78.503906 83.378906 77.128906 82.054688 C 66.800781 101.03125 56.070312 119.84375 44.085938 137.824219 C 38.464844 146.269531 32.710938 154.625 26.53125 162.667969 C 21.738281 168.859375 18.367188 175.882812 14.070312 182.339844 C 14.777344 182.207031 15.472656 182.039062 16.117188 181.722656 C 16.117188 181.722656 16.117188 181.722656 16.128906 181.722656 C 27.722656 165.320312 39.558594 149.042969 50.875 132.445312 C 61.011719 117.578125 69.722656 101.652344 80.160156 87.078125 Z M 79.6875 75.519531 C 87.875 74.789062 80.304688 56.734375 73.164062 64.144531 C 71.144531 66.480469 69.941406 69.789062 72.300781 72.367188 C 74.175781 74.386719 76.875 75.773438 79.6875 75.519531 Z M 129.070312 158.726562 C 128.839844 158.335938 128.582031 157.972656 128.339844 157.582031 C 119.382812 143.261719 111.597656 128.273438 101.742188 114.511719 C 96.816406 107.640625 91.707031 100.949219 86.425781 94.351562 C 85.792969 93.5625 85.210938 92.746094 84.625 91.90625 C 80.914062 97.164062 77.386719 102.554688 73.957031 108.027344 C 85.9375 108.066406 90.71875 108.757812 90.71875 109.621094 C 90.71875 110.730469 85.867188 110.839844 85.292969 110.886719 C 79.210938 111.421875 70.949219 108.113281 67.46875 114.511719 C 65.777344 117.652344 63.964844 121.21875 63.222656 124.695312 C 66.398438 124.878906 69.722656 125.65625 72.945312 126.109375 C 76.679688 126.667969 80.074219 127.140625 83.105469 127.59375 C 89.175781 128.636719 93.894531 129.503906 97.472656 130.355469 C 104.578125 132.117188 107.21875 133.089844 107.109375 133.515625 C 107 133.941406 104.214844 133.773438 97.035156 132.59375 C 93.457031 132.03125 88.714844 131.414062 82.679688 130.535156 C 79.648438 130.148438 76.277344 129.722656 72.554688 129.257812 C 69.160156 128.882812 65.449219 128.445312 61.4375 128.019531 C 59.050781 131.730469 56.628906 135.425781 54.113281 139.054688 C 53.878906 139.394531 53.636719 139.722656 53.40625 140.0625 C 55.679688 140.378906 57.75 140.671875 59.550781 140.925781 C 62.980469 141.5 65.667969 141.949219 67.6875 142.484375 C 71.703125 143.652344 73.140625 144.359375 73.007812 144.785156 C 72.898438 145.222656 71.265625 145.28125 67.277344 144.746094 C 65.230469 144.527344 62.578125 144.25 59.183594 143.882812 C 56.921875 143.675781 54.304688 143.371094 51.351562 143.007812 C 48.015625 147.777344 44.671875 152.546875 41.3125 157.277344 C 43.355469 157.546875 44.753906 158.03125 45.765625 158.335938 C 47.3125 158.871094 47.871094 159.371094 47.785156 159.820312 C 47.710938 160.269531 47.054688 160.550781 45.402344 160.5625 C 44.027344 160.660156 41.921875 160.332031 39.171875 160.332031 C 38.941406 160.671875 38.695312 161.011719 38.441406 161.367188 C 39.039062 164.992188 39.367188 168.640625 39.535156 172.316406 C 42.054688 172.828125 43.613281 173.53125 44.707031 174.007812 C 46.082031 174.675781 46.554688 175.210938 46.445312 175.660156 C 46.347656 176.085938 45.679688 176.332031 44.109375 176.222656 C 43.050781 176.171875 41.582031 175.855469 39.671875 175.527344 C 39.902344 184.554688 39.316406 193.621094 39.304688 202.648438 C 44.109375 204.753906 47.457031 205.808594 49.609375 206.601562 C 52.03125 207.378906 52.957031 207.953125 52.894531 208.414062 C 52.820312 208.839844 51.800781 209.046875 49.085938 208.839844 C 46.945312 208.558594 43.660156 207.855469 39.316406 206.125 C 39.390625 209.507812 39.535156 212.878906 39.863281 216.261719 C 40.460938 222.5625 41.25 228.867188 41.859375 235.179688 C 47.226562 236.191406 50.816406 237.503906 52.871094 238.746094 C 53.40625 239.085938 53.855469 239.414062 54.222656 239.667969 C 54.5625 239.984375 54.828125 240.253906 55 240.484375 C 55.363281 240.933594 55.449219 241.238281 55.292969 241.410156 C 54.695312 242.199219 52.25 240.351562 42.140625 238.488281 C 42.285156 240.425781 42.417969 242.359375 42.503906 244.28125 C 42.785156 250.535156 42.417969 256.875 42.503906 263.140625 C 47.25 264.34375 51.835938 265.914062 56.324219 267.6875 C 55.570312 267.386719 56.847656 260.972656 56.351562 260.046875 C 55.402344 258.261719 52.675781 258.199219 50.9375 257.273438 C 49.609375 256.59375 48.574219 256.035156 47.796875 255.535156 C 46.277344 254.574219 45.765625 253.90625 45.910156 253.480469 C 46.070312 253.066406 46.835938 252.957031 48.683594 253.429688 C 49.585938 253.671875 50.789062 254.039062 52.25 254.609375 C 53.40625 255.144531 54.78125 255.816406 56.351562 256.605469 C 56.289062 246.859375 56.046875 237.199219 55.292969 227.492188 C 54.222656 227.285156 53.210938 227.089844 52.3125 226.871094 C 51.128906 226.445312 50.058594 226.054688 49.085938 225.738281 C 47.226562 224.960938 45.828125 224.253906 44.792969 223.742188 C 42.734375 222.660156 42.007812 221.980469 42.152344 221.542969 C 42.308594 221.117188 43.269531 221.054688 45.605469 221.589844 C 46.773438 221.871094 48.234375 222.34375 50.085938 222.917969 C 51.007812 223.183594 52.007812 223.476562 53.152344 223.804688 C 53.734375 223.925781 54.355469 224.035156 55 224.167969 C 54.730469 221.089844 54.414062 218.050781 54.003906 214.960938 C 53.101562 207.941406 52.3125 200.90625 51.75 193.875 C 49.027344 193.800781 47.03125 193.4375 45.828125 193.011719 C 44.367188 192.414062 43.917969 191.917969 44.050781 191.492188 C 44.160156 191.066406 44.78125 190.761719 46.191406 190.761719 C 47.347656 190.699219 49.027344 190.710938 51.542969 190.699219 C 50.816406 180.429688 50.59375 170.152344 51.242188 159.820312 C 51.265625 159.296875 51.472656 158.921875 51.75 158.617188 C 51.886719 158.25 52.078125 157.886719 52.457031 157.605469 C 67.019531 146.765625 86.144531 141.886719 104.078125 146.207031 C 114.128906 148.628906 122.21875 152.921875 129.070312 158.726562 Z M 133.949219 221.832031 C 133.363281 208.597656 132.890625 195.371094 132.828125 182.121094 C 117.804688 168.046875 92.253906 155.160156 71.933594 163.082031 C 71.960938 163.214844 72.007812 163.300781 72.007812 163.445312 C 72.082031 185.042969 72.800781 219.339844 73.371094 244.355469 C 83.726562 241.882812 92.535156 236.164062 102.484375 232.648438 C 112.949219 228.976562 123.398438 225.214844 133.949219 221.832031 Z M 137.074219 301.355469 C 136.867188 276.144531 135.296875 251.007812 134.144531 225.835938 C 123.921875 229.109375 113.421875 232.308594 103.519531 236.386719 C 93.46875 240.535156 84.152344 246.007812 73.457031 248.320312 C 73.84375 264.378906 74.148438 275.769531 74.148438 275.769531 C 74.148438 275.804688 74.125 275.828125 74.125 275.863281 C 85.429688 281.523438 96.558594 287.507812 108.679688 291.488281 C 118.203125 294.589844 127.65625 297.945312 137.074219 301.355469 Z M 140.96875 302.753906 C 143.109375 303.542969 145.261719 304.324219 147.402344 305.113281 C 144.023438 265.328125 143.828125 224.59375 144.617188 184.726562 C 144.53125 184.617188 144.421875 184.554688 144.363281 184.398438 C 134.980469 167.679688 122.804688 153.726562 103.046875 149.941406 C 85.855469 146.632812 69.1875 150.246094 55.0625 160.476562 C 53.988281 178.726562 55.535156 196.878906 57.871094 214.960938 C 60.253906 233.160156 60.28125 250.984375 60.195312 269.296875 C 61.410156 269.816406 62.617188 270.355469 63.820312 270.914062 C 63.757812 252.445312 63.152344 234 62.578125 215.554688 C 62.054688 199.300781 64.074219 182.039062 61.972656 166 C 61.910156 165.613281 61.972656 165.332031 62.082031 165.078125 C 62.105469 164.492188 62.335938 163.921875 62.921875 163.507812 C 85.792969 147.496094 118.179688 162.777344 136.113281 179.921875 C 136.648438 180.429688 136.757812 181.027344 136.636719 181.585938 C 136.648438 181.671875 136.671875 181.746094 136.699219 181.832031 C 136.890625 222.175781 140.6875 262.382812 140.96875 302.753906 Z M 151.382812 306.574219 C 158.621094 309.238281 165.871094 311.878906 173.148438 314.492188 C 172.746094 304.554688 172.699219 294.636719 172.855469 284.734375 C 164.949219 283.019531 159.753906 281.21875 156.601562 279.878906 C 153.207031 278.359375 152.027344 277.519531 152.199219 277.09375 C 152.367188 276.691406 153.804688 276.789062 157.332031 277.738281 C 160.53125 278.503906 165.445312 279.878906 172.894531 281.449219 C 173.257812 262.835938 174.160156 244.246094 174.402344 225.542969 C 167.40625 216.953125 161.578125 207.355469 155.421875 198.171875 C 153.121094 194.714844 150.773438 191.246094 148.4375 187.816406 C 148.242188 197.441406 148.132812 207.074219 148.097656 216.761719 C 149.59375 217.320312 151.054688 217.832031 152.367188 218.328125 C 154.351562 218.925781 156.128906 219.460938 157.710938 219.9375 C 160.933594 220.96875 163.488281 221.722656 165.363281 222.5625 C 169.097656 224.253906 170.363281 225.179688 170.167969 225.582031 C 169.996094 225.96875 168.402344 225.824219 164.632812 224.730469 C 162.746094 224.195312 160.167969 223.671875 156.917969 222.820312 C 155.289062 222.367188 153.464844 221.894531 151.445312 221.359375 C 150.398438 220.996094 149.277344 220.605469 148.097656 220.191406 C 148.097656 225.386719 148.121094 230.605469 148.183594 235.824219 C 154.921875 239 159.921875 240.011719 162.84375 241.070312 C 165.898438 241.945312 167.039062 242.589844 166.945312 243.015625 C 166.882812 243.464844 165.617188 243.625 162.367188 243.296875 C 159.449219 242.820312 154.726562 242.199219 148.21875 239.390625 C 148.292969 244.453125 148.402344 249.550781 148.546875 254.609375 C 154.617188 256.714844 158.621094 258.285156 161.066406 259.402344 C 163.730469 260.621094 164.667969 261.375 164.546875 261.800781 C 164.414062 262.238281 163.234375 262.261719 160.363281 261.570312 C 157.820312 260.972656 154.046875 259.855469 148.632812 258.054688 C 148.949219 269.28125 149.472656 280.488281 150.226562 291.65625 C 151.25 291.972656 152.246094 292.277344 153.097656 292.59375 C 154.132812 293.070312 155.09375 293.480469 155.933594 293.859375 C 157.585938 294.578125 158.828125 295.257812 159.800781 295.671875 C 161.734375 296.464844 162.453125 297.058594 162.394531 297.507812 C 162.332031 297.945312 161.457031 298.140625 159.132812 297.835938 C 157.976562 297.691406 156.601562 297.191406 154.789062 296.609375 C 153.960938 296.292969 153.011719 295.953125 151.964844 295.5625 C 151.492188 295.40625 150.992188 295.257812 150.480469 295.089844 C 150.761719 298.933594 151.042969 302.753906 151.382812 306.574219 Z M 173.976562 328.191406 C 173.730469 325.019531 173.511719 321.84375 173.34375 318.667969 C 150.289062 310.441406 127.097656 302.425781 104.140625 293.992188 C 83.03125 286.21875 64.488281 272.992188 42.652344 267.179688 C 42.734375 268.808594 42.882812 270.414062 43.101562 272.042969 C 65.339844 280.597656 85.914062 292.765625 107.863281 302.058594 C 129.59375 311.257812 152.707031 317.9375 173.976562 328.191406 Z M 182.625 330.773438 C 180.363281 298.957031 183.199219 266.726562 182.746094 234.839844 C 182.664062 234.695312 182.578125 234.511719 182.539062 234.339844 C 182.382812 234.242188 182.261719 234.144531 182.128906 234.023438 C 180.777344 232.710938 179.460938 231.359375 178.199219 229.960938 C 177.601562 263.441406 175.132812 296.597656 177.976562 330.175781 C 178.441406 330.382812 178.890625 330.601562 179.316406 330.820312 C 180.410156 330.832031 181.53125 330.832031 182.625 330.773438 Z M 186.398438 229.171875 C 188.574219 227.964844 190.828125 226.835938 193.125 225.800781 C 184.339844 212.855469 174.511719 201.015625 166.433594 187.511719 C 158.34375 173.984375 149.691406 160.832031 140.796875 147.835938 C 131.417969 134.136719 122.546875 120.351562 114.105469 106.070312 C 107.023438 94.097656 97.253906 83.855469 90.964844 71.445312 C 90.515625 71.492188 90.039062 71.503906 89.589844 71.554688 C 89.394531 75.238281 87.824219 78.742188 84.5625 80.59375 C 87.714844 84.425781 90.257812 88.816406 93.300781 92.675781 C 97.316406 97.761719 101.304688 102.894531 105.089844 108.164062 C 114.128906 120.828125 121.5625 134.199219 129.652344 147.449219 C 138.839844 162.484375 148.9375 176.890625 158.71875 191.527344 C 167.355469 204.410156 175.242188 218.304688 186.398438 229.171875 Z M 192.261719 325.429688 C 190.132812 311.292969 191.324219 296.523438 190.972656 282.265625 C 190.582031 266.363281 190.121094 250.449219 190.011719 234.535156 C 189.039062 235.058594 188.050781 235.570312 187.101562 236.152344 C 186.933594 236.238281 186.785156 236.300781 186.640625 236.359375 C 186.980469 267.46875 184.292969 298.933594 186.421875 329.980469 C 188.222656 328.328125 190.15625 326.804688 192.261719 325.429688 Z M 279.871094 49.664062 C 278.425781 47.753906 276.84375 45.929688 275.140625 44.214844 C 261.148438 46.769531 246.632812 45.894531 232.484375 46.683594 C 214.585938 47.671875 196.777344 49.265625 178.976562 51.113281 C 161.625 52.890625 144.484375 54.300781 127.039062 54.859375 C 112.414062 55.335938 97.984375 58 83.382812 58.558594 C 85.527344 60.140625 87.339844 62.378906 88.445312 65.019531 C 88.808594 65.882812 89.066406 66.785156 89.261719 67.707031 C 104.324219 66.480469 119.128906 63.535156 134.226562 62.683594 C 150.96875 61.710938 167.867188 62.574219 184.511719 60.410156 C 200.570312 58.316406 216.460938 54.460938 232.691406 54.179688 C 248.300781 53.925781 264.445312 52.476562 279.871094 49.664062 Z M 288 72.34375 C 282.769531 66.648438 276.878906 61.589844 273.058594 54.738281 C 260.992188 56.625 248.691406 57.78125 236.597656 57.976562 C 220.328125 58.253906 204.71875 61.648438 188.636719 63.730469 C 170.53125 66.089844 152.390625 65.324219 134.226562 66.539062 C 121.125 67.441406 108.179688 69.679688 95.148438 71.03125 C 100.199219 80.507812 107 89.023438 113.203125 97.894531 C 113.449219 97.785156 113.738281 97.722656 114.09375 97.761719 C 130.664062 99.609375 144.984375 94.183594 161.007812 91.6875 C 173.5625 89.730469 186.25 89.558594 198.878906 88.257812 C 215.960938 86.445312 232.847656 83.292969 249.652344 79.703125 C 262.339844 77.003906 275.46875 75.582031 288 72.34375 Z M 307.613281 97.1875 C 302.515625 91.105469 297.585938 84.984375 292.988281 78.414062 C 292.269531 77.40625 291.527344 76.445312 290.726562 75.496094 C 290.554688 75.605469 290.371094 75.738281 290.128906 75.800781 C 276.027344 79.582031 261.101562 81.273438 246.753906 84.253906 C 232.242188 87.273438 217.617188 90.144531 202.871094 91.6875 C 186.921875 93.367188 170.132812 92.757812 154.582031 96.992188 C 141.84375 100.472656 129.03125 102.917969 115.820312 101.761719 C 117.046875 103.613281 118.230469 105.449219 119.347656 107.359375 C 124.324219 115.804688 129.542969 124.003906 134.910156 132.140625 C 134.957031 132.140625 134.980469 132.117188 135.019531 132.117188 C 167.917969 131.730469 198.1875 121.644531 229.941406 114.660156 C 244.054688 111.570312 259.191406 110.109375 272.9375 105.703125 C 279.519531 103.613281 285.945312 100.777344 292.816406 99.765625 C 297.816406 99.050781 302.734375 98.394531 307.613281 97.1875 Z M 330.21875 123.578125 C 324.585938 117.238281 319.097656 110.816406 313.574219 104.292969 C 312.503906 103.003906 311.433594 101.738281 310.363281 100.472656 C 303.769531 102.25 296.953125 102.417969 290.371094 104.148438 C 283.691406 105.875 277.378906 108.890625 270.636719 110.28125 C 254.785156 113.527344 238.785156 116.3125 223.089844 120.21875 C 194.648438 127.289062 166.859375 135.195312 137.402344 135.925781 C 139.628906 139.246094 141.867188 142.558594 144.121094 145.878906 C 149.960938 154.457031 155.761719 163.105469 161.347656 171.867188 C 174.9375 169.503906 189.902344 164.882812 202.675781 159.664062 C 216.59375 153.980469 230.78125 152.496094 244.90625 147.777344 C 272.476562 138.519531 301.503906 128.882812 330.21875 123.578125 Z M 329.316406 193.632812 C 329.425781 186.636719 329.511719 181.199219 329.523438 178.644531 C 327.664062 179.09375 325.8125 179.566406 323.964844 180.089844 C 308.269531 184.359375 294.425781 192.34375 279.410156 198.316406 C 263.144531 204.824219 247.121094 211.882812 230.976562 218.695312 C 219.125 223.671875 205.632812 226.980469 193.855469 232.566406 C 193.890625 238.464844 193.976562 244.378906 194.085938 250.253906 C 202.617188 245.730469 210.984375 242.953125 218.480469 240.316406 C 222.519531 238.914062 226.316406 237.539062 229.90625 236.152344 C 233.445312 234.707031 236.792969 233.246094 239.992188 231.835938 C 252.742188 226.226562 262.730469 221.929688 270.371094 218.695312 C 278 215.445312 283.328125 213.339844 286.734375 212.0625 C 290.152344 210.773438 291.675781 210.335938 291.757812 210.554688 C 291.84375 210.75 290.492188 211.589844 287.234375 213.21875 C 283.972656 214.875 278.777344 217.296875 271.257812 220.800781 C 263.738281 224.292969 253.859375 228.828125 241.171875 234.558594 C 238.019531 235.996094 234.675781 237.503906 231.035156 239 C 227.410156 240.460938 223.566406 241.882812 219.515625 243.296875 C 211.570312 246.128906 202.808594 249.050781 194.148438 253.878906 C 194.316406 261.933594 194.535156 269.988281 194.730469 278.042969 C 194.816406 281.535156 194.816406 285.097656 194.78125 288.664062 C 199.085938 287.375 203.152344 285.683594 206.933594 283.796875 C 211.21875 281.535156 215.21875 279.148438 219.039062 276.789062 C 226.597656 272.03125 233.726562 267.933594 240.246094 264.625 C 246.78125 261.265625 252.742188 258.625 258.058594 256.324219 C 260.710938 255.21875 263.203125 254.183594 265.527344 253.222656 C 267.863281 252.273438 270.089844 251.484375 272.136719 250.730469 C 274.179688 249.949219 276.066406 249.269531 277.804688 248.625 C 278.679688 248.308594 279.519531 248.003906 280.324219 247.722656 C 281.113281 247.46875 281.90625 247.273438 282.632812 247.054688 C 285.601562 246.214844 287.988281 245.570312 289.847656 245.097656 C 293.558594 244.160156 295.191406 243.878906 295.261719 244.085938 C 295.261719 244.328125 293.753906 245.023438 290.191406 246.300781 C 288.414062 246.96875 286.089844 247.785156 283.21875 248.746094 C 282.488281 249.015625 281.734375 249.246094 280.945312 249.550781 C 280.164062 249.867188 279.347656 250.21875 278.511719 250.558594 C 276.820312 251.265625 274.96875 252.019531 272.972656 252.832031 C 270.980469 253.671875 268.8125 254.511719 266.515625 255.5 C 264.214844 256.519531 261.746094 257.601562 259.128906 258.785156 C 253.910156 261.167969 248.046875 263.867188 241.621094 267.261719 C 235.183594 270.609375 228.285156 274.671875 220.695312 279.503906 C 216.886719 281.886719 212.8125 284.332031 208.382812 286.644531 C 204.222656 288.738281 199.695312 290.648438 194.730469 292.035156 C 194.609375 302.496094 194.425781 313.082031 195.828125 323.253906 C 202.808594 319.261719 210.585938 316.148438 217.25 312.4375 C 231.230469 304.640625 244.761719 296.132812 258.605469 288.175781 C 272.4375 280.207031 287.488281 275.890625 301.417969 268.394531 C 307.648438 265.050781 314.390625 262.640625 320.132812 258.441406 C 322.832031 256.433594 325.496094 254.550781 328.257812 252.832031 C 328.332031 250.144531 328.394531 247.226562 328.453125 244.183594 C 294.484375 260.949219 272 272.128906 257.925781 278.917969 C 250.601562 282.421875 245.320312 284.222656 242.058594 285.550781 C 238.859375 286.972656 237.398438 287.507812 237.265625 287.289062 C 237.15625 287.117188 238.421875 286.21875 241.523438 284.417969 C 244.675781 282.703125 249.820312 280.574219 256.914062 276.875 C 270.929688 269.476562 293.632812 257.796875 328.527344 240.535156 C 328.695312 232.113281 328.867188 222.820312 329.011719 213.988281 C 320.835938 217.269531 313.367188 220.664062 306.492188 223.78125 C 298.914062 227.34375 291.734375 230.132812 285.554688 232.90625 C 279.3125 235.59375 273.742188 237.992188 268.8125 240.144531 C 263.875 242.308594 259.578125 244.195312 255.84375 245.824219 C 252.109375 247.480469 248.96875 248.769531 246.355469 249.867188 C 243.75 251.046875 241.609375 251.933594 239.90625 252.578125 C 236.476562 253.734375 234.90625 253.953125 234.855469 253.757812 C 234.796875 253.515625 236.21875 252.894531 239.417969 251.410156 C 241 250.59375 243.019531 249.585938 245.574219 248.234375 C 248.15625 246.992188 251.269531 245.484375 254.945312 243.722656 C 258.605469 241.992188 262.839844 239.984375 267.695312 237.699219 C 272.609375 235.484375 278.167969 232.964844 284.398438 230.15625 C 290.640625 227.261719 297.585938 224.535156 305.179688 220.910156 C 312.355469 217.601562 320.253906 213.988281 329.0625 210.496094 C 329.148438 205.871094 329.207031 201.46875 329.269531 197.441406 C 324.632812 200.09375 320.339844 201.625 316.796875 202.84375 C 312.441406 204.300781 309 205.300781 306.40625 206.042969 C 301.210938 207.527344 299.21875 208.035156 299 207.585938 C 298.851562 207.222656 300.578125 205.933594 305.652344 203.875 C 308.183594 202.84375 311.554688 201.636719 315.789062 200.054688 C 319.667969 198.546875 324.425781 196.746094 329.316406 193.632812 Z M 338.699219 176.453125 C 336.933594 176.867188 335.179688 177.292969 333.417969 177.707031 C 333.417969 201.710938 332.796875 226.25 332.1875 250.621094 C 332.832031 250.304688 333.476562 249.9375 334.148438 249.632812 C 334.402344 249.523438 334.644531 249.441406 334.878906 249.390625 C 335.046875 249.074219 335.265625 248.734375 335.523438 248.429688 C 335.667969 224.703125 336.117188 200.054688 338.699219 176.453125 Z M 348.699219 146.121094 C 345.679688 141.460938 342.457031 136.910156 338.527344 132.714844 C 336.726562 130.792969 334.960938 128.859375 333.222656 126.921875 C 302.199219 132.457031 272.269531 144.136719 242.070312 152.8125 C 235.101562 154.832031 227.859375 155.199219 220.890625 157.023438 C 213.710938 158.871094 207.3125 162.546875 200.265625 164.652344 C 188.136719 168.277344 176.03125 172.996094 163.550781 175.34375 C 166.371094 179.847656 169.121094 184.386719 171.761719 188.972656 C 175.214844 194.96875 179.207031 200.53125 183.308594 206.03125 C 183.613281 205.808594 183.953125 205.664062 184.402344 205.664062 C 193.125 205.675781 200.183594 201.539062 207.847656 197.988281 C 214.550781 194.898438 221.621094 192.535156 228.394531 189.617188 C 240.550781 184.386719 252.816406 179.640625 265.285156 175.1875 C 292.988281 165.355469 320.617188 154.820312 348.699219 146.121094 Z M 359.101562 162.328125 C 356.191406 158.09375 353.554688 153.761719 350.875 149.46875 C 319.828125 159.019531 289.144531 170.578125 258.605469 181.671875 C 244.164062 186.953125 230.246094 193.546875 215.863281 198.984375 C 205.875 202.757812 196.726562 208.949219 185.910156 209.484375 C 189.597656 214.328125 193.296875 219.179688 196.75 224.277344 C 207.398438 219.9375 218.871094 216.84375 229.285156 212.464844 C 246.246094 205.3125 263.53125 198.511719 280.335938 190.992188 C 294.144531 184.8125 307.503906 177.597656 322.25 173.863281 C 335.023438 170.636719 346.972656 166.730469 359.101562 162.328125 Z M 362.847656 160.953125 C 364.027344 160.527344 365.21875 160.078125 366.375 159.652344 C 350.570312 138.019531 335.800781 115.644531 316.796875 96.628906 C 308.535156 88.355469 300.910156 78.9375 293.71875 69.703125 C 289.570312 64.375 286.199219 58.597656 282.402344 53.121094 C 280.664062 53.449219 278.949219 53.765625 277.183594 54.070312 C 282.355469 62.429688 290.628906 68.414062 296.332031 76.480469 C 304.046875 87.371094 312.867188 97.1875 321.128906 107.640625 C 328.902344 117.480469 338.1875 125.890625 346.191406 135.511719 C 352.761719 143.410156 357.117188 152.546875 362.847656 160.953125 Z M 373.457031 158.457031 C 374.746094 160.222656 373.796875 161.9375 372.277344 162.691406 C 372.046875 163.703125 371.375 164.628906 370.171875 165.078125 C 361.972656 168.167969 354.003906 172.4375 345.488281 174.738281 C 345.4375 174.738281 345.378906 174.761719 345.316406 174.785156 C 342.519531 199.410156 342.09375 225.242188 341.957031 250 C 341.945312 251.128906 341.445312 251.957031 340.742188 252.46875 C 340.523438 253.234375 340.046875 253.953125 339.28125 254.402344 C 338.917969 254.609375 338.503906 254.742188 338.078125 254.78125 C 337.882812 254.9375 337.664062 255.085938 337.40625 255.195312 C 331.179688 257.980469 326.433594 262.433594 320.667969 265.863281 C 314.523438 269.515625 307.757812 272.566406 301.335938 275.742188 C 288.28125 282.179688 274.542969 286.28125 261.878906 293.738281 C 249.25 301.148438 236.863281 308.898438 224.078125 316.003906 C 213.371094 321.964844 198.636719 326.804688 189.902344 335.480469 C 189.28125 336.101562 188.574219 336.367188 187.90625 336.394531 C 187.734375 336.464844 187.578125 336.527344 187.40625 336.5625 C 184.011719 337.402344 180.605469 337.234375 177.152344 337.207031 C 175.800781 337.207031 174.886719 336.503906 174.425781 335.578125 C 153.292969 324.847656 129.957031 318.339844 108.15625 309.105469 C 83.492188 298.675781 60.5 284.699219 35.132812 275.914062 C 34.984375 275.863281 34.875 275.804688 34.742188 275.742188 C 33.832031 275.851562 32.917969 275.511719 32.210938 274.855469 C 31.933594 274.757812 31.675781 274.625 31.398438 274.515625 C 30.945312 274.320312 30.605469 273.980469 30.351562 273.578125 C 29.914062 273.210938 29.570312 272.714844 29.378906 272.042969 C 27.515625 265.695312 28.5 259.464844 28.195312 252.957031 C 27.769531 243.550781 27.746094 234.171875 27.527344 224.765625 C 27.1875 210.214844 24.765625 195.699219 24.402344 181.136719 C 23.28125 182.730469 22.164062 184.300781 21.054688 185.859375 C 20.75 186.308594 20.386719 186.636719 19.972656 186.855469 C 19.800781 187.027344 19.59375 187.171875 19.351562 187.304688 C 16.625 188.582031 13.769531 189.046875 10.75 189.058594 C 9.460938 189.082031 8.574219 188.460938 8.085938 187.597656 C 7.734375 187.390625 7.441406 187.0625 7.160156 186.671875 C 5.179688 183.667969 3.460938 180.46875 1.234375 177.65625 C 0.140625 176.28125 -0.113281 174.457031 1.234375 173.105469 C 1.320312 173.023438 1.40625 172.960938 1.515625 172.886719 C 1.578125 172.632812 1.660156 172.402344 1.796875 172.144531 C 10.894531 155.222656 22.710938 139.671875 32.578125 123.164062 C 42.761719 106.167969 52.457031 89.195312 64.0625 73.109375 C 64.355469 72.710938 64.695312 72.40625 65.0625 72.175781 C 63.84375 67.878906 65.414062 63.28125 68.589844 59.570312 C 68.796875 59.351562 68.992188 59.179688 69.210938 59.035156 C 71.230469 57.183594 73.457031 56.261719 75.695312 56.113281 C 75.925781 55.808594 76.195312 55.554688 76.484375 55.3125 C 77.375 54.652344 78.46875 53.644531 79.453125 52.890625 C 79.660156 52.71875 79.929688 52.609375 80.183594 52.550781 C 80.585938 52.332031 81.058594 52.207031 81.59375 52.207031 C 98.105469 51.769531 114.410156 48.742188 130.96875 48.339844 C 147.085938 47.925781 162.953125 46.296875 178.976562 44.664062 C 195.402344 42.988281 211.851562 41.40625 228.335938 40.480469 C 243.53125 39.617188 259.554688 40.761719 274.542969 37.816406 C 275.019531 37.707031 275.480469 37.730469 275.894531 37.816406 C 276.820312 37.597656 277.851562 37.78125 278.753906 38.632812 C 287.636719 47.246094 292.660156 58.511719 300.484375 67.964844 C 308.707031 77.953125 317.078125 87.625 326.226562 96.773438 C 344.476562 115.046875 358.210938 137.761719 373.457031 158.457031 " fill-opacity="1" fill-rule="nonzero"/></g></svg>