<svg xmlns="http://www.w3.org/2000/svg" xmlns:xlink="http://www.w3.org/1999/xlink" width="500" zoomAndPan="magnify" viewBox="0 0 375 374.999991" height="500" preserveAspectRatio="xMidYMid meet" version="1.0"><defs><clipPath id="id1"><path d="M 53 1 L 324.585938 1 L 324.585938 371 L 53 371 Z M 53 1 " clip-rule="nonzero"/></clipPath></defs><g clip-path="url(#id1)"><path fill="#ffffff" d="M 202.917969 369.230469 C 194.933594 372.707031 190.054688 365.53125 187.964844 357.789062 C 175.621094 345.40625 199.144531 329.0625 199.425781 314.214844 C 202.949219 306.269531 212.230469 286.089844 203.660156 283.539062 C 193.78125 293.082031 179.84375 290.59375 168.394531 289.230469 C 164.683594 283.820312 156.980469 288.738281 160.769531 278.546875 C 165.410156 270.386719 173.128906 266.285156 159.894531 262.664062 C 148.015625 249.957031 151.828125 267.621094 150.484375 276.25 C 148.507812 283.117188 148.867188 291.167969 145.421875 297.300781 C 137.089844 306.027344 128.226562 319.292969 114.429688 315.78125 C 109.441406 316.769531 93.101562 316.523438 94.785156 307.773438 C 89.539062 299.183594 103.132812 282.253906 115.046875 281.570312 C 120.074219 271.292969 122.046875 260.5625 123.734375 249.257812 C 125.519531 240.453125 125.847656 230.125 122.710938 221.625 C 115.464844 213.191406 109.214844 203.09375 108.351562 191.847656 C 108.777344 178.28125 107.703125 164.367188 109.992188 151.035156 C 111.550781 138.738281 129.128906 125.695312 113.878906 115.6875 C 103.488281 106.351562 118.476562 139.460938 106.816406 141.890625 C 97.003906 135.375 88.128906 127.207031 76.746094 123.535156 C 69.125 118.855469 61.972656 113.554688 57.746094 105.464844 C 50.070312 96.449219 53.824219 84.148438 60.613281 75.835938 C 66.558594 61.398438 79.835938 51.464844 85.351562 37.351562 C 88.472656 25.484375 100.144531 17.644531 110.738281 12.65625 C 126.863281 7.011719 143.09375 0.0976562 160.601562 2.253906 C 177.21875 3.222656 196.40625 2.1875 210.121094 12.691406 C 223.515625 22.613281 238.882812 30.6875 250.546875 42.929688 C 252.777344 50.636719 261.988281 59.386719 257.019531 67.402344 C 253.121094 78.355469 246.761719 87.796875 238.515625 95.921875 C 230.300781 102.597656 232.625 116.769531 237.289062 124.789062 C 241.308594 131.96875 245.261719 139.132812 254.039062 140.722656 C 267.808594 148.769531 278.144531 161.675781 288.90625 173.226562 C 296.488281 190.511719 305.136719 159.238281 308.078125 151.917969 C 308.023438 142.0625 322.335938 124.570312 318.402344 142.796875 C 318.984375 158.632812 314.351562 176.210938 304.253906 187.945312 C 318.289062 197.675781 319.890625 217.921875 324.574219 233.875 C 324.316406 250.578125 312.304688 264.65625 300.648438 275.726562 C 301.523438 285.101562 293.707031 293.128906 299.972656 301.988281 C 307.265625 320.578125 278.996094 323.316406 268.152344 316.035156 C 254.777344 304.191406 270.40625 286.257812 272.167969 272.269531 C 278.882812 258.667969 254.273438 281.730469 244.96875 277.226562 C 241.910156 295.660156 240.675781 314.507812 236.554688 332.683594 C 236.519531 342.890625 240.148438 358.015625 230.082031 363.8125 C 221.277344 364.648438 214.210938 369.359375 204.730469 370.640625 L 203.558594 370.457031 L 202.917969 369.234375 Z M 206.953125 367.839844 C 220.070312 371.367188 222.28125 354.1875 222.5 347.914062 C 218.289062 358.039062 224.453125 368.886719 233.101562 358.921875 C 237.957031 347.769531 232.3125 335.214844 236.625 323.960938 C 239.921875 296.976562 245.964844 270.015625 243.960938 242.65625 C 247.433594 247.164062 244.09375 265.167969 245.441406 274.5625 C 256.085938 276.742188 269.035156 268.027344 277.597656 261.019531 C 286.65625 249.027344 296.367188 236.605469 296.613281 219.875 C 299.558594 209.214844 299.144531 197.609375 294.945312 185.421875 C 280.964844 164.582031 271.414062 156.441406 257.289062 144.488281 C 251.59375 140.242188 242.675781 140.320312 240.164062 132.621094 C 235.785156 123.164062 216.347656 100.078125 218.804688 123.480469 C 219.175781 137.078125 205.410156 138.28125 197.460938 130.445312 C 198.757812 140.683594 186.667969 142.550781 179.570312 145.0625 C 166.070312 149.449219 154.667969 139.648438 142.335938 145.03125 C 126.957031 141.679688 123.191406 126.183594 118.417969 113.558594 C 114.105469 100.835938 126.746094 128.054688 126.964844 132.890625 C 133.597656 143.871094 149.574219 148.472656 156.75 135.753906 C 162.378906 128.328125 179.496094 128.570312 175.203125 116.753906 C 175.640625 103.921875 173.832031 129.722656 181.925781 124.304688 C 194.007812 123.394531 214.152344 145.960938 217.398438 124.292969 C 219.703125 110.890625 218.09375 97.164062 220.386719 83.609375 C 224.132812 64.902344 213.746094 47.980469 206.65625 31.585938 C 214.398438 43.386719 221.65625 59.292969 222.375 74.605469 C 224.507812 86.042969 225.339844 110.148438 231.976562 113.949219 C 230.449219 104.789062 232.3125 97.894531 239.542969 92.085938 C 249.898438 80.359375 262.796875 63.617188 251.53125 48.484375 C 243.398438 34.742188 227.636719 27.257812 214.808594 18.34375 C 204.042969 8.800781 190.164062 4.894531 175.894531 4.554688 C 158.253906 3.492188 139.878906 2.328125 123.429688 10.027344 C 108.792969 14.5 91.605469 22.363281 86.992188 38.109375 C 81.5 52.300781 68.28125 62.273438 62.15625 76.679688 C 54.894531 85.039062 52.214844 97.5625 60.421875 106.226562 C 66.679688 117.808594 79.78125 122.601562 90.6875 128.5 C 97.457031 132.847656 113.410156 149.140625 109.089844 129.503906 C 108.320312 112.171875 110.5 93.125 95.695312 80.6875 C 91.40625 74.601562 84.921875 57.03125 87.164062 55.246094 C 88.445312 73.1875 103.539062 84.691406 108.984375 100.4375 C 106.605469 112.195312 122.25 116.148438 122.578125 127.03125 C 116.488281 139.019531 109.238281 151.515625 110.535156 165.496094 C 110.144531 179.503906 108.183594 193.9375 114.332031 207.046875 C 118.101562 214.773438 127.359375 220.167969 126.28125 229.78125 C 129.085938 242.996094 122.988281 255.28125 122.363281 268.277344 C 119.574219 278.832031 113.082031 284.832031 103.15625 289.046875 C 97.308594 293.304688 89.945312 315.703125 100.347656 300.042969 C 121.339844 285.789062 81.976562 312.445312 102.742188 312.765625 C 112.238281 321 112.730469 292.421875 114.859375 299.492188 C 108.703125 309.175781 108.390625 318.8125 120.9375 314.496094 C 130.21875 315.753906 134.660156 301.964844 134.070312 302.050781 C 134.648438 311.027344 140.886719 297.859375 144.3125 295.941406 C 146.695312 288.585938 148.066406 280.3125 148.972656 272.480469 C 149.328125 260.9375 149.3125 249.394531 153.117188 238.335938 C 158.074219 224.660156 147.949219 253.890625 152.792969 255.5 C 164.886719 266.273438 180.132812 270.890625 196.03125 271.914062 C 210.925781 271.734375 189.5 252.933594 185.367188 248.527344 C 179.4375 243.011719 164.964844 230.042969 179.824219 241.554688 C 189.914062 251.5625 201.386719 261.5 206.609375 274.542969 C 209.726562 283.238281 209.519531 294.425781 205.863281 303.171875 C 201.242188 318.851562 193.464844 332.519531 186.570312 347.078125 C 183.09375 363.925781 194.941406 350.925781 195.636719 343.359375 C 190.25 350.269531 189.617188 374.851562 201.515625 365.140625 C 202.855469 357.980469 210.476562 346.035156 204.203125 360.753906 C 202.253906 362.03125 203.828125 371.46875 206.957031 367.839844 Z M 94.628906 119.445312 C 81.757812 112.222656 77.761719 96.566406 70.375 84.664062 C 65.257812 71.683594 77.753906 96.449219 79.648438 99.636719 C 81.96875 109.203125 95.59375 118.359375 98.601562 122.035156 L 96.992188 121.058594 Z M 164.40625 112.328125 C 154.84375 109.390625 145.683594 94.40625 156.90625 87.191406 C 163.796875 83.695312 173.386719 83.265625 159.382812 87.453125 C 148.039062 90.898438 152.972656 107.765625 163.824219 99.90625 C 176.515625 110.027344 153.804688 102.898438 156.871094 104.984375 C 159.480469 116.859375 176.761719 108.441406 175.671875 108.730469 C 180.707031 112.949219 195.953125 98.582031 180.414062 104.046875 C 170.898438 95.433594 196.675781 94.769531 180.566406 98.164062 C 184.125 115.457031 198.648438 80.824219 178.792969 83.953125 C 170.527344 85.042969 163.640625 83.285156 176.421875 82.804688 C 193.945312 79.5625 194.613281 105.25 181.355469 110.058594 C 175.875 111.695312 170.195312 113.699219 164.402344 112.328125 Z M 166.046875 103.9375 C 161.324219 96.285156 153.207031 105.414062 164.671875 104.929688 Z M 231 96.574219 C 225.671875 71.175781 222.539062 44.800781 209.984375 21.617188 C 205.703125 16.242188 203.503906 10.96875 210 18.867188 C 222.171875 41.277344 226.59375 66.496094 231 91.304688 C 233.21875 96.523438 241.179688 77.695312 242.101562 71.628906 C 245.796875 63.65625 241.96875 47.1875 243.59375 44.339844 C 246.121094 55.046875 245.242188 65.863281 242.3125 76.441406 C 239.515625 81.382812 233.058594 98.621094 231 96.574219 Z M 120.308594 70.890625 C 104.273438 67.800781 118.488281 45.371094 129.136719 54.007812 C 140.527344 62.375 131.054688 71.039062 120.308594 70.890625 Z M 122.355469 68.464844 C 116.792969 64.667969 112.144531 60.546875 119.089844 68.214844 C 115.808594 67.832031 124.929688 69.460938 122.355469 68.464844 Z M 125.433594 67.347656 C 143.582031 59.148438 111.488281 46.882812 117.566406 63.539062 C 119.152344 65.949219 122.445312 68.273438 125.433594 67.347656 Z M 122.8125 63.71875 C 108.890625 49.886719 139.5625 56.222656 122.8125 63.71875 Z M 125.449219 61.738281 C 129.933594 47.925781 111.183594 63.367188 125.449219 61.738281 Z M 121.980469 61.253906 C 119.0625 51.734375 130.304688 62.710938 121.980469 61.253906 Z M 123.519531 59.796875 C 123.691406 55.476562 121.078125 62.835938 123.519531 59.796875 Z M 131.75 63.863281 C 129.835938 65.425781 130.839844 65.519531 131.75 63.863281 Z M 192.277344 55.207031 C 174.082031 49.824219 197.394531 27.714844 203.699219 44.375 C 207.628906 51.472656 198.816406 57.933594 192.277344 55.207031 Z M 197 53.332031 C 208.488281 49.230469 194.8125 37.144531 193.648438 41.410156 C 206.851562 47.171875 188.445312 53.691406 188.207031 45.378906 C 186.160156 50.40625 192.746094 54.308594 197 53.332031 Z M 195.167969 49.042969 C 203.527344 42.191406 183.5 40.601562 193.53125 45.25 C 193.3125 48.710938 187.453125 48.109375 195.167969 49.042969 Z M 192.425781 45.851562 C 191.828125 39.9375 189.972656 49.140625 192.425781 45.851562 Z M 288.0625 317.851562 C 293.066406 318.574219 290.0625 293.496094 291.574219 307.449219 C 291.246094 325.289062 305.304688 306.027344 297.167969 297.476562 C 292.546875 290.46875 299.941406 280.933594 300.007812 273.902344 C 311.109375 263.351562 322.628906 249.699219 322.703125 233.753906 C 323.355469 217.789062 318.042969 194.234375 306.140625 190.957031 C 291.0625 181.085938 300.648438 201.023438 297.390625 207.175781 C 297.625 225.242188 292.0625 236.558594 286.199219 250.191406 C 275.734375 262.933594 272.808594 279.039062 266.597656 293.65625 C 263.5 299.464844 263.925781 320.324219 269.816406 303.867188 C 269.652344 298.472656 271.695312 291.453125 272.085938 302.59375 C 261.148438 309.496094 270.667969 320.867188 279.292969 316.023438 C 279.460938 308.984375 282.371094 291.144531 281.238281 308.476562 C 280.878906 315.121094 277.71875 320.59375 288.066406 317.851562 Z M 184.023438 288.582031 C 192.101562 290.304688 202.015625 283.96875 206.753906 278.253906 C 205.257812 265.21875 195.484375 277.75 186.386719 271.628906 C 175.066406 266.304688 161.082031 269.664062 162.039062 284.402344 C 167.453125 284.261719 174.578125 265.558594 167.660156 280.339844 C 163.949219 289.636719 184.820312 292.175781 180.648438 280.121094 C 190.179688 269.328125 175.355469 284.796875 183.601562 287.695312 C 181.28125 288.183594 181.515625 290.441406 184.023438 288.578125 Z M 297.007812 221.226562 C 298.585938 208.726562 297.183594 199 294.992188 186.558594 C 301.484375 188.128906 294.382812 219.894531 297.007812 221.226562 Z M 303.839844 185.910156 C 315.207031 174.300781 317.675781 156.316406 316.316406 140.816406 C 311.171875 135.890625 309.792969 160.671875 304.84375 165.667969 C 301.742188 173.839844 285.953125 188.675781 303.839844 185.910156 Z M 174.5625 144.472656 C 181.910156 144.621094 202.945312 138.074219 193.027344 129.109375 C 184.300781 128.242188 174.234375 134.457031 166.085938 130.980469 C 158.878906 135.078125 147.261719 143.617188 163.640625 144.835938 C 167.285156 145.230469 170.933594 144.738281 174.5625 144.472656 Z M 179.390625 130.96875 C 197.636719 125.898438 173.105469 121.929688 168.824219 129.234375 C 172.035156 130.847656 175.8125 132.136719 179.390625 130.96875 Z M 227.1875 111.40625 C 223.683594 104.804688 222.410156 75.328125 221.078125 96.476562 C 216.820312 102.234375 224.699219 119.636719 227.1875 111.40625 Z M 227.1875 111.40625 " fill-opacity="1" fill-rule="nonzero"/></g></svg>