<svg xmlns="http://www.w3.org/2000/svg" xmlns:xlink="http://www.w3.org/1999/xlink" width="500" zoomAndPan="magnify" viewBox="0 0 375 374.999991" height="500" preserveAspectRatio="xMidYMid meet" version="1.0"><defs><clipPath id="id1"><path d="M 0 3.75 L 370.5 3.75 L 370.5 366 L 0 366 Z M 0 3.75 " clip-rule="nonzero"/></clipPath></defs><g clip-path="url(#id1)"><path fill="#56b4a1" d="M 185.25 3.886719 C 82.953125 3.886719 0 86.800781 0 189.085938 C 0 270.917969 53.078125 340.339844 126.6875 364.820312 C 135.945312 366.542969 139.34375 360.796875 139.34375 355.910156 C 139.34375 351.496094 139.171875 336.910156 139.09375 321.429688 C 87.554688 332.644531 76.679688 299.582031 76.679688 299.582031 C 68.253906 278.167969 56.109375 272.480469 56.109375 272.480469 C 39.304688 260.992188 57.378906 261.226562 57.378906 261.226562 C 75.980469 262.527344 85.773438 280.308594 85.773438 280.308594 C 102.296875 308.625 129.113281 300.433594 139.683594 295.703125 C 141.347656 283.738281 146.144531 275.5625 151.441406 270.933594 C 110.300781 266.261719 67.042969 250.375 67.042969 179.417969 C 67.042969 159.191406 74.28125 142.671875 86.132812 129.703125 C 84.207031 125.035156 77.867188 106.203125 87.925781 80.691406 C 87.925781 80.691406 103.480469 75.714844 138.882812 99.675781 C 153.65625 95.570312 169.503906 93.515625 185.25 93.441406 C 200.996094 93.515625 216.859375 95.570312 231.664062 99.675781 C 267.019531 75.714844 282.550781 80.691406 282.550781 80.691406 C 292.636719 106.203125 286.296875 125.035156 284.375 129.703125 C 296.242188 142.671875 303.433594 159.191406 303.433594 179.417969 C 303.433594 250.546875 260.101562 266.203125 218.839844 270.789062 C 225.484375 276.53125 231.417969 287.804688 231.417969 305.09375 C 231.417969 329.863281 231.199219 349.816406 231.199219 355.910156 C 231.199219 360.84375 234.53125 366.613281 243.921875 364.792969 C 317.488281 340.28125 370.5 270.890625 370.5 189.085938 C 370.5 86.800781 287.558594 3.882812 185.25 3.882812 Z M 69.382812 267.707031 C 68.976562 268.632812 67.527344 268.90625 66.207031 268.269531 C 64.863281 267.664062 64.109375 266.417969 64.546875 265.492188 C 64.941406 264.539062 66.394531 264.277344 67.734375 264.914062 C 69.082031 265.523438 69.847656 266.78125 69.382812 267.707031 Z M 78.496094 275.839844 C 77.609375 276.648438 75.882812 276.273438 74.710938 274.984375 C 73.5 273.683594 73.273438 271.960938 74.167969 271.136719 C 75.082031 270.3125 76.753906 270.703125 77.96875 271.988281 C 79.183594 273.292969 79.417969 275.015625 78.496094 275.839844 Z M 84.746094 286.242188 C 83.613281 287.023438 81.757812 286.285156 80.609375 284.636719 C 79.472656 282.984375 79.472656 281.019531 80.632812 280.222656 C 81.785156 279.425781 83.613281 280.148438 84.773438 281.785156 C 85.90625 283.449219 85.90625 285.429688 84.746094 286.242188 Z M 95.316406 298.28125 C 94.304688 299.394531 92.140625 299.105469 90.558594 297.570312 C 88.9375 296.082031 88.488281 293.953125 89.507812 292.839844 C 90.535156 291.726562 92.707031 292.027344 94.304688 293.546875 C 95.910156 295.039062 96.402344 297.179688 95.316406 298.28125 Z M 108.984375 302.34375 C 108.535156 303.792969 106.453125 304.457031 104.355469 303.835938 C 102.257812 303.214844 100.886719 301.507812 101.308594 300.042969 C 101.746094 298.582031 103.839844 297.890625 105.953125 298.554688 C 108.042969 299.191406 109.417969 300.871094 108.984375 302.34375 Z M 124.53125 304.066406 C 124.585938 305.601562 122.804688 306.859375 120.605469 306.886719 C 118.386719 306.945312 116.597656 305.703125 116.570312 304.195312 C 116.570312 302.664062 118.3125 301.40625 120.527344 301.375 C 122.730469 301.332031 124.53125 302.546875 124.53125 304.066406 Z M 139.808594 303.488281 C 140.070312 304.980469 138.542969 306.511719 136.355469 306.917969 C 134.203125 307.308594 132.214844 306.382812 131.941406 304.90625 C 131.671875 303.386719 133.230469 301.851562 135.378906 301.460938 C 137.570312 301.070312 139.53125 301.96875 139.808594 303.488281 Z M 139.808594 303.488281 " fill-opacity="1" fill-rule="nonzero"/></g></svg>