<svg xmlns="http://www.w3.org/2000/svg" xmlns:xlink="http://www.w3.org/1999/xlink" width="500" zoomAndPan="magnify" viewBox="0 0 375 374.999991" height="500" preserveAspectRatio="xMidYMid meet" version="1.0"><defs><clipPath id="id1"><path d="M 70 0 L 309.765625 0 L 309.765625 373 L 70 373 Z M 70 0 " clip-rule="nonzero"/></clipPath><clipPath id="id2"><path d="M 65.140625 15 L 284 15 L 284 374.855469 L 65.140625 374.855469 Z M 65.140625 15 " clip-rule="nonzero"/></clipPath></defs><g clip-path="url(#id1)"><path fill="#d64066" d="M 70.984375 15.859375 L 96.5 1.050781 L 96.851562 1.050781 C 100.511719 -1.023438 106.136719 0 113.726562 4.148438 L 287.371094 104.800781 C 302.28125 113.28125 309.765625 126.152344 309.765625 143.386719 L 309.765625 342.621094 C 309.765625 352.71875 307.234375 358.347656 302.175781 359.507812 L 279.429688 372.941406 C 282.203125 370.195312 283.574219 365.132812 283.574219 357.78125 L 283.574219 158.546875 C 283.574219 141.3125 276.117188 128.335938 261.179688 119.609375 L 171.597656 68.261719 L 171.597656 67.910156 L 155.746094 58.59375 L 155.746094 58.945312 L 87.535156 19.308594 C 80.1875 15.1875 74.671875 14.027344 70.984375 15.859375 " fill-opacity="1" fill-rule="evenodd"/></g><g clip-path="url(#id2)"><path fill="#fe4b79" d="M 199.511719 263.347656 L 257.382812 250.585938 L 257.382812 226.457031 L 199.511719 147.535156 L 199.511719 172.335938 L 244.300781 230.605469 L 244.300781 231.277344 L 199.511719 238.171875 Z M 182.636719 109.972656 L 146.457031 255.40625 L 156.09375 260.925781 L 192.621094 115.464844 Z M 139.890625 113.066406 L 82.019531 125.804688 L 82.019531 149.929688 L 139.890625 228.882812 L 139.890625 203.703125 L 95.128906 145.8125 L 95.128906 145.460938 L 139.890625 137.867188 Z M 279.429688 372.941406 C 278.757812 373.644531 277.839844 374.101562 276.683594 374.316406 C 272.996094 375.714844 267.828125 374.449219 261.179688 370.546875 L 210.519531 341.25 L 210.519531 341.574219 L 137.144531 299.1875 L 137.144531 298.839844 L 87.535156 270.242188 C 72.597656 261.519531 65.140625 248.511719 65.140625 231.277344 L 65.140625 32.421875 C 65.140625 23.453125 67.078125 17.933594 70.984375 15.859375 C 74.671875 14.027344 80.1875 15.1875 87.535156 19.308594 L 155.746094 58.945312 L 155.746094 58.59375 L 171.597656 67.910156 L 171.597656 68.261719 L 261.179688 119.609375 C 276.117188 128.335938 283.574219 141.3125 283.574219 158.546875 L 283.574219 357.78125 C 283.574219 365.132812 282.203125 370.195312 279.429688 372.941406 " fill-opacity="1" fill-rule="evenodd"/></g><path fill="#ffffff" d="M 199.511719 263.347656 L 199.511719 238.171875 L 244.300781 231.277344 L 244.300781 230.605469 L 199.511719 172.335938 L 199.511719 147.535156 L 257.382812 226.457031 L 257.382812 250.585938 Z M 139.890625 113.066406 L 139.890625 137.867188 L 95.128906 145.460938 L 95.128906 145.8125 L 139.890625 203.703125 L 139.890625 228.882812 L 82.019531 149.929688 L 82.019531 125.804688 Z M 182.636719 109.972656 L 192.621094 115.464844 L 156.09375 260.925781 L 146.457031 255.40625 L 182.636719 109.972656 " fill-opacity="1" fill-rule="evenodd"/></svg>