<svg xmlns="http://www.w3.org/2000/svg" xmlns:xlink="http://www.w3.org/1999/xlink" width="500" zoomAndPan="magnify" viewBox="0 0 375 374.999991" height="500" preserveAspectRatio="xMidYMid meet" version="1.0"><path fill="#ff4c7a" d="M 187.5 0 C 83.929688 0 0 83.929688 0 187.5 C 0 291.070312 83.929688 375 187.5 375 C 291.070312 375 375 291.070312 375 187.5 C 374.835938 83.929688 290.910156 0 187.5 0 Z M 132.46875 287.335938 L 88.472656 287.335938 L 88.472656 145.453125 L 132.46875 145.453125 Z M 110.550781 126.625 C 96.429688 126.625 84.902344 115.097656 84.902344 100.972656 C 84.902344 86.851562 96.429688 75.324219 110.550781 75.324219 C 124.675781 75.324219 136.203125 86.851562 136.203125 100.972656 C 136.203125 115.097656 124.675781 126.625 110.550781 126.625 Z M 297.726562 287.335938 L 253.734375 287.335938 L 253.734375 216.394531 C 253.734375 206.332031 253.734375 181.332031 231.332031 181.332031 C 205.84375 181.332031 204.222656 207.144531 204.222656 207.144531 L 204.222656 287.335938 L 160.390625 287.335938 L 160.390625 145.453125 L 204.382812 145.453125 L 204.382812 164.933594 C 214.773438 143.832031 236.203125 142.207031 250.164062 142.207031 C 266.070312 142.207031 280.355469 148.375 288.472656 162.011719 C 295.453125 173.539062 297.726562 190.257812 297.726562 216.394531 Z M 297.726562 287.335938 " fill-opacity="1" fill-rule="nonzero"/></svg>