<svg xmlns="http://www.w3.org/2000/svg" xmlns:xlink="http://www.w3.org/1999/xlink" width="500" zoomAndPan="magnify" viewBox="0 0 375 374.999991" height="500" preserveAspectRatio="xMidYMid meet" version="1.0"><defs><clipPath id="id1"><path d="M 1 93.703125 L 375 93.703125 L 375 281.203125 L 1 281.203125 Z M 1 93.703125 " clip-rule="nonzero"/></clipPath></defs><path fill="#a9e3d7" d="M 271.726562 209.335938 C 272.734375 209.699219 273.339844 210.722656 273.164062 211.785156 L 267.269531 247.144531 L 368.765625 191.257812 L 292.339844 100.953125 L 285.355469 135.414062 C 285.128906 136.570312 284.011719 137.335938 282.839844 137.148438 C 282.398438 137.082031 238.175781 130.207031 184.132812 138.441406 C 152.46875 143.253906 123.667969 152.238281 98.542969 165.140625 C 69.730469 179.921875 45.710938 199.921875 26.992188 224.671875 C 39.183594 219.453125 65.15625 209.378906 98.664062 202.167969 C 141.96875 192.859375 207.171875 186.539062 271.726562 209.335938 Z M 232.039062 193.304688 L 217.035156 190.519531 C 216.96875 190.507812 216.914062 190.492188 216.859375 190.464844 C 216.242188 190.265625 215.863281 189.632812 215.984375 188.972656 C 216.121094 188.261719 216.804688 187.777344 217.53125 187.910156 L 232.539062 190.695312 C 233.25 190.828125 233.734375 191.515625 233.601562 192.242188 C 233.453125 192.953125 232.765625 193.4375 232.039062 193.304688 Z M 274.96875 238.566406 C 274.914062 239.292969 274.269531 239.828125 273.542969 239.777344 C 273.433594 239.761719 273.328125 239.75 273.230469 239.707031 C 272.667969 239.519531 272.289062 238.96875 272.332031 238.351562 L 273.40625 225.464844 C 273.460938 224.738281 274.105469 224.199219 274.832031 224.253906 C 275.558594 224.308594 276.097656 224.953125 276.042969 225.679688 Z M 276.691406 220.257812 C 276.636719 220.246094 276.570312 220.230469 276.515625 220.21875 C 275.898438 220.015625 275.507812 219.371094 275.640625 218.710938 L 278.007812 206.511719 C 278.144531 205.800781 278.84375 205.328125 279.558594 205.464844 C 280.269531 205.597656 280.742188 206.296875 280.605469 207.011719 L 278.238281 219.210938 C 278.105469 219.921875 277.402344 220.394531 276.691406 220.257812 Z M 291.414062 231.101562 L 280.753906 237.207031 C 280.417969 237.410156 280.015625 237.433594 279.679688 237.3125 C 279.382812 237.21875 279.125 237.003906 278.953125 236.722656 C 278.589844 236.089844 278.804688 235.28125 279.4375 234.921875 L 290.09375 228.8125 C 290.726562 228.449219 291.535156 228.664062 291.898438 229.296875 C 292.261719 229.929688 292.046875 230.738281 291.414062 231.101562 Z M 325.757812 210.910156 L 315.21875 216.992188 C 314.882812 217.191406 314.480469 217.21875 314.128906 217.097656 C 313.832031 217.003906 313.578125 216.800781 313.402344 216.507812 C 313.039062 215.875 313.253906 215.066406 313.886719 214.703125 L 324.421875 208.625 C 325.054688 208.261719 325.863281 208.476562 326.226562 209.109375 C 326.605469 209.726562 326.386719 210.546875 325.757812 210.910156 Z M 362.171875 189.820312 C 362.480469 190.480469 362.183594 191.273438 361.511719 191.570312 L 350.167969 196.761719 C 349.84375 196.910156 349.507812 196.910156 349.199219 196.816406 C 348.863281 196.707031 348.578125 196.453125 348.417969 196.117188 C 348.109375 195.457031 348.40625 194.664062 349.078125 194.367188 L 360.421875 189.175781 C 361.082031 188.867188 361.875 189.160156 362.171875 189.820312 Z M 346.992188 171.785156 C 347.554688 171.3125 348.390625 171.394531 348.863281 171.957031 C 358.996094 184.210938 359.089844 184.710938 359.171875 185.097656 C 359.304688 185.8125 358.832031 186.511719 358.121094 186.644531 C 357.890625 186.6875 357.664062 186.671875 357.449219 186.605469 C 357.097656 186.484375 356.800781 186.230469 356.652344 185.878906 C 356.089844 184.964844 351.203125 178.9375 346.828125 173.652344 C 346.359375 173.074219 346.441406 172.242188 346.992188 171.785156 Z M 333.304688 156.597656 C 333.871094 156.140625 334.703125 156.222656 335.164062 156.785156 L 343.144531 166.566406 C 343.601562 167.128906 343.519531 167.964844 342.953125 168.421875 C 342.589844 168.714844 342.105469 168.785156 341.6875 168.648438 C 341.460938 168.570312 341.246094 168.433594 341.082031 168.230469 L 333.101562 158.453125 C 332.644531 157.902344 332.738281 157.070312 333.304688 156.597656 Z M 331.40625 204.441406 L 343.0625 198.132812 C 343.707031 197.78125 344.515625 198.023438 344.851562 198.671875 C 345.203125 199.316406 344.960938 200.125 344.3125 200.460938 L 332.660156 206.769531 C 332.324219 206.957031 331.945312 206.96875 331.609375 206.863281 C 331.300781 206.753906 331.03125 206.539062 330.871094 206.242188 C 330.53125 205.585938 330.761719 204.777344 331.40625 204.441406 Z M 319.984375 139.503906 C 320.546875 139.03125 321.382812 139.113281 321.851562 139.664062 C 330.34375 149.804688 330.546875 150.707031 330.628906 151.054688 C 330.789062 151.769531 330.332031 152.480469 329.617188 152.628906 C 329.375 152.683594 329.132812 152.671875 328.917969 152.589844 C 328.527344 152.453125 328.21875 152.160156 328.082031 151.753906 C 327.613281 150.839844 323.550781 145.785156 319.835938 141.359375 C 319.351562 140.808594 319.417969 139.972656 319.984375 139.503906 Z M 300.898438 116.890625 C 301.464844 116.421875 302.300781 116.488281 302.769531 117.054688 L 313.683594 129.992188 C 314.15625 130.558594 314.089844 131.390625 313.523438 131.863281 C 313.160156 132.171875 312.675781 132.253906 312.246094 132.105469 C 312.015625 132.023438 311.8125 131.890625 311.652344 131.699219 L 300.738281 118.761719 C 300.269531 118.195312 300.335938 117.363281 300.898438 116.890625 Z M 297.160156 224.804688 L 308.03125 218.753906 C 308.679688 218.402344 309.484375 218.632812 309.835938 219.261719 C 310.1875 219.894531 309.957031 220.703125 309.324219 221.066406 L 298.449219 227.117188 C 298.113281 227.308594 297.722656 227.332031 297.386719 227.210938 C 297.09375 227.105469 296.824219 226.902344 296.648438 226.609375 C 296.296875 225.976562 296.527344 225.167969 297.160156 224.804688 Z M 291.171875 120.523438 L 293.269531 109.277344 C 293.40625 108.566406 294.089844 108.082031 294.816406 108.214844 C 295.542969 108.351562 296.015625 109.035156 295.878906 109.761719 L 293.78125 121.007812 C 293.648438 121.71875 292.960938 122.203125 292.234375 122.070312 C 292.167969 122.058594 292.113281 122.042969 292.058594 122.03125 C 291.425781 121.816406 291.050781 121.183594 291.171875 120.523438 Z M 290.472656 126.496094 C 290.59375 125.769531 291.277344 125.285156 292.003906 125.40625 C 292.730469 125.527344 293.214844 126.214844 293.082031 126.9375 L 291.398438 136.8125 C 291.277344 137.539062 290.59375 138.023438 289.867188 137.902344 C 289.796875 137.886719 289.730469 137.875 289.664062 137.847656 C 289.058594 137.644531 288.667969 137.027344 288.777344 136.367188 Z M 278.898438 142.40625 L 287.632812 142.742188 C 288.359375 142.769531 288.9375 143.390625 288.910156 144.117188 C 288.882812 144.84375 288.265625 145.421875 287.539062 145.394531 L 278.804688 145.058594 C 278.667969 145.058594 278.546875 145.03125 278.425781 144.988281 C 277.886719 144.800781 277.5 144.289062 277.523438 143.683594 C 277.550781 142.945312 278.171875 142.378906 278.898438 142.40625 Z M 276.503906 203.648438 C 276.273438 204.347656 275.519531 204.710938 274.820312 204.480469 L 260.070312 199.53125 C 259.371094 199.304688 259.007812 198.550781 259.238281 197.851562 C 259.464844 197.152344 260.21875 196.789062 260.917969 197.015625 L 275.667969 201.964844 C 276.355469 202.207031 276.730469 202.960938 276.503906 203.648438 Z M 255.992188 139.90625 L 268.535156 140.308594 C 269.261719 140.335938 269.839844 140.941406 269.8125 141.679688 C 269.789062 142.40625 269.183594 142.984375 268.441406 142.957031 L 255.898438 142.554688 C 255.765625 142.554688 255.644531 142.527344 255.523438 142.488281 C 254.984375 142.3125 254.609375 141.789062 254.621094 141.195312 C 254.648438 140.457031 255.265625 139.878906 255.992188 139.90625 Z M 254.378906 197.433594 C 254.191406 198.144531 253.464844 198.5625 252.75 198.363281 L 239.722656 194.851562 C 239.695312 194.835938 239.671875 194.835938 239.644531 194.824219 C 238.984375 194.609375 238.605469 193.910156 238.78125 193.222656 C 238.96875 192.511719 239.695312 192.09375 240.410156 192.296875 L 253.4375 195.804688 C 254.136719 195.996094 254.566406 196.734375 254.378906 197.433594 Z M 225.339844 140.402344 L 244.246094 138.789062 C 244.972656 138.722656 245.617188 139.273438 245.671875 140 C 245.738281 140.726562 245.1875 141.371094 244.460938 141.425781 L 225.554688 143.039062 C 225.363281 143.054688 225.191406 143.027344 225.015625 142.972656 C 224.53125 142.8125 224.167969 142.367188 224.113281 141.828125 C 224.074219 141.101562 224.613281 140.46875 225.339844 140.402344 Z M 196.269531 142.769531 L 216.429688 140.539062 C 217.15625 140.457031 217.816406 140.980469 217.894531 141.707031 C 217.976562 142.433594 217.453125 143.09375 216.726562 143.175781 L 196.566406 145.40625 C 196.363281 145.433594 196.175781 145.40625 196 145.351562 C 195.53125 145.191406 195.167969 144.773438 195.113281 144.25 C 195.019531 143.511719 195.542969 142.851562 196.269531 142.769531 Z M 189.527344 186.6875 L 206.980469 187.359375 C 207.710938 187.386719 208.289062 188.003906 208.261719 188.730469 C 208.234375 189.457031 207.613281 190.035156 206.886719 190.007812 L 189.433594 189.335938 C 189.300781 189.335938 189.179688 189.308594 189.058594 189.269531 C 188.519531 189.082031 188.128906 188.570312 188.15625 187.964844 C 188.183594 187.222656 188.800781 186.660156 189.527344 186.6875 Z M 170.714844 147.910156 L 186.257812 145.164062 C 186.972656 145.042969 187.671875 145.515625 187.792969 146.242188 C 187.925781 146.96875 187.441406 147.652344 186.714844 147.773438 L 171.171875 150.519531 C 170.945312 150.558594 170.730469 150.546875 170.527344 150.464844 C 170.082031 150.316406 169.734375 149.941406 169.636719 149.441406 C 169.515625 148.730469 169.988281 148.042969 170.714844 147.910156 Z M 165.414062 186.203125 L 182.867188 186.765625 C 183.59375 186.792969 184.171875 187.398438 184.144531 188.140625 C 184.117188 188.867188 183.511719 189.445312 182.773438 189.417969 L 165.320312 188.851562 C 165.183594 188.851562 165.0625 188.824219 164.941406 188.785156 C 164.402344 188.609375 164.027344 188.085938 164.039062 187.492188 C 164.066406 186.753906 164.671875 186.175781 165.414062 186.203125 Z M 145.414062 152.792969 L 161.121094 148.890625 C 161.832031 148.714844 162.546875 149.144531 162.722656 149.859375 C 162.898438 150.570312 162.464844 151.285156 161.753906 151.460938 L 146.046875 155.359375 C 145.792969 155.425781 145.535156 155.414062 145.308594 155.332031 C 144.890625 155.199219 144.554688 154.847656 144.445312 154.390625 C 144.273438 153.691406 144.703125 152.964844 145.414062 152.792969 Z M 144.636719 188.90625 L 158.898438 186.671875 C 159.625 186.566406 160.300781 187.050781 160.40625 187.777344 C 160.515625 188.503906 160.03125 189.175781 159.304688 189.28125 L 145.039062 191.515625 C 144.824219 191.542969 144.609375 191.527344 144.40625 191.460938 C 143.949219 191.3125 143.597656 190.910156 143.519531 190.414062 C 143.425781 189.699219 143.921875 189.027344 144.636719 188.90625 Z M 119.242188 161.613281 L 133.492188 155.832031 C 134.179688 155.5625 134.945312 155.886719 135.214844 156.558594 C 135.484375 157.230469 135.160156 158.011719 134.488281 158.277344 L 120.238281 164.0625 C 119.925781 164.183594 119.605469 164.183594 119.320312 164.089844 C 118.972656 163.96875 118.664062 163.699219 118.515625 163.335938 C 118.230469 162.664062 118.570312 161.882812 119.242188 161.613281 Z M 118.042969 190.0625 L 135.417969 188.164062 C 136.144531 188.085938 136.804688 188.609375 136.882812 189.335938 C 136.964844 190.0625 136.441406 190.722656 135.714844 190.800781 L 118.324219 192.699219 C 118.125 192.726562 117.9375 192.699219 117.761719 192.644531 C 117.289062 192.484375 116.925781 192.066406 116.859375 191.527344 C 116.792969 190.800781 117.316406 190.144531 118.042969 190.0625 Z M 73.070312 183.632812 L 83.308594 177.929688 C 83.957031 177.582031 84.75 177.808594 85.113281 178.441406 C 85.464844 179.074219 85.234375 179.878906 84.601562 180.242188 L 74.363281 185.945312 C 74.023438 186.136719 73.632812 186.160156 73.296875 186.039062 C 73.003906 185.933594 72.734375 185.730469 72.558594 185.4375 C 72.195312 184.789062 72.421875 183.984375 73.070312 183.632812 Z M 54.285156 196.910156 L 64.632812 189.324219 C 65.222656 188.890625 66.042969 189.011719 66.488281 189.605469 C 66.917969 190.195312 66.796875 191.015625 66.207031 191.460938 L 55.859375 199.046875 C 55.496094 199.316406 55.050781 199.371094 54.648438 199.234375 C 54.390625 199.15625 54.175781 198.992188 54 198.765625 C 53.554688 198.171875 53.691406 197.339844 54.285156 196.910156 Z M 59.800781 204.160156 L 45.117188 210.46875 C 44.808594 210.601562 44.472656 210.601562 44.175781 210.507812 C 43.828125 210.386719 43.53125 210.128906 43.382812 209.78125 C 43.101562 209.109375 43.410156 208.328125 44.082031 208.046875 L 58.765625 201.738281 C 59.4375 201.441406 60.21875 201.765625 60.5 202.4375 C 60.78125 203.097656 60.472656 203.875 59.800781 204.160156 Z M 86.121094 197.015625 L 67.402344 201.65625 C 67.148438 201.722656 66.894531 201.710938 66.664062 201.628906 C 66.246094 201.496094 65.910156 201.144531 65.800781 200.6875 C 65.628906 199.976562 66.058594 199.261719 66.773438 199.085938 L 85.492188 194.449219 C 86.203125 194.273438 86.917969 194.703125 87.09375 195.414062 C 87.265625 196.128906 86.824219 196.839844 86.121094 197.015625 Z M 94.480469 175.09375 C 94.15625 174.984375 93.875 174.753906 93.714844 174.417969 C 93.390625 173.761719 93.660156 172.96875 94.320312 172.644531 L 109.066406 165.367188 C 109.726562 165.042969 110.519531 165.3125 110.84375 165.972656 C 111.167969 166.632812 110.898438 167.425781 110.238281 167.75 L 95.488281 175.023438 C 95.152344 175.1875 94.804688 175.199219 94.480469 175.09375 Z M 97.777344 195.671875 C 97.320312 195.523438 96.957031 195.121094 96.890625 194.609375 C 96.78125 193.882812 97.277344 193.210938 98.003906 193.101562 L 110.398438 191.300781 C 111.125 191.191406 111.800781 191.691406 111.90625 192.417969 C 112.015625 193.144531 111.515625 193.816406 110.789062 193.921875 L 98.394531 195.726562 C 98.179688 195.753906 97.964844 195.738281 97.777344 195.671875 Z M 97.777344 195.671875 " fill-opacity="1" fill-rule="nonzero"/><g clip-path="url(#id1)"><path fill="#231f20" d="M 292.757812 94.617188 C 292.207031 93.972656 291.347656 93.691406 290.523438 93.90625 C 289.703125 94.121094 289.070312 94.777344 288.910156 95.601562 L 288.789062 96.179688 L 266.71875 113.945312 C 266.449219 114.160156 266.273438 114.46875 266.234375 114.808594 L 264.175781 130.828125 C 245.941406 129.589844 216.5625 129.039062 183.582031 134.054688 C 151.417969 138.9375 122.148438 148.070312 96.566406 161.183594 C 64.539062 177.605469 38.28125 200.367188 18.515625 228.828125 C 18.296875 229.121094 18.175781 229.472656 18.136719 229.808594 L 1.652344 259.925781 C 1.382812 260.421875 1.449219 261.027344 1.828125 261.445312 C 1.988281 261.621094 2.175781 261.742188 2.378906 261.808594 C 2.675781 261.914062 3.011719 261.902344 3.320312 261.765625 C 80.242188 228.785156 141.660156 222.410156 179.636719 222.882812 C 216.253906 223.339844 238.714844 230.050781 243.371094 231.585938 L 241.417969 279.816406 C 241.417969 279.832031 241.417969 279.84375 241.417969 279.859375 C 241.417969 279.9375 241.417969 280.019531 241.445312 280.101562 C 241.445312 280.128906 241.460938 280.167969 241.472656 280.195312 C 241.488281 280.261719 241.511719 280.328125 241.539062 280.394531 C 241.554688 280.421875 241.566406 280.449219 241.582031 280.476562 C 241.621094 280.558594 241.675781 280.636719 241.730469 280.707031 C 241.730469 280.707031 241.742188 280.71875 241.742188 280.71875 C 241.796875 280.785156 241.863281 280.851562 241.945312 280.90625 C 241.957031 280.90625 241.957031 280.921875 241.972656 280.921875 C 241.984375 280.933594 241.984375 280.933594 242 280.949219 C 242.09375 281.015625 242.199219 281.070312 242.320312 281.109375 C 242.320312 281.109375 242.320312 281.109375 242.335938 281.109375 C 242.347656 281.109375 242.375 281.109375 242.386719 281.121094 C 242.496094 281.148438 242.589844 281.175781 242.699219 281.175781 C 242.738281 281.175781 242.777344 281.175781 242.820312 281.175781 C 242.898438 281.175781 242.992188 281.164062 243.074219 281.136719 C 243.113281 281.121094 243.167969 281.109375 243.210938 281.09375 C 243.234375 281.082031 243.261719 281.082031 243.289062 281.070312 L 280.726562 264.847656 L 357.097656 231.757812 C 357.421875 231.625 357.664062 231.355469 357.796875 231.046875 L 372.707031 194.109375 L 373.246094 193.816406 C 373.824219 193.492188 374.230469 192.925781 374.351562 192.28125 C 374.472656 191.636719 374.296875 190.964844 373.867188 190.453125 Z M 268.804688 115.667969 L 287.980469 100.238281 L 286.328125 108.390625 L 268.210938 120.28125 Z M 267.769531 123.738281 L 285.585938 112.050781 L 283.191406 123.84375 L 267.082031 129.144531 Z M 282.585938 126.832031 L 281.441406 132.496094 C 279.125 132.183594 274.941406 131.6875 269.261719 131.214844 Z M 98.53125 165.140625 C 123.65625 152.238281 152.453125 143.253906 184.117188 138.441406 C 238.164062 130.207031 282.382812 137.082031 282.828125 137.148438 C 284 137.335938 285.101562 136.570312 285.34375 135.414062 L 292.328125 100.953125 L 368.75 191.257812 L 267.257812 247.144531 L 273.152344 211.785156 C 273.328125 210.722656 272.722656 209.699219 271.710938 209.335938 C 207.15625 186.539062 141.957031 192.875 98.652344 202.179688 C 65.128906 209.390625 39.171875 219.464844 26.976562 224.683594 C 45.710938 199.921875 69.730469 179.921875 98.53125 165.140625 Z M 245.417969 247.011719 L 245.660156 240.917969 L 266.597656 224.28125 L 265.238281 232.429688 Z M 264.621094 236.183594 L 263.125 245.15625 L 244.957031 258.59375 L 245.296875 250.402344 Z M 245.804688 237.433594 L 246.023438 232.203125 L 268.089844 215.390625 L 267.257812 220.378906 Z M 5.808594 257.851562 L 19.859375 232.214844 C 20.34375 232.324219 20.855469 232.285156 21.328125 232.054688 C 21.40625 232.015625 23.558594 230.964844 27.476562 229.269531 L 15.285156 253.980469 C 12.148438 255.230469 9 256.507812 5.808594 257.851562 Z M 18.945312 252.527344 L 31.203125 227.683594 C 33.4375 226.753906 36.035156 225.707031 38.957031 224.5625 L 28.660156 248.828125 C 25.457031 250.011719 22.226562 251.234375 18.945312 252.527344 Z M 32.078125 247.578125 L 42.402344 223.257812 C 44.675781 222.398438 47.125 221.511719 49.722656 220.59375 L 40.730469 244.535156 C 37.878906 245.503906 34.984375 246.527344 32.078125 247.578125 Z M 43.960938 243.449219 L 52.964844 219.464844 C 56.597656 218.214844 60.5 216.9375 64.644531 215.660156 L 55.441406 239.761719 C 51.671875 240.917969 47.835938 242.144531 43.960938 243.449219 Z M 58.65625 238.765625 L 67.863281 214.664062 C 70.808594 213.777344 73.875 212.902344 77.039062 212.027344 L 66.140625 236.574219 C 63.675781 237.273438 61.171875 238 58.65625 238.765625 Z M 69.449219 235.644531 L 80.335938 211.125 C 83.457031 210.292969 86.6875 209.472656 90 208.679688 L 77.753906 233.425781 C 75.007812 234.140625 72.234375 234.878906 69.449219 235.644531 Z M 81.117188 232.578125 L 93.335938 207.882812 C 95.394531 207.414062 97.480469 206.929688 99.59375 206.484375 C 100.105469 206.378906 100.644531 206.269531 101.15625 206.164062 L 90.039062 230.453125 C 87.117188 231.113281 84.132812 231.839844 81.117188 232.578125 Z M 93.296875 229.726562 L 104.382812 205.488281 C 107.640625 204.832031 111.019531 204.199219 114.492188 203.59375 L 102.273438 227.84375 C 99.324219 228.4375 96.324219 229.070312 93.296875 229.726562 Z M 105.554688 227.210938 L 117.734375 203.042969 C 120.101562 202.652344 122.496094 202.277344 124.945312 201.914062 L 114.613281 225.585938 C 111.636719 226.082031 108.625 226.621094 105.554688 227.210938 Z M 117.71875 225.074219 L 128.015625 201.496094 C 130.449219 201.160156 132.925781 200.835938 135.445312 200.539062 L 126.332031 223.78125 C 123.519531 224.171875 120.652344 224.601562 117.71875 225.074219 Z M 129.347656 223.378906 L 138.429688 200.203125 C 141.269531 199.894531 144.164062 199.613281 147.085938 199.371094 L 134.972656 222.679688 C 133.128906 222.894531 131.257812 223.125 129.347656 223.378906 Z M 138.164062 222.316406 L 150.21875 199.113281 C 153.019531 198.898438 155.859375 198.726562 158.738281 198.578125 L 147.664062 221.414062 C 144.566406 221.671875 141.40625 221.96875 138.164062 222.316406 Z M 150.703125 221.1875 L 161.738281 198.441406 C 165.414062 198.28125 169.128906 198.1875 172.894531 198.160156 L 160.3125 220.609375 C 157.21875 220.742188 154.015625 220.945312 150.703125 221.1875 Z M 163.421875 220.472656 L 175.9375 198.132812 C 178.65625 198.132812 181.386719 198.171875 184.144531 198.242188 L 172.773438 220.246094 C 169.785156 220.273438 166.664062 220.351562 163.421875 220.472656 Z M 179.851562 220.246094 C 178.519531 220.230469 177.160156 220.21875 175.773438 220.21875 L 187.09375 198.308594 C 190.539062 198.429688 194.007812 198.605469 197.507812 198.84375 L 180.363281 220.246094 C 180.1875 220.257812 180.027344 220.257812 179.851562 220.246094 Z M 183.703125 220.324219 L 200.710938 199.085938 C 203.484375 199.304688 206.269531 199.558594 209.066406 199.855469 L 194.980469 220.824219 C 191.371094 220.59375 187.605469 220.433594 183.703125 220.324219 Z M 198.035156 221.039062 L 212.027344 200.191406 C 216.121094 200.675781 220.238281 201.238281 224.367188 201.898438 L 206.980469 221.847656 C 204.117188 221.535156 201.140625 221.269531 198.035156 221.039062 Z M 210.183594 222.210938 L 227.464844 202.410156 C 230.332031 202.90625 233.195312 203.460938 236.078125 204.050781 L 219.914062 223.539062 C 216.875 223.070312 213.628906 222.613281 210.183594 222.210938 Z M 222.941406 224.039062 L 239.011719 204.65625 C 241.808594 205.261719 244.621094 205.933594 247.449219 206.648438 L 228.433594 225.0625 C 226.695312 224.710938 224.867188 224.375 222.941406 224.039062 Z M 231.570312 225.707031 L 250.460938 207.414062 C 252.359375 207.910156 254.257812 208.4375 256.167969 208.988281 L 238.726562 227.429688 C 236.65625 226.863281 234.261719 226.285156 231.570312 225.707031 Z M 241.609375 228.234375 L 259.007812 209.835938 C 261.820312 210.683594 264.648438 211.582031 267.460938 212.539062 L 245.269531 229.445312 C 245.253906 229.433594 245.242188 229.433594 245.226562 229.417969 C 244.246094 229.054688 243.035156 228.652344 241.609375 228.234375 Z M 244.8125 261.996094 L 262.492188 248.921875 L 262.15625 250.914062 C 262.101562 251.234375 262.144531 251.558594 262.222656 251.867188 L 244.246094 275.703125 Z M 246.84375 276.671875 L 264.351562 253.46875 C 264.714844 253.46875 265.078125 253.386719 265.414062 253.210938 L 273.285156 248.882812 L 261.671875 270.253906 Z M 279.222656 262.628906 L 265.617188 268.519531 L 277.59375 246.488281 L 289.757812 239.789062 Z M 282.867188 261.054688 L 293.660156 237.648438 L 301.628906 233.265625 L 293.890625 256.292969 Z M 297.144531 254.867188 L 305.046875 231.367188 L 314.667969 226.070312 L 305.421875 251.277344 Z M 308.773438 249.824219 L 318.191406 224.132812 L 327.558594 218.96875 L 318.609375 245.558594 Z M 321.90625 244.132812 L 331.003906 217.070312 L 341.621094 211.21875 L 332.027344 239.734375 Z M 335.308594 238.335938 L 345.066406 209.351562 L 355.050781 203.847656 L 344.839844 234.207031 Z M 355.550781 229.566406 L 348.109375 232.792969 L 358.484375 201.964844 L 369.046875 196.15625 Z M 355.550781 229.566406 " fill-opacity="1" fill-rule="nonzero"/></g><path fill="#2bccca" d="M 80.335938 211.125 L 69.449219 235.644531 C 72.25 234.878906 75.019531 234.125 77.753906 233.425781 L 90 208.679688 C 86.675781 209.484375 83.457031 210.292969 80.335938 211.125 Z M 80.335938 211.125 " fill-opacity="1" fill-rule="nonzero"/><path fill="#2bccca" d="M 104.382812 205.492188 L 93.296875 229.726562 C 96.335938 229.054688 99.324219 228.421875 102.273438 227.84375 L 114.492188 203.59375 C 111.019531 204.199219 107.640625 204.832031 104.382812 205.492188 Z M 104.382812 205.492188 " fill-opacity="1" fill-rule="nonzero"/><path fill="#2bccca" d="M 161.738281 198.441406 L 150.703125 221.1875 C 154 220.945312 157.21875 220.742188 160.3125 220.59375 L 172.894531 198.144531 C 169.128906 198.1875 165.398438 198.28125 161.738281 198.441406 Z M 161.738281 198.441406 " fill-opacity="1" fill-rule="nonzero"/><path fill="#2bccca" d="M 67.863281 214.664062 L 58.65625 238.765625 C 61.171875 238.011719 63.675781 237.273438 66.140625 236.574219 L 77.039062 212.027344 C 73.875 212.902344 70.808594 213.777344 67.863281 214.664062 Z M 67.863281 214.664062 " fill-opacity="1" fill-rule="nonzero"/><path fill="#2bccca" d="M 52.964844 219.464844 L 43.960938 243.449219 C 47.835938 242.15625 51.660156 240.917969 55.441406 239.75 L 64.644531 215.644531 C 60.5 216.9375 56.609375 218.214844 52.964844 219.464844 Z M 52.964844 219.464844 " fill-opacity="1" fill-rule="nonzero"/><path fill="#2bccca" d="M 138.429688 200.203125 L 129.347656 223.378906 C 131.246094 223.125 133.128906 222.894531 134.972656 222.679688 L 147.085938 199.371094 C 144.164062 199.625 141.269531 199.894531 138.429688 200.203125 Z M 138.429688 200.203125 " fill-opacity="1" fill-rule="nonzero"/><path fill="#2bccca" d="M 150.207031 199.113281 L 138.148438 222.316406 C 141.390625 221.96875 144.554688 221.671875 147.636719 221.414062 L 158.710938 198.578125 C 155.859375 198.738281 153.003906 198.914062 150.207031 199.113281 Z M 150.207031 199.113281 " fill-opacity="1" fill-rule="nonzero"/><path fill="#2bccca" d="M 128.027344 201.496094 L 117.734375 225.074219 C 120.667969 224.601562 123.535156 224.1875 126.359375 223.796875 L 135.46875 200.554688 C 132.941406 200.835938 130.464844 201.160156 128.027344 201.496094 Z M 128.027344 201.496094 " fill-opacity="1" fill-rule="nonzero"/><path fill="#2bccca" d="M 117.734375 203.042969 L 105.554688 227.210938 C 108.625 226.632812 111.652344 226.082031 114.613281 225.585938 L 124.945312 201.914062 C 122.496094 202.277344 120.101562 202.652344 117.734375 203.042969 Z M 117.734375 203.042969 " fill-opacity="1" fill-rule="nonzero"/><path fill="#2bccca" d="M 99.59375 206.484375 C 97.46875 206.941406 95.394531 207.414062 93.335938 207.882812 L 81.117188 232.578125 C 84.132812 231.828125 87.117188 231.113281 90.050781 230.441406 L 101.167969 206.148438 C 100.644531 206.269531 100.117188 206.378906 99.59375 206.484375 Z M 99.59375 206.484375 " fill-opacity="1" fill-rule="nonzero"/><path fill="#2bccca" d="M 282.585938 126.832031 L 269.261719 131.214844 C 274.941406 131.6875 279.125 132.183594 281.441406 132.496094 Z M 282.585938 126.832031 " fill-opacity="1" fill-rule="nonzero"/><path fill="#2bccca" d="M 266.597656 224.28125 L 245.671875 240.933594 L 245.417969 247.011719 L 265.238281 232.429688 Z M 266.597656 224.28125 " fill-opacity="1" fill-rule="nonzero"/><path fill="#2bccca" d="M 287.980469 100.238281 L 268.804688 115.667969 L 268.210938 120.28125 L 286.328125 108.390625 Z M 287.980469 100.238281 " fill-opacity="1" fill-rule="nonzero"/><path fill="#2bccca" d="M 31.21875 227.683594 L 18.957031 252.527344 C 22.226562 251.25 25.472656 250.023438 28.675781 248.828125 L 38.96875 224.5625 C 36.046875 225.691406 33.453125 226.742188 31.21875 227.683594 Z M 31.21875 227.683594 " fill-opacity="1" fill-rule="nonzero"/><path fill="#2bccca" d="M 21.328125 232.054688 C 20.855469 232.285156 20.34375 232.324219 19.859375 232.214844 L 5.808594 257.851562 C 9 256.507812 12.148438 255.230469 15.269531 253.980469 L 27.464844 229.269531 C 23.558594 230.964844 21.40625 232.015625 21.328125 232.054688 Z M 21.328125 232.054688 " fill-opacity="1" fill-rule="nonzero"/><path fill="#2bccca" d="M 244.945312 258.59375 L 263.125 245.15625 L 264.621094 236.183594 L 245.28125 250.402344 Z M 244.945312 258.59375 " fill-opacity="1" fill-rule="nonzero"/><path fill="#2bccca" d="M 42.402344 223.257812 L 32.078125 247.578125 C 34.984375 246.527344 37.878906 245.503906 40.730469 244.523438 L 49.722656 220.582031 C 47.125 221.511719 44.675781 222.398438 42.402344 223.257812 Z M 42.402344 223.257812 " fill-opacity="1" fill-rule="nonzero"/><path fill="#2bccca" d="M 268.089844 215.390625 L 246.023438 232.191406 L 245.804688 237.433594 L 267.257812 220.378906 Z M 268.089844 215.390625 " fill-opacity="1" fill-rule="nonzero"/><path fill="#2bccca" d="M 285.585938 112.050781 L 267.769531 123.738281 L 267.070312 129.144531 L 283.191406 123.84375 Z M 285.585938 112.050781 " fill-opacity="1" fill-rule="nonzero"/><path fill="#2bccca" d="M 318.207031 224.132812 L 308.773438 249.824219 L 318.636719 245.558594 L 327.574219 218.96875 Z M 318.207031 224.132812 " fill-opacity="1" fill-rule="nonzero"/><path fill="#2bccca" d="M 293.660156 237.648438 L 282.867188 261.054688 L 293.875 256.28125 L 301.613281 233.265625 Z M 293.660156 237.648438 " fill-opacity="1" fill-rule="nonzero"/><path fill="#2bccca" d="M 305.046875 231.367188 L 297.144531 254.867188 L 305.421875 251.277344 L 314.667969 226.082031 Z M 305.046875 231.367188 " fill-opacity="1" fill-rule="nonzero"/><path fill="#2bccca" d="M 277.578125 246.5 L 265.617188 268.53125 L 279.222656 262.628906 L 289.746094 239.800781 Z M 277.578125 246.5 " fill-opacity="1" fill-rule="nonzero"/><path fill="#2bccca" d="M 265.398438 253.199219 C 265.0625 253.386719 264.699219 253.453125 264.335938 253.453125 L 246.828125 276.65625 L 261.660156 270.226562 L 273.273438 248.855469 Z M 265.398438 253.199219 " fill-opacity="1" fill-rule="nonzero"/><path fill="#2bccca" d="M 331.003906 217.085938 L 321.90625 244.132812 L 332.039062 239.75 L 341.621094 211.234375 Z M 331.003906 217.085938 " fill-opacity="1" fill-rule="nonzero"/><path fill="#2bccca" d="M 348.109375 232.78125 L 355.550781 229.566406 L 369.035156 196.140625 L 358.46875 201.953125 Z M 348.109375 232.78125 " fill-opacity="1" fill-rule="nonzero"/><path fill="#2bccca" d="M 345.054688 209.351562 L 335.308594 238.335938 L 344.839844 234.207031 L 355.050781 203.847656 Z M 345.054688 209.351562 " fill-opacity="1" fill-rule="nonzero"/><path fill="#2bccca" d="M 239.011719 204.65625 L 222.941406 224.039062 C 224.867188 224.375 226.695312 224.710938 228.433594 225.046875 L 247.449219 206.632812 C 244.621094 205.933594 241.808594 205.261719 239.011719 204.65625 Z M 239.011719 204.65625 " fill-opacity="1" fill-rule="nonzero"/><path fill="#2bccca" d="M 187.09375 198.320312 L 175.773438 220.230469 C 177.160156 220.230469 178.535156 220.230469 179.851562 220.257812 C 180.027344 220.257812 180.1875 220.257812 180.363281 220.273438 L 197.507812 198.871094 C 194.007812 198.617188 190.523438 198.441406 187.09375 198.320312 Z M 187.09375 198.320312 " fill-opacity="1" fill-rule="nonzero"/><path fill="#2bccca" d="M 212.027344 200.191406 L 198.035156 221.039062 C 201.140625 221.269531 204.117188 221.535156 206.980469 221.847656 L 224.382812 201.914062 C 220.238281 201.238281 216.121094 200.675781 212.027344 200.191406 Z M 212.027344 200.191406 " fill-opacity="1" fill-rule="nonzero"/><path fill="#2bccca" d="M 200.710938 199.085938 L 183.703125 220.324219 C 187.605469 220.421875 191.371094 220.59375 194.992188 220.824219 L 209.082031 199.855469 C 206.269531 199.558594 203.484375 199.316406 200.710938 199.085938 Z M 200.710938 199.085938 " fill-opacity="1" fill-rule="nonzero"/><path fill="#2bccca" d="M 262.15625 250.914062 L 262.492188 248.921875 L 244.8125 261.996094 L 244.257812 275.703125 L 262.238281 251.867188 C 262.144531 251.558594 262.101562 251.234375 262.15625 250.914062 Z M 262.15625 250.914062 " fill-opacity="1" fill-rule="nonzero"/><path fill="#2bccca" d="M 227.464844 202.410156 L 210.183594 222.210938 C 213.628906 222.613281 216.875 223.070312 219.914062 223.554688 L 236.078125 204.066406 C 233.195312 203.460938 230.316406 202.90625 227.464844 202.410156 Z M 227.464844 202.410156 " fill-opacity="1" fill-rule="nonzero"/><path fill="#2bccca" d="M 245.269531 229.445312 L 267.460938 212.539062 C 264.648438 211.582031 261.820312 210.683594 259.007812 209.835938 L 241.609375 228.234375 C 243.035156 228.664062 244.246094 229.054688 245.226562 229.417969 C 245.242188 229.417969 245.242188 229.433594 245.269531 229.445312 Z M 245.269531 229.445312 " fill-opacity="1" fill-rule="nonzero"/><path fill="#2bccca" d="M 175.9375 198.132812 L 163.421875 220.472656 C 166.664062 220.351562 169.785156 220.273438 172.773438 220.246094 L 184.144531 198.242188 C 181.386719 198.171875 178.65625 198.132812 175.9375 198.132812 Z M 175.9375 198.132812 " fill-opacity="1" fill-rule="nonzero"/><path fill="#2bccca" d="M 250.460938 207.414062 L 231.570312 225.707031 C 234.261719 226.285156 236.65625 226.863281 238.726562 227.429688 L 256.167969 208.988281 C 254.257812 208.4375 252.359375 207.910156 250.460938 207.414062 Z M 250.460938 207.414062 " fill-opacity="1" fill-rule="nonzero"/><path fill="#2bccca" d="M 292.046875 122.015625 C 292.097656 122.03125 292.167969 122.058594 292.21875 122.058594 C 292.933594 122.191406 293.632812 121.71875 293.769531 120.996094 L 295.867188 109.75 C 296 109.035156 295.542969 108.351562 294.804688 108.203125 C 294.089844 108.066406 293.390625 108.539062 293.257812 109.265625 L 291.15625 120.511719 C 291.050781 121.183594 291.425781 121.816406 292.046875 122.015625 Z M 292.046875 122.015625 " fill-opacity="1" fill-rule="nonzero"/><path fill="#2bccca" d="M 289.664062 137.847656 C 289.730469 137.875 289.796875 137.886719 289.867188 137.902344 C 290.59375 138.023438 291.265625 137.539062 291.398438 136.8125 L 293.082031 126.9375 C 293.203125 126.214844 292.71875 125.539062 292.003906 125.40625 C 291.277344 125.285156 290.605469 125.769531 290.472656 126.496094 L 288.789062 136.367188 C 288.679688 137.027344 289.058594 137.644531 289.664062 137.847656 Z M 289.664062 137.847656 " fill-opacity="1" fill-rule="nonzero"/><path fill="#2bccca" d="M 278.425781 144.976562 C 278.546875 145.015625 278.667969 145.042969 278.804688 145.042969 L 287.539062 145.378906 C 288.265625 145.40625 288.882812 144.84375 288.910156 144.101562 C 288.9375 143.375 288.359375 142.757812 287.632812 142.730469 L 278.898438 142.394531 C 278.171875 142.367188 277.550781 142.933594 277.523438 143.671875 C 277.5 144.277344 277.886719 144.800781 278.425781 144.976562 Z M 278.425781 144.976562 " fill-opacity="1" fill-rule="nonzero"/><path fill="#2bccca" d="M 255.523438 142.488281 C 255.644531 142.527344 255.765625 142.554688 255.898438 142.554688 L 268.441406 142.957031 C 269.167969 142.984375 269.789062 142.40625 269.8125 141.679688 C 269.839844 140.953125 269.261719 140.335938 268.535156 140.308594 L 255.992188 139.90625 C 255.265625 139.878906 254.648438 140.457031 254.621094 141.183594 C 254.609375 141.789062 254.984375 142.300781 255.523438 142.488281 Z M 255.523438 142.488281 " fill-opacity="1" fill-rule="nonzero"/><path fill="#2bccca" d="M 225.027344 142.972656 C 225.191406 143.027344 225.378906 143.054688 225.566406 143.039062 L 244.472656 141.425781 C 245.199219 141.359375 245.738281 140.726562 245.683594 140 C 245.617188 139.273438 244.984375 138.734375 244.257812 138.789062 L 225.351562 140.402344 C 224.625 140.46875 224.085938 141.101562 224.140625 141.828125 C 224.179688 142.378906 224.542969 142.8125 225.027344 142.972656 Z M 225.027344 142.972656 " fill-opacity="1" fill-rule="nonzero"/><path fill="#2bccca" d="M 195.988281 145.339844 C 196.164062 145.394531 196.351562 145.421875 196.554688 145.394531 L 216.710938 143.160156 C 217.4375 143.078125 217.964844 142.421875 217.882812 141.695312 C 217.800781 140.96875 217.140625 140.445312 216.414062 140.523438 L 196.257812 142.757812 C 195.53125 142.835938 195.003906 143.496094 195.085938 144.222656 C 195.152344 144.761719 195.515625 145.179688 195.988281 145.339844 Z M 195.988281 145.339844 " fill-opacity="1" fill-rule="nonzero"/><path fill="#2bccca" d="M 170.527344 150.464844 C 170.730469 150.53125 170.957031 150.558594 171.171875 150.519531 L 186.714844 147.773438 C 187.441406 147.652344 187.914062 146.96875 187.792969 146.242188 C 187.671875 145.527344 186.972656 145.042969 186.257812 145.164062 L 170.714844 147.910156 C 169.988281 148.03125 169.515625 148.714844 169.636719 149.441406 C 169.734375 149.941406 170.082031 150.316406 170.527344 150.464844 Z M 170.527344 150.464844 " fill-opacity="1" fill-rule="nonzero"/><path fill="#2bccca" d="M 145.320312 155.332031 C 145.550781 155.414062 145.804688 155.425781 146.0625 155.359375 L 161.765625 151.460938 C 162.480469 151.285156 162.910156 150.558594 162.734375 149.859375 C 162.558594 149.144531 161.832031 148.714844 161.132812 148.890625 L 145.429688 152.792969 C 144.714844 152.964844 144.285156 153.691406 144.460938 154.390625 C 144.566406 154.847656 144.902344 155.199219 145.320312 155.332031 Z M 145.320312 155.332031 " fill-opacity="1" fill-rule="nonzero"/><path fill="#2bccca" d="M 119.320312 164.089844 C 119.605469 164.183594 119.941406 164.183594 120.238281 164.0625 L 134.488281 158.277344 C 135.160156 158.011719 135.496094 157.230469 135.214844 156.558594 C 134.945312 155.886719 134.164062 155.546875 133.492188 155.832031 L 119.242188 161.613281 C 118.570312 161.882812 118.230469 162.664062 118.515625 163.335938 C 118.664062 163.714844 118.972656 163.980469 119.320312 164.089844 Z M 119.320312 164.089844 " fill-opacity="1" fill-rule="nonzero"/><path fill="#2bccca" d="M 110.84375 165.972656 C 110.519531 165.3125 109.726562 165.042969 109.066406 165.367188 L 94.320312 172.644531 C 93.660156 172.96875 93.390625 173.761719 93.714844 174.417969 C 93.875 174.742188 94.15625 174.984375 94.480469 175.09375 C 94.804688 175.199219 95.167969 175.1875 95.488281 175.023438 L 110.238281 167.75 C 110.898438 167.425781 111.167969 166.632812 110.84375 165.972656 Z M 110.84375 165.972656 " fill-opacity="1" fill-rule="nonzero"/><path fill="#2bccca" d="M 73.285156 186.039062 C 73.621094 186.160156 74.011719 186.136719 74.347656 185.945312 L 84.589844 180.242188 C 85.222656 179.894531 85.464844 179.085938 85.101562 178.441406 C 84.738281 177.808594 83.941406 177.582031 83.296875 177.929688 L 73.054688 183.632812 C 72.421875 183.984375 72.179688 184.789062 72.542969 185.433594 C 72.71875 185.730469 72.988281 185.945312 73.285156 186.039062 Z M 73.285156 186.039062 " fill-opacity="1" fill-rule="nonzero"/><path fill="#2bccca" d="M 54.632812 199.234375 C 55.023438 199.371094 55.480469 199.316406 55.84375 199.046875 L 66.191406 191.460938 C 66.785156 191.03125 66.90625 190.195312 66.476562 189.605469 C 66.042969 189.011719 65.210938 188.890625 64.617188 189.324219 L 54.269531 196.910156 C 53.675781 197.339844 53.554688 198.171875 53.988281 198.765625 C 54.160156 198.992188 54.390625 199.15625 54.632812 199.234375 Z M 54.632812 199.234375 " fill-opacity="1" fill-rule="nonzero"/><path fill="#2bccca" d="M 58.765625 201.738281 L 44.070312 208.03125 C 43.394531 208.316406 43.085938 209.09375 43.371094 209.765625 C 43.53125 210.128906 43.828125 210.386719 44.164062 210.492188 C 44.460938 210.589844 44.796875 210.589844 45.105469 210.453125 L 59.789062 204.144531 C 60.460938 203.863281 60.769531 203.082031 60.488281 202.410156 C 60.21875 201.75 59.4375 201.441406 58.765625 201.738281 Z M 58.765625 201.738281 " fill-opacity="1" fill-rule="nonzero"/><path fill="#2bccca" d="M 85.476562 194.449219 L 66.757812 199.101562 C 66.042969 199.277344 65.613281 199.988281 65.789062 200.703125 C 65.898438 201.160156 66.234375 201.496094 66.652344 201.644531 C 66.878906 201.722656 67.136719 201.738281 67.390625 201.671875 L 86.109375 197.03125 C 86.824219 196.855469 87.253906 196.140625 87.078125 195.429688 C 86.902344 194.703125 86.191406 194.273438 85.476562 194.449219 Z M 85.476562 194.449219 " fill-opacity="1" fill-rule="nonzero"/><path fill="#2bccca" d="M 111.90625 192.417969 C 111.800781 191.691406 111.125 191.191406 110.398438 191.300781 L 98.003906 193.101562 C 97.277344 193.210938 96.78125 193.882812 96.890625 194.609375 C 96.957031 195.121094 97.320312 195.523438 97.777344 195.671875 C 97.964844 195.738281 98.179688 195.753906 98.382812 195.726562 L 110.777344 193.921875 C 111.503906 193.816406 112.015625 193.144531 111.90625 192.417969 Z M 111.90625 192.417969 " fill-opacity="1" fill-rule="nonzero"/><path fill="#2bccca" d="M 117.761719 192.644531 C 117.9375 192.699219 118.125 192.726562 118.324219 192.699219 L 135.699219 190.800781 C 136.425781 190.722656 136.949219 190.074219 136.871094 189.335938 C 136.789062 188.609375 136.144531 188.085938 135.402344 188.164062 L 118.03125 190.0625 C 117.304688 190.144531 116.777344 190.789062 116.859375 191.527344 C 116.925781 192.054688 117.289062 192.484375 117.761719 192.644531 Z M 117.761719 192.644531 " fill-opacity="1" fill-rule="nonzero"/><path fill="#2bccca" d="M 144.417969 191.476562 C 144.621094 191.542969 144.824219 191.554688 145.050781 191.527344 L 159.316406 189.296875 C 160.042969 189.1875 160.527344 188.503906 160.421875 187.789062 C 160.3125 187.0625 159.625 186.578125 158.914062 186.6875 L 144.648438 188.917969 C 143.921875 189.027344 143.4375 189.710938 143.546875 190.425781 C 143.613281 190.921875 143.976562 191.328125 144.417969 191.476562 Z M 144.417969 191.476562 " fill-opacity="1" fill-rule="nonzero"/><path fill="#2bccca" d="M 164.941406 188.785156 C 165.0625 188.824219 165.183594 188.851562 165.320312 188.851562 L 182.773438 189.417969 C 183.5 189.445312 184.117188 188.867188 184.144531 188.140625 C 184.171875 187.414062 183.59375 186.792969 182.867188 186.765625 L 165.414062 186.203125 C 164.6875 186.175781 164.066406 186.753906 164.039062 187.480469 C 164.027344 188.085938 164.402344 188.597656 164.941406 188.785156 Z M 164.941406 188.785156 " fill-opacity="1" fill-rule="nonzero"/><path fill="#2bccca" d="M 189.058594 189.253906 C 189.179688 189.296875 189.300781 189.324219 189.433594 189.324219 L 206.886719 189.996094 C 207.613281 190.023438 208.234375 189.457031 208.261719 188.71875 C 208.289062 187.992188 207.710938 187.371094 206.980469 187.34375 L 189.527344 186.671875 C 188.800781 186.644531 188.183594 187.210938 188.15625 187.949219 C 188.128906 188.554688 188.519531 189.082031 189.058594 189.253906 Z M 189.058594 189.253906 " fill-opacity="1" fill-rule="nonzero"/><path fill="#2bccca" d="M 232.523438 190.695312 L 217.519531 187.910156 C 216.804688 187.777344 216.105469 188.246094 215.972656 188.972656 C 215.851562 189.632812 216.242188 190.265625 216.847656 190.464844 C 216.898438 190.480469 216.96875 190.507812 217.019531 190.519531 L 232.027344 193.304688 C 232.738281 193.4375 233.4375 192.96875 233.574219 192.242188 C 233.722656 191.515625 233.25 190.828125 232.523438 190.695312 Z M 232.523438 190.695312 " fill-opacity="1" fill-rule="nonzero"/><path fill="#2bccca" d="M 238.796875 193.238281 C 238.605469 193.921875 238.996094 194.609375 239.65625 194.835938 C 239.683594 194.851562 239.710938 194.851562 239.738281 194.863281 L 252.765625 198.375 C 253.464844 198.5625 254.203125 198.144531 254.390625 197.445312 C 254.582031 196.746094 254.148438 196.007812 253.464844 195.820312 L 240.4375 192.308594 C 239.710938 192.105469 238.984375 192.523438 238.796875 193.238281 Z M 238.796875 193.238281 " fill-opacity="1" fill-rule="nonzero"/><path fill="#2bccca" d="M 259.25 197.851562 C 259.019531 198.550781 259.386719 199.289062 260.085938 199.53125 L 274.832031 204.480469 C 275.535156 204.710938 276.273438 204.347656 276.515625 203.648438 C 276.757812 202.949219 276.382812 202.207031 275.679688 201.964844 L 260.933594 197.015625 C 260.234375 196.789062 259.480469 197.164062 259.25 197.851562 Z M 259.25 197.851562 " fill-opacity="1" fill-rule="nonzero"/><path fill="#2bccca" d="M 279.570312 205.464844 C 278.855469 205.328125 278.15625 205.785156 278.023438 206.511719 L 275.65625 218.710938 C 275.519531 219.371094 275.910156 220.015625 276.53125 220.21875 C 276.582031 220.230469 276.636719 220.257812 276.703125 220.257812 C 277.417969 220.394531 278.117188 219.9375 278.25 219.210938 L 280.621094 207.011719 C 280.753906 206.296875 280.285156 205.597656 279.570312 205.464844 Z M 279.570312 205.464844 " fill-opacity="1" fill-rule="nonzero"/><path fill="#2bccca" d="M 274.832031 224.253906 C 274.105469 224.199219 273.460938 224.738281 273.40625 225.464844 L 272.332031 238.351562 C 272.277344 238.96875 272.667969 239.519531 273.230469 239.707031 C 273.328125 239.734375 273.433594 239.761719 273.542969 239.777344 C 274.269531 239.828125 274.914062 239.292969 274.96875 238.566406 L 276.03125 225.679688 C 276.097656 224.953125 275.558594 224.308594 274.832031 224.253906 Z M 274.832031 224.253906 " fill-opacity="1" fill-rule="nonzero"/><path fill="#2bccca" d="M 290.09375 228.8125 L 279.4375 234.921875 C 278.804688 235.28125 278.589844 236.089844 278.953125 236.722656 C 279.113281 237.019531 279.382812 237.21875 279.679688 237.3125 C 280.027344 237.433594 280.417969 237.410156 280.753906 237.207031 L 291.414062 231.101562 C 292.046875 230.738281 292.261719 229.929688 291.898438 229.296875 C 291.535156 228.664062 290.726562 228.449219 290.09375 228.8125 Z M 290.09375 228.8125 " fill-opacity="1" fill-rule="nonzero"/><path fill="#2bccca" d="M 297.386719 227.226562 C 297.722656 227.347656 298.113281 227.320312 298.449219 227.132812 L 309.324219 221.078125 C 309.957031 220.730469 310.199219 219.921875 309.835938 219.277344 C 309.484375 218.644531 308.679688 218.402344 308.03125 218.765625 L 297.160156 224.820312 C 296.527344 225.167969 296.285156 225.976562 296.648438 226.621094 C 296.824219 226.917969 297.078125 227.117188 297.386719 227.226562 Z M 297.386719 227.226562 " fill-opacity="1" fill-rule="nonzero"/><path fill="#2bccca" d="M 324.4375 208.609375 L 313.898438 214.691406 C 313.265625 215.054688 313.050781 215.859375 313.414062 216.492188 C 313.578125 216.789062 313.847656 216.992188 314.140625 217.085938 C 314.492188 217.207031 314.882812 217.179688 315.230469 216.976562 L 325.769531 210.898438 C 326.402344 210.535156 326.617188 209.726562 326.253906 209.09375 C 325.878906 208.460938 325.070312 208.246094 324.4375 208.609375 Z M 324.4375 208.609375 " fill-opacity="1" fill-rule="nonzero"/><path fill="#2bccca" d="M 331.625 206.847656 C 331.960938 206.957031 332.335938 206.941406 332.671875 206.753906 L 344.328125 200.445312 C 344.972656 200.097656 345.214844 199.289062 344.863281 198.65625 C 344.515625 198.011719 343.707031 197.769531 343.074219 198.121094 L 331.421875 204.425781 C 330.777344 204.777344 330.53125 205.585938 330.882812 206.214844 C 331.042969 206.539062 331.3125 206.753906 331.625 206.847656 Z M 331.625 206.847656 " fill-opacity="1" fill-rule="nonzero"/><path fill="#2bccca" d="M 348.417969 196.128906 C 348.578125 196.476562 348.863281 196.71875 349.199219 196.828125 C 349.507812 196.9375 349.859375 196.921875 350.167969 196.773438 L 361.511719 191.582031 C 362.171875 191.273438 362.46875 190.492188 362.171875 189.832031 C 361.863281 189.175781 361.082031 188.878906 360.421875 189.1875 L 349.078125 194.378906 C 348.40625 194.675781 348.121094 195.457031 348.417969 196.128906 Z M 348.417969 196.128906 " fill-opacity="1" fill-rule="nonzero"/><path fill="#2bccca" d="M 356.652344 185.878906 C 356.800781 186.230469 357.097656 186.5 357.449219 186.605469 C 357.664062 186.671875 357.890625 186.699219 358.121094 186.644531 C 358.832031 186.511719 359.304688 185.8125 359.171875 185.097656 C 359.089844 184.710938 358.996094 184.210938 348.863281 171.957031 C 348.40625 171.394531 347.554688 171.3125 346.992188 171.785156 C 346.425781 172.253906 346.34375 173.089844 346.816406 173.652344 C 351.203125 178.9375 356.074219 184.964844 356.652344 185.878906 Z M 356.652344 185.878906 " fill-opacity="1" fill-rule="nonzero"/><path fill="#2bccca" d="M 341.082031 168.246094 C 341.246094 168.449219 341.460938 168.582031 341.6875 168.664062 C 342.105469 168.796875 342.578125 168.730469 342.953125 168.433594 C 343.519531 167.976562 343.601562 167.144531 343.144531 166.578125 L 335.164062 156.800781 C 334.703125 156.234375 333.871094 156.140625 333.304688 156.609375 C 332.738281 157.070312 332.660156 157.902344 333.117188 158.46875 Z M 341.082031 168.246094 " fill-opacity="1" fill-rule="nonzero"/><path fill="#2bccca" d="M 328.070312 151.753906 C 328.203125 152.160156 328.527344 152.46875 328.90625 152.589844 C 329.121094 152.671875 329.363281 152.683594 329.605469 152.628906 C 330.316406 152.46875 330.773438 151.769531 330.613281 151.054688 C 330.53125 150.71875 330.34375 149.804688 321.839844 139.664062 C 321.367188 139.097656 320.535156 139.03125 319.96875 139.503906 C 319.402344 139.972656 319.335938 140.808594 319.808594 141.371094 C 323.523438 145.785156 327.597656 150.839844 328.070312 151.753906 Z M 328.070312 151.753906 " fill-opacity="1" fill-rule="nonzero"/><path fill="#2bccca" d="M 311.652344 131.6875 C 311.8125 131.875 312.015625 132.011719 312.246094 132.089844 C 312.660156 132.238281 313.160156 132.15625 313.523438 131.847656 C 314.089844 131.378906 314.15625 130.542969 313.683594 129.980469 L 302.769531 117.039062 C 302.300781 116.488281 301.464844 116.40625 300.898438 116.878906 C 300.335938 117.347656 300.269531 118.183594 300.738281 118.746094 Z M 311.652344 131.6875 " fill-opacity="1" fill-rule="nonzero"/></svg>