<svg xmlns="http://www.w3.org/2000/svg" xmlns:xlink="http://www.w3.org/1999/xlink" width="500" zoomAndPan="magnify" viewBox="0 0 375 374.999991" height="500" preserveAspectRatio="xMidYMid meet" version="1.0"><defs><clipPath id="id1"><path d="M 0 67.628906 L 375 67.628906 L 375 294.128906 L 0 294.128906 Z M 0 67.628906 " clip-rule="nonzero"/></clipPath></defs><g clip-path="url(#id1)"><path fill="#000000" d="M 88.515625 126.699219 L 159.222656 126.699219 L 159.222656 132.328125 L 94.996094 132.328125 L 94.996094 174.679688 L 155.394531 174.679688 L 155.394531 180.3125 L 94.996094 180.3125 L 94.996094 226.816406 L 159.957031 226.816406 L 159.957031 232.445312 L 88.515625 232.445312 Z M 165.554688 126.699219 L 173.070312 126.699219 L 206.359375 173.199219 L 240.386719 126.699219 L 286.667969 67.628906 L 210.628906 178.089844 L 249.816406 232.445312 L 242.003906 232.445312 L 206.359375 182.972656 L 170.566406 232.445312 L 162.90625 232.445312 L 202.378906 178.089844 Z M 252.613281 132.328125 L 252.613281 126.699219 L 333.191406 126.699219 L 333.191406 132.328125 L 296.066406 132.328125 L 296.066406 232.445312 L 289.589844 232.445312 L 289.589844 132.328125 L 252.613281 132.324219 Z M 0.0625 126.699219 L 8.164062 126.699219 L 119.878906 294.113281 L 73.714844 232.445312 L 6.839844 134.699219 L 6.546875 232.445312 L 0.0625 232.445312 Z M 332.53125 225.121094 C 331.214844 225.121094 330.21875 224.089844 330.21875 222.761719 C 330.21875 221.433594 331.214844 220.40625 332.53125 220.40625 C 333.871094 220.40625 334.851562 221.433594 334.851562 222.761719 C 334.851562 224.089844 333.871094 225.121094 332.53125 225.121094 Z M 338.902344 218.917969 L 342.371094 218.917969 C 342.414062 220.804688 343.792969 222.0625 345.804688 222.0625 C 348.0625 222.0625 349.335938 220.707031 349.335938 218.164062 L 349.335938 202.039062 L 352.871094 202.039062 L 352.871094 218.179688 C 352.871094 222.761719 350.222656 225.402344 345.84375 225.402344 C 341.726562 225.402344 338.902344 222.839844 338.902344 218.917969 Z M 357.492188 218.714844 L 360.992188 218.714844 C 361.285156 220.882812 363.398438 222.253906 366.445312 222.253906 C 369.28125 222.253906 371.359375 220.789062 371.359375 218.765625 C 371.359375 217.027344 370.035156 215.976562 367.023438 215.265625 L 364.09375 214.554688 C 359.980469 213.59375 358.105469 211.601562 358.105469 208.25 C 358.105469 204.1875 361.414062 201.488281 366.378906 201.488281 C 371 201.488281 374.367188 204.1875 374.574219 208.03125 L 371.140625 208.03125 C 370.808594 205.925781 368.980469 204.613281 366.328125 204.613281 C 363.539062 204.613281 361.679688 205.960938 361.679688 208.015625 C 361.679688 209.644531 362.878906 210.574219 365.84375 211.269531 L 368.347656 211.886719 C 373.011719 212.980469 374.9375 214.878906 374.9375 218.304688 C 374.9375 222.664062 371.5625 225.402344 366.175781 225.402344 C 361.128906 225.402344 357.742188 222.796875 357.492188 218.714844 Z M 357.492188 218.714844 " fill-opacity="1" fill-rule="nonzero"/></g></svg>