<svg xmlns="http://www.w3.org/2000/svg" xmlns:xlink="http://www.w3.org/1999/xlink" width="500" zoomAndPan="magnify" viewBox="0 0 375 374.999991" height="500" preserveAspectRatio="xMidYMid meet" version="1.0"><defs><clipPath id="id1"><path d="M 275 41 L 340.171875 41 L 340.171875 94 L 275 94 Z M 275 41 " clip-rule="nonzero"/></clipPath><clipPath id="id2"><path d="M 207 68 L 340.171875 68 L 340.171875 271 L 207 271 Z M 207 68 " clip-rule="nonzero"/></clipPath><clipPath id="id3"><path d="M 34.921875 183 L 315 183 L 315 375 L 34.921875 375 Z M 34.921875 183 " clip-rule="nonzero"/></clipPath></defs><g clip-path="url(#id1)"><path fill="#f9ae1c" d="M 323.476562 41.019531 L 275.734375 68.859375 L 340.171875 93.691406 Z M 323.476562 41.019531 " fill-opacity="1" fill-rule="nonzero"/></g><g clip-path="url(#id2)"><path fill="#e94240" d="M 275.734375 68.859375 L 207.445312 245.972656 L 271.882812 270.808594 L 340.171875 93.691406 L 275.734375 68.859375 " fill-opacity="1" fill-rule="nonzero"/></g><path fill="#d8343b" d="M 236.507812 170.652344 L 207.445312 245.972656 L 271.882812 270.808594 L 310.488281 170.652344 L 236.507812 170.652344 " fill-opacity="1" fill-rule="nonzero"/><path fill="#c63534" d="M 245.601562 260.675781 L 233.726562 256.105469 L 302.015625 78.992188 L 313.890625 83.5625 L 245.601562 260.675781 " fill-opacity="1" fill-rule="nonzero"/><path fill="#8dd5d8" d="M 174.828125 254.863281 L 111.382812 278.730469 L 36.585938 80.011719 L 100.03125 56.144531 L 174.828125 254.863281 " fill-opacity="1" fill-rule="nonzero"/><path fill="#69b7d4" d="M 49.875 114.355469 L 45.40625 102.433594 L 80.902344 89.097656 L 85.375 100.996094 L 49.875 114.355469 " fill-opacity="1" fill-rule="nonzero"/><path fill="#69b7d4" d="M 60.558594 142.738281 L 56.085938 130.84375 L 77.375 122.824219 L 81.871094 134.71875 L 60.558594 142.738281 " fill-opacity="1" fill-rule="nonzero"/><path fill="#69b7d4" d="M 71.238281 171.125 L 66.769531 159.230469 L 102.265625 145.867188 L 106.738281 157.765625 L 71.238281 171.125 " fill-opacity="1" fill-rule="nonzero"/><path fill="#f9ae1c" d="M 257.5 75.292969 C 257.5 34.019531 221.726562 1.089844 179.5 5.808594 C 148.671875 9.257812 123.183594 33.519531 118.464844 64.164062 C 114.414062 90.316406 124.921875 114.253906 143.082031 129.207031 C 151.378906 136.058594 155.75 146.589844 155.75 157.34375 L 155.75 157.9375 L 219.34375 157.9375 L 219.34375 156.273438 C 219.34375 145.445312 224.585938 135.539062 232.832031 128.511719 C 247.910156 115.722656 257.5 96.625 257.5 75.292969 " fill-opacity="1" fill-rule="nonzero"/><path fill="#f57725" d="M 219.34375 183.367188 L 155.75 183.367188 L 155.75 157.9375 L 219.34375 157.9375 L 219.34375 183.367188 " fill-opacity="1" fill-rule="nonzero"/><path fill="#f57725" d="M 206.625 157.9375 L 193.90625 157.9375 L 193.90625 100.722656 C 193.90625 99.453125 194.277344 98.238281 194.972656 97.195312 L 201.109375 88.007812 L 173.984375 88.007812 L 180.121094 97.195312 C 180.816406 98.238281 181.1875 99.453125 181.1875 100.722656 L 181.1875 157.9375 L 168.46875 157.9375 L 168.46875 102.632812 L 156.816406 85.175781 C 155.527344 83.214844 155.402344 80.707031 156.496094 78.644531 C 157.613281 76.582031 159.773438 75.292969 162.109375 75.292969 L 212.984375 75.292969 C 215.320312 75.292969 217.480469 76.582031 218.597656 78.644531 C 219.691406 80.707031 219.566406 83.214844 218.277344 85.175781 L 206.625 102.632812 L 206.625 157.9375 " fill-opacity="1" fill-rule="nonzero"/><path fill="#fcd77f" d="M 167.898438 42.585938 L 161.339844 31.707031 C 164.992188 29.5 168.914062 27.761719 173.015625 26.542969 L 176.640625 38.734375 C 173.585938 39.628906 170.628906 40.945312 167.898438 42.585938 " fill-opacity="1" fill-rule="nonzero"/><path fill="#fcd77f" d="M 149.761719 69.828125 L 137.195312 68.039062 C 138.734375 57.285156 143.578125 47.476562 151.203125 39.703125 L 160.296875 48.59375 C 154.558594 54.429688 150.929688 61.78125 149.761719 69.828125 " fill-opacity="1" fill-rule="nonzero"/><path fill="#ec5f1a" d="M 219.34375 183.367188 L 155.75 183.367188 L 155.75 170.652344 L 219.34375 170.652344 L 219.34375 183.367188 " fill-opacity="1" fill-rule="nonzero"/><path fill="#79ccd1" d="M 70.71875 170.652344 L 111.382812 278.730469 L 174.828125 254.863281 L 143.128906 170.652344 L 70.71875 170.652344 " fill-opacity="1" fill-rule="nonzero"/><g clip-path="url(#id3)"><path fill="#5498d7" d="M 272.40625 358.742188 L 270.21875 374.089844 L 111.234375 374.089844 C 90.167969 374.089844 73.078125 357.003906 73.078125 335.945312 L 73.078125 278.730469 L 34.921875 278.730469 L 73.078125 183.367188 L 314.734375 183.367188 L 314.734375 233.058594 C 314.734375 258.6875 307.132812 283.746094 292.921875 305.078125 C 282.167969 321.21875 275.164062 339.546875 272.40625 358.742188 " fill-opacity="1" fill-rule="nonzero"/></g><path fill="#4a8dcf" d="M 193.90625 374.089844 L 270.21875 374.089844 L 272.40625 358.742188 C 275.164062 339.546875 282.167969 321.21875 292.921875 305.078125 C 307.132812 283.746094 314.734375 258.6875 314.734375 233.058594 L 314.734375 183.367188 L 244.78125 183.367188 C 251.140625 259.65625 233.652344 308.925781 193.90625 374.089844 " fill-opacity="1" fill-rule="nonzero"/><path fill="#5498d7" d="M 266.394531 289.855469 L 255.8125 282.800781 C 266.566406 266.636719 272.28125 247.835938 272.28125 228.390625 L 285 228.390625 C 285 250.34375 278.566406 271.601562 266.394531 289.855469 " fill-opacity="1" fill-rule="nonzero"/><path fill="#5498d7" d="M 284.625 217.390625 L 271.90625 217.390625 L 271.90625 204.128906 L 284.625 204.128906 L 284.625 217.390625 " fill-opacity="1" fill-rule="nonzero"/><path fill="#2c5ca0" d="M 73.425781 316.875 L 73.425781 304.160156 C 85.621094 304.160156 97.125 298.570312 105.84375 288.390625 L 106.761719 287.296875 L 116.425781 295.589844 L 115.480469 296.683594 C 104.476562 309.523438 89.152344 316.875 73.425781 316.875 " fill-opacity="1" fill-rule="nonzero"/><path fill="#2c5ca0" d="M 136.671875 234.226562 C 136.671875 244.757812 128.125 253.300781 117.59375 253.300781 C 107.0625 253.300781 98.515625 244.757812 98.515625 234.226562 C 98.515625 223.699219 107.0625 215.15625 117.59375 215.15625 C 128.125 215.15625 136.671875 223.699219 136.671875 234.226562 " fill-opacity="1" fill-rule="nonzero"/></svg>