<svg xmlns="http://www.w3.org/2000/svg" xmlns:xlink="http://www.w3.org/1999/xlink" width="500" zoomAndPan="magnify" viewBox="0 0 375 374.999991" height="500" preserveAspectRatio="xMidYMid meet" version="1.0"><defs><clipPath id="id1"><path d="M 1 78.28125 L 374 78.28125 L 374 296.53125 L 1 296.53125 Z M 1 78.28125 " clip-rule="nonzero"/></clipPath></defs><g clip-path="url(#id1)"><path fill="#ffffff" d="M 37.816406 78.28125 C 17.804688 78.28125 1.539062 94.542969 1.539062 114.535156 L 1.539062 179.261719 C 1.539062 199.253906 17.8125 215.515625 37.816406 215.515625 L 183.199219 215.515625 C 185.652344 215.515625 187.632812 213.535156 187.632812 211.089844 C 187.632812 208.648438 185.652344 206.664062 183.199219 206.664062 L 37.816406 206.664062 C 22.699219 206.664062 10.398438 194.371094 10.398438 179.261719 L 10.398438 114.535156 C 10.398438 99.425781 22.699219 87.136719 37.816406 87.136719 L 311.695312 87.136719 C 314.144531 87.136719 316.125 85.152344 316.125 82.707031 C 316.125 80.265625 314.144531 78.28125 311.695312 78.28125 Z M 266.867188 118.175781 C 266.445312 118.226562 266.023438 118.339844 265.621094 118.511719 C 264.003906 119.21875 262.953125 120.804688 262.953125 122.566406 L 262.953125 262.25 C 262.953125 264.023438 264.003906 265.625 265.628906 266.324219 C 267.253906 267.023438 269.148438 266.675781 270.433594 265.460938 L 300.582031 236.824219 L 325.167969 293.648438 C 325.636719 294.734375 326.53125 295.585938 327.640625 296.015625 C 328.152344 296.210938 328.695312 296.320312 329.234375 296.320312 C 329.863281 296.320312 330.484375 296.179688 331.070312 295.914062 L 349.710938 287.445312 C 351.933594 286.4375 352.925781 283.828125 351.917969 281.601562 L 326.527344 225.496094 L 369.441406 221.804688 C 371.1875 221.652344 372.675781 220.484375 373.25 218.828125 C 373.824219 217.171875 373.363281 215.339844 372.089844 214.144531 L 270.40625 119.335938 C 269.433594 118.429688 268.136719 118.027344 266.867188 118.175781 Z M 196.863281 118.667969 L 177.507812 167.925781 L 184.886719 167.925781 L 204.308594 118.667969 Z M 223.304688 118.667969 L 203.945312 167.925781 L 211.324219 167.925781 L 230.746094 118.667969 Z M 50.277344 122.5 L 50.277344 163.171875 L 57.375 163.171875 L 57.375 148.523438 C 57.375 144.226562 60.28125 140.683594 64.46875 140.683594 C 68.253906 140.683594 70.976562 142.890625 70.976562 148.117188 L 70.976562 163.171875 L 78.074219 163.171875 L 78.074219 148.058594 C 78.074219 139.636719 74.46875 134.121094 66.332031 134.121094 C 63.078125 134.121094 59.933594 135.105469 57.375 138.417969 L 57.375 122.5 Z M 94.046875 126.460938 L 86.953125 127.210938 L 86.953125 134.59375 L 81.605469 134.59375 L 81.605469 140.691406 L 86.953125 140.691406 L 86.953125 153.0625 C 86.949219 160.203125 91.015625 163.753906 97.242188 163.519531 C 99.390625 163.460938 101.085938 163.109375 103.117188 162.296875 L 101.136719 156.253906 C 100.089844 156.777344 98.816406 157.128906 97.710938 157.128906 C 95.503906 157.128906 93.988281 155.792969 93.988281 153.0625 L 93.988281 140.691406 L 101.957031 140.691406 L 101.957031 134.59375 L 94.046875 134.59375 Z M 117.242188 126.460938 L 110.144531 127.210938 L 110.144531 134.59375 L 104.796875 134.59375 L 104.796875 140.691406 L 110.144531 140.691406 L 110.144531 153.0625 C 110.144531 160.203125 114.214844 163.753906 120.433594 163.519531 C 122.582031 163.460938 124.277344 163.109375 126.308594 162.296875 L 124.328125 156.253906 C 123.28125 156.777344 122.007812 157.128906 120.902344 157.128906 C 118.695312 157.128906 117.179688 155.792969 117.179688 153.0625 L 117.179688 140.691406 L 125.140625 140.691406 L 125.140625 134.59375 L 117.242188 134.59375 Z M 146.828125 133.886719 C 143.5625 133.890625 139.726562 135.28125 137.515625 138.476562 L 137.058594 134.527344 L 130.429688 134.527344 L 130.429688 175.128906 L 137.527344 175.128906 L 137.527344 159.792969 C 139.558594 162.925781 144.039062 163.855469 147.0625 163.855469 C 156.246094 163.855469 161.539062 157.234375 161.539062 148.871094 C 161.539062 140.445312 155.664062 133.886719 146.828125 133.886719 Z M 273.339844 134.179688 L 358.753906 213.832031 L 319.535156 217.210938 C 318.101562 217.335938 316.824219 218.132812 316.097656 219.375 C 315.371094 220.613281 315.289062 222.128906 315.882812 223.4375 L 342.015625 281.214844 L 331.511719 285.984375 L 306.191406 227.476562 C 305.613281 226.148438 304.4375 225.1875 303.011719 224.898438 C 302.722656 224.839844 302.414062 224.8125 302.121094 224.8125 C 300.996094 224.8125 299.894531 225.234375 299.066406 226.023438 L 271.816406 251.925781 L 271.816406 141.640625 L 282.453125 165.488281 C 282.820312 166.3125 283.628906 166.804688 284.476562 166.804688 C 284.777344 166.804688 285.089844 166.742188 285.378906 166.613281 C 286.496094 166.117188 287 164.804688 286.503906 163.691406 Z M 171.171875 138.5625 C 169.109375 138.5625 167.042969 139.933594 167.042969 142.664062 C 167.042969 148.0625 175.300781 148.0625 175.300781 142.664062 C 175.300781 139.933594 173.234375 138.5625 171.171875 138.5625 Z M 146.300781 140.742188 C 151.414062 140.742188 154.433594 144.398438 154.433594 148.871094 C 154.433594 153.34375 151.125 157.007812 146.300781 157.007812 C 141.476562 157.007812 138.15625 153.34375 138.15625 148.871094 C 138.15625 144.394531 141.183594 140.742188 146.300781 140.742188 Z M 171.171875 155.40625 C 169.109375 155.40625 167.042969 156.773438 167.042969 159.507812 C 167.042969 164.90625 175.300781 164.90625 175.300781 159.507812 C 175.300781 156.773438 173.234375 155.40625 171.171875 155.40625 Z M 287.003906 169.933594 C 286.714844 169.933594 286.425781 169.996094 286.148438 170.113281 C 285.023438 170.597656 284.496094 171.898438 284.980469 173.019531 L 285.84375 175.035156 C 286.207031 175.875 287.03125 176.375 287.886719 176.375 C 288.179688 176.375 288.476562 176.316406 288.761719 176.195312 C 289.886719 175.710938 290.398438 174.417969 289.921875 173.296875 L 289.054688 171.273438 C 288.6875 170.429688 287.867188 169.929688 287.003906 169.933594 Z M 287.003906 169.933594 " fill-opacity="1" fill-rule="nonzero"/></g></svg>